SplineFontDB: 3.0
FontName: Fulfulde-AissataUnicode
FullName: Fulfulde - Aissata Unicode
FamilyName: Fulfulde - Aissata Unicode
Weight: Book
Copyright: Copyright 2008 Abdoulaye and Ibrahima Berry. All rights reserved. By copyright law this program may not be copied for others or modified.\n\nUpdated by Craig Cornelius to use Adlam code points in Unicode 9.0, 2016.\nStarted January 2017.
Version: 1.10
ItalicAngle: 0
UnderlinePosition: -100
UnderlineWidth: 50
Ascent: 800
Descent: 200
InvalidEm: 0
sfntRevision: 0x00010000
LayerCount: 2
Layer: 0 1 "Back" 1
Layer: 1 1 "Fore" 0
XUID: [1021 542 1552056636 12382249]
FSType: 4
OS2Version: 2
OS2_WeightWidthSlopeOnly: 0
OS2_UseTypoMetrics: 1
CreationTime: 1209147540
ModificationTime: 1485051122
PfmFamily: 17
TTFWeight: 400
TTFWidth: 5
LineGap: 0
VLineGap: 0
Panose: 2 0 0 0 0 0 0 0 0 0
OS2TypoAscent: 880
OS2TypoAOffset: 0
OS2TypoDescent: -300
OS2TypoDOffset: 0
OS2TypoLinegap: 0
OS2WinAscent: 880
OS2WinAOffset: 0
OS2WinDescent: 300
OS2WinDOffset: 0
HheadAscent: 880
HheadAOffset: 0
HheadDescent: 300
HheadDOffset: 0
OS2SubXSize: 100
OS2SubYSize: 100
OS2SubXOff: 0
OS2SubYOff: 140
OS2SupXSize: 100
OS2SupYSize: 100
OS2SupXOff: 0
OS2SupYOff: 140
OS2StrikeYSize: 50
OS2StrikeYPos: 250
OS2CapHeight: 700
OS2XHeight: 256
OS2Vendor: 'BARR'
OS2CodePages: 00000041.00000000
OS2UnicodeRanges: 8000202f.9000204a.00000008.00000000
Lookup: 1 1 0 "'isol' Isolated Forms in Arabic lookup 0" { "'isol' Isolated Forms in Arabic lookup 0 subtable"  } ['isol' ('arab' <'dflt' > ) ]
Lookup: 1 1 0 "'init' Initial Forms in Arabic lookup 1" { "'init' Initial Forms in Arabic lookup 1 subtable"  } ['init' ('arab' <'dflt' > ) ]
Lookup: 1 1 0 "'medi' Medial Forms in Arabic lookup 2" { "'medi' Medial Forms in Arabic lookup 2 subtable"  } ['medi' ('arab' <'dflt' > ) ]
Lookup: 1 1 0 "'fina' Terminal Forms in Arabic lookup 3" { "'fina' Terminal Forms in Arabic lookup 3 subtable"  } ['fina' ('arab' <'dflt' > ) ]

StartChar: exclam
Encoding: 33 33 4
Width: 160
GlyphClass: 2
Flags: W
LayerCount: 2
Back
Fore
SplineSet
110 186 m 1,0,1
 110 171 110 171 100.5 163 c 128,-1,2
 91 155 91 155 80 155 c 128,-1,3
 69 155 69 155 59.5 163 c 128,-1,4
 50 171 50 171 50 186 c 2,5,-1
 50 572 l 2,6,7
 50 587 50 587 59.5 594.5 c 128,-1,8
 69 602 69 602 80 602 c 128,-1,9
 91 602 91 602 100.5 594.5 c 128,-1,10
 110 587 110 587 110 572 c 2,11,-1
 110 186 l 1,12,-1
 110 186 l 1,0,1
116 28 m 256,13,14
 116 13 116 13 105.5 3 c 128,-1,15
 95 -7 95 -7 80 -7 c 256,16,17
 65 -7 65 -7 54.5 3 c 128,-1,18
 44 13 44 13 44 28 c 256,19,20
 44 43 44 43 54.5 53 c 128,-1,21
 65 63 65 63 80 63 c 256,22,23
 95 63 95 63 105.5 53 c 128,-1,24
 116 43 116 43 116 28 c 256,13,14
EndSplineSet
Validated: 5
EndChar

StartChar: quotedbl
Encoding: 34 34 5
Width: 272
GlyphClass: 2
Flags: W
LayerCount: 2
Back
Fore
SplineSet
223 434 m 1,0,1
 223 419 223 419 213.5 411.5 c 128,-1,2
 204 404 204 404 192.5 404 c 128,-1,3
 181 404 181 404 171.5 411.5 c 128,-1,4
 162 419 162 419 162 434 c 2,5,-1
 162 573 l 2,6,7
 162 588 162 588 171.5 595 c 128,-1,8
 181 602 181 602 192.5 602 c 128,-1,9
 204 602 204 602 213.5 595 c 128,-1,10
 223 588 223 588 223 573 c 2,11,-1
 223 434 l 1,12,-1
 223 434 l 1,0,1
110 434 m 1,13,14
 110 419 110 419 100.5 411.5 c 128,-1,15
 91 404 91 404 80 404 c 128,-1,16
 69 404 69 404 59.5 411.5 c 128,-1,17
 50 419 50 419 50 434 c 2,18,-1
 50 573 l 2,19,20
 50 588 50 588 59.5 595 c 128,-1,21
 69 602 69 602 80 602 c 128,-1,22
 91 602 91 602 100.5 595 c 128,-1,23
 110 588 110 588 110 573 c 2,24,-1
 110 434 l 1,25,-1
 110 434 l 1,13,14
EndSplineSet
Validated: 5
EndChar

StartChar: numbersign
Encoding: 35 35 6
Width: 599
GlyphClass: 2
Flags: W
LayerCount: 2
Back
Fore
SplineSet
416 378 m 1,0,-1
 390 247 l 1,1,-1
 493 247 l 2,2,3
 508 247 508 247 516 237.5 c 128,-1,4
 524 228 524 228 524 216.5 c 128,-1,5
 524 205 524 205 516 195.5 c 128,-1,6
 508 186 508 186 493 186 c 2,7,-1
 378 186 l 1,8,-1
 346 24 l 2,9,10
 343 9 343 9 332.5 3 c 128,-1,11
 322 -3 322 -3 311 -0.5 c 128,-1,12
 300 2 300 2 292.5 11.5 c 128,-1,13
 285 21 285 21 288 36 c 2,14,-1
 317 186 l 1,15,-1
 209 186 l 1,16,-1
 177 24 l 2,17,18
 174 9 174 9 163.5 3 c 128,-1,19
 153 -3 153 -3 142 -0.5 c 128,-1,20
 131 2 131 2 123.5 11.5 c 128,-1,21
 116 21 116 21 119 36 c 2,22,-1
 148 186 l 1,23,-1
 56 186 l 2,24,25
 41 186 41 186 33.5 195.5 c 128,-1,26
 26 205 26 205 26 216.5 c 128,-1,27
 26 228 26 228 33.5 237.5 c 128,-1,28
 41 247 41 247 56 247 c 2,29,-1
 160 247 l 1,30,-1
 186 378 l 1,31,-1
 98 378 l 2,32,33
 83 378 83 378 75.5 387.5 c 128,-1,34
 68 397 68 397 68 408 c 128,-1,35
 68 419 68 419 75.5 428.5 c 128,-1,36
 83 438 83 438 98 438 c 2,37,-1
 197 438 l 1,38,-1
 225 577 l 2,39,40
 228 592 228 592 238.5 597.5 c 128,-1,41
 249 603 249 603 260 600.5 c 128,-1,42
 271 598 271 598 279 589 c 128,-1,43
 287 580 287 580 284 565 c 2,44,-1
 258 438 l 1,45,-1
 366 438 l 1,46,-1
 394 577 l 2,47,48
 397 592 397 592 407.5 597.5 c 128,-1,49
 418 603 418 603 429 600.5 c 128,-1,50
 440 598 440 598 448 589 c 128,-1,51
 456 580 456 580 453 565 c 2,52,-1
 427 438 l 1,53,-1
 535 438 l 2,54,55
 550 438 550 438 558 428.5 c 128,-1,56
 566 419 566 419 566 408 c 128,-1,57
 566 397 566 397 558 387.5 c 128,-1,58
 550 378 550 378 535 378 c 2,59,-1
 416 378 l 1,0,-1
247 378 m 1,60,-1
 221 247 l 1,61,-1
 329 247 l 1,62,-1
 355 378 l 1,63,-1
 247 378 l 1,60,-1
EndSplineSet
Validated: 1
EndChar

StartChar: dollar
Encoding: 36 36 7
Width: 513
GlyphClass: 2
Flags: W
LayerCount: 2
Back
Fore
SplineSet
464 146 m 0,0,1
 464 118 464 118 454 93.5 c 128,-1,2
 444 69 444 69 427 49 c 128,-1,3
 410 29 410 29 387 14.5 c 128,-1,4
 364 0 364 0 337 -9 c 1,5,-1
 337 -58 l 2,6,7
 337 -73 337 -73 327.5 -80.5 c 128,-1,8
 318 -88 318 -88 307 -88 c 128,-1,9
 296 -88 296 -88 286.5 -80.5 c 128,-1,10
 277 -73 277 -73 277 -58 c 2,11,-1
 277 -20 l 1,12,-1
 268 -20 l 2,13,14
 246 -20 246 -20 226 -17 c 1,15,-1
 226 -58 l 2,16,17
 226 -73 226 -73 216.5 -80.5 c 128,-1,18
 207 -88 207 -88 195.5 -88 c 128,-1,19
 184 -88 184 -88 174.5 -80.5 c 128,-1,20
 165 -73 165 -73 165 -58 c 2,21,-1
 165 3 l 1,22,23
 133 20 133 20 105.5 47 c 128,-1,24
 78 74 78 74 46 109 c 0,25,26
 36 120 36 120 38 132 c 128,-1,27
 40 144 40 144 49 151.5 c 128,-1,28
 58 159 58 159 70 160 c 128,-1,29
 82 161 82 161 92 149 c 0,30,31
 112 127 112 127 129.5 108.5 c 128,-1,32
 147 90 147 90 165 75 c 1,33,-1
 165 314 l 1,34,35
 116 337 116 337 83 371.5 c 128,-1,36
 50 406 50 406 50 461 c 0,37,38
 50 512 50 512 83.5 547.5 c 128,-1,39
 117 583 117 583 165 601 c 1,40,-1
 165 667 l 2,41,42
 165 682 165 682 174.5 689.5 c 128,-1,43
 184 697 184 697 195.5 697 c 128,-1,44
 207 697 207 697 216.5 689.5 c 128,-1,45
 226 682 226 682 226 667 c 2,46,-1
 226 614 l 1,47,48
 232 615 232 615 238 615.5 c 128,-1,49
 244 616 244 616 250 616 c 0,50,51
 257 616 257 616 263.5 615.5 c 128,-1,52
 270 615 270 615 277 614 c 1,53,-1
 277 667 l 2,54,55
 277 682 277 682 286.5 689.5 c 128,-1,56
 296 697 296 697 307 697 c 128,-1,57
 318 697 318 697 327.5 689.5 c 128,-1,58
 337 682 337 682 337 667 c 2,59,-1
 337 597 l 1,60,61
 369 581 369 581 394.5 555.5 c 128,-1,62
 420 530 420 530 444 496 c 0,63,64
 452 483 452 483 448 471.5 c 128,-1,65
 444 460 444 460 434 454 c 128,-1,66
 424 448 424 448 412 449 c 128,-1,67
 400 450 400 450 392 462 c 0,68,69
 368 502 368 502 337 526 c 1,70,-1
 337 311 l 1,71,72
 367 298 367 298 390.5 282.5 c 128,-1,73
 414 267 414 267 430.5 247.5 c 128,-1,74
 447 228 447 228 455.5 203 c 128,-1,75
 464 178 464 178 464 146 c 0,0,1
277 552 m 1,76,77
 265 555 265 555 250 555 c 0,78,79
 244 555 244 555 238 554.5 c 128,-1,80
 232 554 232 554 226 553 c 1,81,-1
 226 354 l 1,82,83
 234 351 234 351 242.5 348.5 c 128,-1,84
 251 346 251 346 259 342 c 2,85,-1
 277 336 l 1,86,-1
 277 552 l 1,76,77
165 537 m 1,87,88
 141 526 141 526 125.5 507 c 128,-1,89
 110 488 110 488 110 461 c 0,90,91
 110 430 110 430 125.5 411 c 128,-1,92
 141 392 141 392 165 379 c 1,93,-1
 165 537 l 1,87,88
403 146 m 0,94,95
 403 184 403 184 385.5 207 c 128,-1,96
 368 230 368 230 337 246 c 1,97,-1
 337 55 l 1,98,99
 366 67 366 67 384.5 90.5 c 128,-1,100
 403 114 403 114 403 146 c 0,94,95
277 272 m 1,101,102
 268 275 268 275 258 278.5 c 128,-1,103
 248 282 248 282 239 285 c 0,104,105
 236 286 236 286 232.5 287.5 c 128,-1,106
 229 289 229 289 226 290 c 2,107,-1
 226 45 l 1,108,109
 246 40 246 40 268 40 c 2,110,-1
 277 40 l 1,111,-1
 277 272 l 1,101,102
EndSplineSet
Validated: 1
EndChar

StartChar: percent
Encoding: 37 37 8
Width: 805
GlyphClass: 2
Flags: W
LayerCount: 2
Back
Fore
SplineSet
756 152 m 256,0,1
 756 119 756 119 743 90.5 c 128,-1,2
 730 62 730 62 708 40 c 128,-1,3
 686 18 686 18 656.5 5.5 c 128,-1,4
 627 -7 627 -7 594 -7 c 256,5,6
 561 -7 561 -7 531.5 5.5 c 128,-1,7
 502 18 502 18 480.5 40 c 128,-1,8
 459 62 459 62 446 90.5 c 128,-1,9
 433 119 433 119 433 152 c 256,10,11
 433 185 433 185 446 213.5 c 128,-1,12
 459 242 459 242 480.5 264 c 128,-1,13
 502 286 502 286 531.5 298.5 c 128,-1,14
 561 311 561 311 594 311 c 256,15,16
 627 311 627 311 656.5 298.5 c 128,-1,17
 686 286 686 286 708 264 c 128,-1,18
 730 242 730 242 743 213.5 c 128,-1,19
 756 185 756 185 756 152 c 256,0,1
245 10 m 2,20,21
 237 -2 237 -2 225 -3.5 c 128,-1,22
 213 -5 213 -5 203.5 1 c 128,-1,23
 194 7 194 7 190 18.5 c 128,-1,24
 186 30 186 30 194 42 c 2,25,-1
 549 593 l 2,26,27
 557 605 557 605 569 606 c 128,-1,28
 581 607 581 607 590.5 601 c 128,-1,29
 600 595 600 595 604 583.5 c 128,-1,30
 608 572 608 572 600 560 c 2,31,-1
 245 10 l 2,20,21
372 447 m 256,32,33
 372 414 372 414 359 385.5 c 128,-1,34
 346 357 346 357 324.5 335 c 128,-1,35
 303 313 303 313 273.5 300.5 c 128,-1,36
 244 288 244 288 211 288 c 256,37,38
 178 288 178 288 148.5 300.5 c 128,-1,39
 119 313 119 313 97 335 c 128,-1,40
 75 357 75 357 62.5 385.5 c 128,-1,41
 50 414 50 414 50 447 c 256,42,43
 50 480 50 480 62.5 508.5 c 128,-1,44
 75 537 75 537 97 559 c 128,-1,45
 119 581 119 581 148.5 593.5 c 128,-1,46
 178 606 178 606 211 606 c 256,47,48
 244 606 244 606 273.5 593.5 c 128,-1,49
 303 581 303 581 324.5 559 c 128,-1,50
 346 537 346 537 359 508.5 c 128,-1,51
 372 480 372 480 372 447 c 256,32,33
695 152 m 0,52,53
 695 173 695 173 687 191 c 128,-1,54
 679 209 679 209 665.5 222.5 c 128,-1,55
 652 236 652 236 633.5 244 c 128,-1,56
 615 252 615 252 594 252 c 0,57,58
 552 252 552 252 523 223 c 128,-1,59
 494 194 494 194 494 152 c 0,60,61
 494 132 494 132 502 113.5 c 128,-1,62
 510 95 510 95 523.5 81.5 c 128,-1,63
 537 68 537 68 555 60 c 128,-1,64
 573 52 573 52 594 52 c 256,65,66
 615 52 615 52 633.5 60 c 128,-1,67
 652 68 652 68 665.5 81.5 c 128,-1,68
 679 95 679 95 687 113.5 c 128,-1,69
 695 132 695 132 695 152 c 0,52,53
311 447 m 0,70,71
 311 467 311 467 303 485.5 c 128,-1,72
 295 504 295 504 281.5 517.5 c 128,-1,73
 268 531 268 531 250 539 c 128,-1,74
 232 547 232 547 211 547 c 256,75,76
 190 547 190 547 171.5 539 c 128,-1,77
 153 531 153 531 139.5 517.5 c 128,-1,78
 126 504 126 504 118 485.5 c 128,-1,79
 110 467 110 467 110 447 c 0,80,81
 110 426 110 426 118 408 c 128,-1,82
 126 390 126 390 139.5 376.5 c 128,-1,83
 153 363 153 363 171.5 355 c 128,-1,84
 190 347 190 347 211 347 c 0,85,86
 253 347 253 347 282 376 c 128,-1,87
 311 405 311 405 311 447 c 0,70,71
EndSplineSet
Validated: 1
EndChar

StartChar: ampersand
Encoding: 38 38 9
Width: 558
GlyphClass: 2
Flags: W
LayerCount: 2
Back
Fore
SplineSet
508 45 m 0,0,1
 516 32 516 32 511.5 20.5 c 128,-1,2
 507 9 507 9 497.5 3.5 c 128,-1,3
 488 -2 488 -2 475.5 0 c 128,-1,4
 463 2 463 2 455 15 c 0,5,6
 441 39 441 39 431 60 c 128,-1,7
 421 81 421 81 412 101 c 1,8,9
 380 55 380 55 338 23 c 128,-1,10
 296 -9 296 -9 240 -9 c 0,11,12
 200 -9 200 -9 165.5 5.5 c 128,-1,13
 131 20 131 20 105.5 45.5 c 128,-1,14
 80 71 80 71 65 105 c 128,-1,15
 50 139 50 139 50 177 c 0,16,17
 50 228 50 228 73 273 c 128,-1,18
 96 318 96 318 134 345 c 1,19,20
 108 365 108 365 92 395.5 c 128,-1,21
 76 426 76 426 76 461 c 0,22,23
 76 492 76 492 88 519.5 c 128,-1,24
 100 547 100 547 120.5 567 c 128,-1,25
 141 587 141 587 168.5 599 c 128,-1,26
 196 611 196 611 227 611 c 256,27,28
 258 611 258 611 285.5 599 c 128,-1,29
 313 587 313 587 333.5 567 c 128,-1,30
 354 547 354 547 366 519.5 c 128,-1,31
 378 492 378 492 378 461 c 0,32,33
 378 426 378 426 363.5 396.5 c 128,-1,34
 349 367 349 367 323 347 c 1,35,36
 351 330 351 330 372 306 c 128,-1,37
 393 282 393 282 408 253 c 0,38,39
 412 248 412 248 414.5 241.5 c 128,-1,40
 417 235 417 235 420 230 c 1,41,42
 425 238 425 238 429.5 246.5 c 128,-1,43
 434 255 434 255 439 263 c 0,44,45
 447 277 447 277 459 278.5 c 128,-1,46
 471 280 471 280 480.5 274 c 128,-1,47
 490 268 490 268 495 257 c 128,-1,48
 500 246 500 246 492 233 c 0,49,50
 481 215 481 215 471.5 197 c 128,-1,51
 462 179 462 179 451 162 c 1,52,53
 463 133 463 133 475.5 105 c 128,-1,54
 488 77 488 77 508 45 c 0,0,1
318 461 m 0,55,56
 318 499 318 499 291.5 525 c 128,-1,57
 265 551 265 551 227 551 c 256,58,59
 189 551 189 551 162.5 525 c 128,-1,60
 136 499 136 499 136 461 c 0,61,62
 136 424 136 424 162.5 397.5 c 128,-1,63
 189 371 189 371 227 371 c 256,64,65
 265 371 265 371 291.5 397.5 c 128,-1,66
 318 424 318 424 318 461 c 0,55,56
385 164 m 1,67,68
 379 178 379 178 371.5 193 c 128,-1,69
 364 208 364 208 354 225 c 0,70,71
 335 260 335 260 305 286 c 128,-1,72
 275 312 275 312 227 312 c 0,73,74
 201 312 201 312 179.5 300.5 c 128,-1,75
 158 289 158 289 142.5 270.5 c 128,-1,76
 127 252 127 252 118.5 227.5 c 128,-1,77
 110 203 110 203 110 177 c 256,78,79
 110 151 110 151 120.5 128 c 128,-1,80
 131 105 131 105 148.5 87.5 c 128,-1,81
 166 70 166 70 189.5 60 c 128,-1,82
 213 50 213 50 240 50 c 0,83,84
 266 50 266 50 287 59 c 128,-1,85
 308 68 308 68 325.5 84 c 128,-1,86
 343 100 343 100 357.5 120.5 c 128,-1,87
 372 141 372 141 385 164 c 1,67,68
EndSplineSet
Validated: 1
EndChar

StartChar: quotesingle
Encoding: 39 39 10
Width: 160
GlyphClass: 2
Flags: W
LayerCount: 2
Back
Fore
SplineSet
110 434 m 1,0,1
 110 419 110 419 100.5 411.5 c 128,-1,2
 91 404 91 404 80 404 c 128,-1,3
 69 404 69 404 59.5 411.5 c 128,-1,4
 50 419 50 419 50 434 c 2,5,-1
 50 573 l 2,6,7
 50 588 50 588 59.5 595 c 128,-1,8
 69 602 69 602 80 602 c 128,-1,9
 91 602 91 602 100.5 595 c 128,-1,10
 110 588 110 588 110 573 c 2,11,-1
 110 434 l 1,12,-1
 110 434 l 1,0,1
EndSplineSet
Validated: 5
EndChar

StartChar: parenleft
Encoding: 40 40 11
Width: 312
GlyphClass: 2
Flags: W
LayerCount: 2
Back
Fore
SplineSet
257 -40 m 0,0,1
 267 -51 267 -51 265 -62.5 c 128,-1,2
 263 -74 263 -74 255 -81.5 c 128,-1,3
 247 -89 247 -89 235 -90 c 128,-1,4
 223 -91 223 -91 213 -80 c 0,5,6
 182 -46 182 -46 152.5 -5 c 128,-1,7
 123 36 123 36 100 83.5 c 128,-1,8
 77 131 77 131 63.5 185 c 128,-1,9
 50 239 50 239 50 300 c 0,10,11
 50 415 50 415 95 504 c 128,-1,12
 140 593 140 593 213 653 c 0,13,14
 225 662 225 662 236.5 659.5 c 128,-1,15
 248 657 248 657 255.5 648.5 c 128,-1,16
 263 640 263 640 263 628 c 128,-1,17
 263 616 263 616 252 607 c 0,18,19
 189 554 189 554 149.5 477 c 128,-1,20
 110 400 110 400 110 300 c 0,21,22
 110 245 110 245 122.5 197 c 128,-1,23
 135 149 135 149 156 106.5 c 128,-1,24
 177 64 177 64 203.5 27.5 c 128,-1,25
 230 -9 230 -9 257 -40 c 0,0,1
EndSplineSet
Validated: 1
EndChar

StartChar: parenright
Encoding: 41 41 12
Width: 312
GlyphClass: 2
Flags: W
LayerCount: 2
Back
Fore
SplineSet
263 300 m 0,0,1
 263 239 263 239 249.5 185 c 128,-1,2
 236 131 236 131 213 83.5 c 128,-1,3
 190 36 190 36 160.5 -5 c 128,-1,4
 131 -46 131 -46 99 -80 c 0,5,6
 89 -91 89 -91 77 -90 c 128,-1,7
 65 -89 65 -89 57 -81.5 c 128,-1,8
 49 -74 49 -74 47 -62.5 c 128,-1,9
 45 -51 45 -51 55 -40 c 0,10,11
 83 -9 83 -9 109.5 27.5 c 128,-1,12
 136 64 136 64 156.5 106.5 c 128,-1,13
 177 149 177 149 189.5 197 c 128,-1,14
 202 245 202 245 202 300 c 0,15,16
 202 400 202 400 162.5 477 c 128,-1,17
 123 554 123 554 61 607 c 0,18,19
 49 616 49 616 49.5 628 c 128,-1,20
 50 640 50 640 57 648.5 c 128,-1,21
 64 657 64 657 76 659.5 c 128,-1,22
 88 662 88 662 99 653 c 0,23,24
 172 593 172 593 217.5 504 c 128,-1,25
 263 415 263 415 263 300 c 0,0,1
EndSplineSet
Validated: 1
EndChar

StartChar: asterisk
Encoding: 42 42 13
Width: 418
GlyphClass: 2
Flags: W
LayerCount: 2
Back
Fore
SplineSet
263 427 m 1,0,-1
 303 359 l 2,1,2
 311 347 311 347 306.5 336 c 128,-1,3
 302 325 302 325 292.5 319.5 c 128,-1,4
 283 314 283 314 270.5 315.5 c 128,-1,5
 258 317 258 317 250 330 c 2,6,-1
 211 396 l 1,7,-1
 171 329 l 2,8,9
 164 316 164 316 151.5 314.5 c 128,-1,10
 139 313 139 313 129.5 319 c 128,-1,11
 120 325 120 325 115.5 336 c 128,-1,12
 111 347 111 347 119 359 c 2,13,-1
 159 427 l 1,14,-1
 79 427 l 2,15,16
 64 427 64 427 56.5 436 c 128,-1,17
 49 445 49 445 49 456.5 c 128,-1,18
 49 468 49 468 56.5 477 c 128,-1,19
 64 486 64 486 79 486 c 2,20,-1
 158 486 l 1,21,-1
 119 554 l 2,22,23
 111 567 111 567 115.5 578 c 128,-1,24
 120 589 120 589 129.5 594.5 c 128,-1,25
 139 600 139 600 151.5 598 c 128,-1,26
 164 596 164 596 171 584 c 2,27,-1
 211 515 l 1,28,-1
 250 584 l 2,29,30
 258 596 258 596 270.5 597.5 c 128,-1,31
 283 599 283 599 292.5 593.5 c 128,-1,32
 302 588 302 588 306.5 577 c 128,-1,33
 311 566 311 566 303 553 c 2,34,-1
 263 486 l 1,35,-1
 343 486 l 2,36,37
 358 486 358 486 365.5 477 c 128,-1,38
 373 468 373 468 373 456.5 c 128,-1,39
 373 445 373 445 365.5 436 c 128,-1,40
 358 427 358 427 343 427 c 2,41,-1
 263 427 l 1,0,-1
EndSplineSet
Validated: 1
EndChar

StartChar: plus
Encoding: 43 43 14
Width: 484
GlyphClass: 2
Flags: W
LayerCount: 2
Back
Fore
SplineSet
270 200 m 1,0,-1
 270 35 l 2,1,2
 270 20 270 20 260.5 12 c 128,-1,3
 251 4 251 4 240 4 c 128,-1,4
 229 4 229 4 219.5 12 c 128,-1,5
 210 20 210 20 210 35 c 2,6,-1
 210 200 l 1,7,-1
 77 200 l 2,8,9
 62 200 62 200 54.5 209.5 c 128,-1,10
 47 219 47 219 47 230 c 128,-1,11
 47 241 47 241 54.5 250.5 c 128,-1,12
 62 260 62 260 77 260 c 2,13,-1
 210 260 l 1,14,-1
 210 426 l 2,15,16
 210 441 210 441 219.5 448.5 c 128,-1,17
 229 456 229 456 240 456 c 128,-1,18
 251 456 251 456 260.5 448.5 c 128,-1,19
 270 441 270 441 270 426 c 2,20,-1
 270 260 l 1,21,-1
 402 260 l 2,22,23
 417 260 417 260 424.5 250.5 c 128,-1,24
 432 241 432 241 432 230 c 128,-1,25
 432 219 432 219 424.5 209.5 c 128,-1,26
 417 200 417 200 402 200 c 2,27,-1
 270 200 l 1,0,-1
EndSplineSet
Validated: 1
EndChar

StartChar: comma
Encoding: 44 44 15
Width: 193
GlyphClass: 2
Flags: W
LayerCount: 2
Back
Fore
SplineSet
144 25 m 0,0,1
 142 -5 142 -5 133 -27.5 c 128,-1,2
 124 -50 124 -50 104 -80 c 0,3,4
 92 -97 92 -97 82.5 -101 c 128,-1,5
 73 -105 73 -105 67 -102 c 128,-1,6
 61 -99 61 -99 59.5 -90 c 128,-1,7
 58 -81 58 -81 64 -70 c 0,8,9
 71 -58 71 -58 76 -49.5 c 128,-1,10
 81 -41 81 -41 84.5 -33.5 c 128,-1,11
 88 -26 88 -26 89.5 -17.5 c 128,-1,12
 91 -9 91 -9 91 3 c 0,13,14
 91 6 91 6 84.5 9.5 c 128,-1,15
 78 13 78 13 70.5 18.5 c 128,-1,16
 63 24 63 24 56.5 32.5 c 128,-1,17
 50 41 50 41 50 53 c 0,18,19
 50 59 50 59 51 67 c 128,-1,20
 52 75 52 75 57 82.5 c 128,-1,21
 62 90 62 90 70.5 95 c 128,-1,22
 79 100 79 100 94 100 c 0,23,24
 112 100 112 100 122 92.5 c 128,-1,25
 132 85 132 85 137 73.5 c 128,-1,26
 142 62 142 62 143 49 c 128,-1,27
 144 36 144 36 144 25 c 0,0,1
EndSplineSet
Validated: 1
EndChar

StartChar: hyphen
Encoding: 45 45 16
Width: 354
GlyphClass: 2
Flags: W
LayerCount: 2
Back
Fore
SplineSet
79 215 m 2,0,1
 64 215 64 215 56.5 223.5 c 128,-1,2
 49 232 49 232 49 242.5 c 128,-1,3
 49 253 49 253 56.5 261.5 c 128,-1,4
 64 270 64 270 79 270 c 2,5,-1
 272 270 l 2,6,7
 287 270 287 270 294.5 261.5 c 128,-1,8
 302 253 302 253 302 242.5 c 128,-1,9
 302 232 302 232 294.5 223.5 c 128,-1,10
 287 215 287 215 272 215 c 2,11,-1
 79 215 l 2,0,1
EndSplineSet
Validated: 1
EndChar

StartChar: period
Encoding: 46 46 17
Width: 196
GlyphClass: 2
Flags: W
LayerCount: 2
Back
Fore
SplineSet
146 47 m 0,0,1
 146 29 146 29 132 15.5 c 128,-1,2
 118 2 118 2 98 2 c 256,3,4
 78 2 78 2 64 15.5 c 128,-1,5
 50 29 50 29 50 47 c 0,6,7
 50 66 50 66 64 79.5 c 128,-1,8
 78 93 78 93 98 93 c 256,9,10
 118 93 118 93 132 79.5 c 128,-1,11
 146 66 146 66 146 47 c 0,0,1
EndSplineSet
Validated: 1
EndChar

StartChar: slash
Encoding: 47 47 18
Width: 367
GlyphClass: 2
Flags: W
LayerCount: 2
Back
Fore
SplineSet
103 14 m 2,0,1
 97 0 97 0 85.5 -4 c 128,-1,2
 74 -8 74 -8 63.5 -3.5 c 128,-1,3
 53 1 53 1 47 11.5 c 128,-1,4
 41 22 41 22 46 36 c 2,5,-1
 256 583 l 2,6,7
 262 597 262 597 273.5 601 c 128,-1,8
 285 605 285 605 295.5 600.5 c 128,-1,9
 306 596 306 596 312 585.5 c 128,-1,10
 318 575 318 575 313 561 c 2,11,-1
 103 14 l 2,0,1
EndSplineSet
Validated: 1
EndChar

StartChar: zero
Encoding: 48 48 19
Width: 500
GlyphClass: 2
Flags: W
LayerCount: 2
Back
Fore
SplineSet
432 294 m 256,0,1
 432 236 432 236 419.5 181 c 128,-1,2
 407 126 407 126 383 83 c 128,-1,3
 359 40 359 40 324 14 c 128,-1,4
 289 -12 289 -12 245 -12 c 256,5,6
 201 -12 201 -12 166.5 14 c 128,-1,7
 132 40 132 40 108 83 c 128,-1,8
 84 126 84 126 71.5 181 c 128,-1,9
 59 236 59 236 59 294 c 256,10,11
 59 352 59 352 72 407 c 128,-1,12
 85 462 85 462 109 505 c 128,-1,13
 133 548 133 548 167.5 574.5 c 128,-1,14
 202 601 202 601 245 601 c 0,15,16
 289 601 289 601 324 574.5 c 128,-1,17
 359 548 359 548 383 505 c 128,-1,18
 407 462 407 462 419.5 407 c 128,-1,19
 432 352 432 352 432 294 c 256,0,1
372 295 m 0,20,21
 372 340 372 340 364 384 c 128,-1,22
 356 428 356 428 340 462.5 c 128,-1,23
 324 497 324 497 300 518.5 c 128,-1,24
 276 540 276 540 245 540 c 256,25,26
 214 540 214 540 190.5 518.5 c 128,-1,27
 167 497 167 497 151 462.5 c 128,-1,28
 135 428 135 428 127 383.5 c 128,-1,29
 119 339 119 339 119 294 c 0,30,31
 119 248 119 248 127 204 c 128,-1,32
 135 160 135 160 151 125.5 c 128,-1,33
 167 91 167 91 190.5 69.5 c 128,-1,34
 214 48 214 48 245 48 c 256,35,36
 276 48 276 48 299.5 69.5 c 128,-1,37
 323 91 323 91 339 126 c 128,-1,38
 355 161 355 161 363.5 205 c 128,-1,39
 372 249 372 249 372 295 c 0,20,21
EndSplineSet
Validated: 1
EndChar

StartChar: one
Encoding: 49 49 20
Width: 500
GlyphClass: 2
Flags: W
LayerCount: 2
Back
Fore
SplineSet
282 23 m 1,0,1
 282 8 282 8 272.5 0.5 c 128,-1,2
 263 -7 263 -7 252 -7 c 128,-1,3
 241 -7 241 -7 231.5 0.5 c 128,-1,4
 222 8 222 8 222 23 c 2,5,-1
 222 570 l 2,6,7
 222 585 222 585 231.5 593 c 128,-1,8
 241 601 241 601 252 601 c 128,-1,9
 263 601 263 601 272.5 593 c 128,-1,10
 282 585 282 585 282 570 c 2,11,-1
 282 23 l 1,12,-1
 282 23 l 1,0,1
EndSplineSet
Validated: 5
EndChar

StartChar: two
Encoding: 50 50 21
Width: 500
GlyphClass: 2
Flags: W
LayerCount: 2
Back
Fore
SplineSet
66 1 m 1,0,1
 77 41 77 41 87 86.5 c 128,-1,2
 97 132 97 132 121.5 180.5 c 128,-1,3
 146 229 146 229 192.5 277.5 c 128,-1,4
 239 326 239 326 321 372 c 0,5,6
 357 392 357 392 370.5 421.5 c 128,-1,7
 384 451 384 451 378 478.5 c 128,-1,8
 372 506 372 506 347.5 525.5 c 128,-1,9
 323 545 323 545 283 545 c 0,10,11
 237 545 237 545 205.5 530 c 128,-1,12
 174 515 174 515 154 466 c 0,13,14
 148 453 148 453 137 449.5 c 128,-1,15
 126 446 126 446 116 450.5 c 128,-1,16
 106 455 106 455 100.5 465.5 c 128,-1,17
 95 476 95 476 101 489 c 0,18,19
 129 558 129 558 174.5 582 c 128,-1,20
 220 606 220 606 279 606 c 0,21,22
 348 606 348 606 389.5 573.5 c 128,-1,23
 431 541 431 541 441 495 c 128,-1,24
 451 449 451 449 428.5 400.5 c 128,-1,25
 406 352 406 352 349 319 c 0,26,27
 289 285 289 285 252.5 250.5 c 128,-1,28
 216 216 216 216 195 183 c 128,-1,29
 174 150 174 150 164.5 119 c 128,-1,30
 155 88 155 88 147 61 c 1,31,-1
 408 61 l 2,32,33
 423 61 423 61 430.5 51.5 c 128,-1,34
 438 42 438 42 438 31 c 128,-1,35
 438 20 438 20 430.5 10.5 c 128,-1,36
 423 1 423 1 408 1 c 2,37,-1
 66 1 l 1,0,1
EndSplineSet
Validated: 33
EndChar

StartChar: three
Encoding: 51 51 22
Width: 500
GlyphClass: 2
Flags: W
LayerCount: 2
Back
Fore
SplineSet
444 209 m 0,0,1
 444 146 444 146 420.5 100.5 c 128,-1,2
 397 55 397 55 360 28.5 c 128,-1,3
 323 2 323 2 278 -5 c 128,-1,4
 233 -12 233 -12 190.5 0.5 c 128,-1,5
 148 13 148 13 112.5 46.5 c 128,-1,6
 77 80 77 80 59 135 c 0,7,8
 55 149 55 149 61.5 159 c 128,-1,9
 68 169 68 169 78.5 172.5 c 128,-1,10
 89 176 89 176 100 171.5 c 128,-1,11
 111 167 111 167 115 153 c 0,12,13
 128 115 128 115 153 92 c 128,-1,14
 178 69 178 69 208 60.5 c 128,-1,15
 238 52 238 52 269.5 57.5 c 128,-1,16
 301 63 301 63 326.5 82 c 128,-1,17
 352 101 352 101 368.5 133 c 128,-1,18
 385 165 385 165 385 209 c 0,19,20
 385 251 385 251 372 278.5 c 128,-1,21
 359 306 359 306 339 322.5 c 128,-1,22
 319 339 319 339 295.5 347.5 c 128,-1,23
 272 356 272 356 250.5 359 c 128,-1,24
 229 362 229 362 212.5 362.5 c 128,-1,25
 196 363 196 363 190 364 c 0,26,27
 176 366 176 366 168 372 c 128,-1,28
 160 378 160 378 160 386 c 0,29,30
 160 393 160 393 161.5 398 c 128,-1,31
 163 403 163 403 174 416 c 2,32,-1
 298 540 l 1,33,-1
 115 540 l 2,34,35
 100 540 100 540 92.5 549.5 c 128,-1,36
 85 559 85 559 85 570 c 128,-1,37
 85 581 85 581 92.5 590.5 c 128,-1,38
 100 600 100 600 115 600 c 2,39,-1
 387 601 l 2,40,41
 396 601 396 601 403.5 596.5 c 128,-1,42
 411 592 411 592 411 584 c 0,43,44
 411 574 411 574 403.5 563.5 c 128,-1,45
 396 553 396 553 385 545 c 2,46,-1
 264 421 l 1,47,48
 314 414 314 414 348.5 395.5 c 128,-1,49
 383 377 383 377 404 349.5 c 128,-1,50
 425 322 425 322 434.5 286.5 c 128,-1,51
 444 251 444 251 444 209 c 0,0,1
EndSplineSet
Validated: 33
EndChar

StartChar: four
Encoding: 52 52 23
Width: 500
GlyphClass: 2
Flags: W
LayerCount: 2
Back
Fore
SplineSet
386 89 m 1,0,-1
 386 22 l 2,1,2
 386 7 386 7 376.5 -1 c 128,-1,3
 367 -9 367 -9 355.5 -9 c 128,-1,4
 344 -9 344 -9 334.5 -1 c 128,-1,5
 325 7 325 7 325 22 c 2,6,-1
 325 89 l 1,7,-1
 50 89 l 2,8,9
 41 89 41 89 36.5 95.5 c 128,-1,10
 32 102 32 102 31.5 111.5 c 128,-1,11
 31 121 31 121 33 132 c 128,-1,12
 35 143 35 143 38 152 c 2,13,-1
 189 581 l 2,14,15
 194 596 194 596 205.5 599.5 c 128,-1,16
 217 603 217 603 228 599 c 128,-1,17
 239 595 239 595 245.5 585 c 128,-1,18
 252 575 252 575 247 561 c 2,19,-1
 103 149 l 1,20,-1
 324 149 l 1,21,-1
 324 262 l 2,22,23
 324 278 324 278 333.5 286 c 128,-1,24
 343 294 343 294 354.5 294 c 128,-1,25
 366 294 366 294 375.5 286 c 128,-1,26
 385 278 385 278 385 262 c 2,27,-1
 385 149 l 1,28,-1
 444 149 l 2,29,30
 459 149 459 149 467 139.5 c 128,-1,31
 475 130 475 130 475 119 c 128,-1,32
 475 108 475 108 467 98.5 c 128,-1,33
 459 89 459 89 444 89 c 2,34,-1
 386 89 l 1,0,-1
EndSplineSet
Validated: 1
EndChar

StartChar: five
Encoding: 53 53 24
Width: 500
GlyphClass: 2
Flags: W
LayerCount: 2
Back
Fore
SplineSet
439 202 m 0,0,1
 439 160 439 160 428.5 123 c 128,-1,2
 418 86 418 86 396.5 57.5 c 128,-1,3
 375 29 375 29 341.5 11.5 c 128,-1,4
 308 -6 308 -6 263 -9 c 0,5,6
 227 -12 227 -12 196.5 -1.5 c 128,-1,7
 166 9 166 9 140.5 29 c 128,-1,8
 115 49 115 49 96.5 77 c 128,-1,9
 78 105 78 105 66 138 c 0,10,11
 61 152 61 152 67.5 162.5 c 128,-1,12
 74 173 74 173 84.5 176.5 c 128,-1,13
 95 180 95 180 106 176.5 c 128,-1,14
 117 173 117 173 123 158 c 0,15,16
 131 135 131 135 144 115 c 128,-1,17
 157 95 157 95 174.5 80 c 128,-1,18
 192 65 192 65 213 57 c 128,-1,19
 234 49 234 49 259 51 c 0,20,21
 291 53 291 53 314 66 c 128,-1,22
 337 79 337 79 351.5 99.5 c 128,-1,23
 366 120 366 120 373 146.5 c 128,-1,24
 380 173 380 173 380 202 c 0,25,26
 380 232 380 232 369 259 c 128,-1,27
 358 286 358 286 339.5 306.5 c 128,-1,28
 321 327 321 327 297 339 c 128,-1,29
 273 351 273 351 247 351 c 0,30,31
 211 351 211 351 185.5 344.5 c 128,-1,32
 160 338 160 338 131 316 c 0,33,34
 126 311 126 311 117 305.5 c 128,-1,35
 108 300 108 300 100 300 c 0,36,37
 87 300 87 300 81.5 308.5 c 128,-1,38
 76 317 76 317 76 326 c 2,39,-1
 76 600 l 1,40,-1
 362 600 l 2,41,42
 377 600 377 600 385 590.5 c 128,-1,43
 393 581 393 581 393 570 c 128,-1,44
 393 559 393 559 385 549.5 c 128,-1,45
 377 540 377 540 362 540 c 2,46,-1
 136 540 l 1,47,-1
 136 386 l 1,48,49
 146 391 146 391 171 401 c 128,-1,50
 196 411 196 411 247 411 c 0,51,52
 284 411 284 411 318.5 394.5 c 128,-1,53
 353 378 353 378 380 350 c 128,-1,54
 407 322 407 322 423 284 c 128,-1,55
 439 246 439 246 439 202 c 0,0,1
EndSplineSet
Validated: 33
EndChar

StartChar: six
Encoding: 54 54 25
Width: 500
GlyphClass: 2
Flags: W
LayerCount: 2
Back
Fore
SplineSet
452 210 m 0,0,1
 452 162 452 162 438 121.5 c 128,-1,2
 424 81 424 81 398.5 51 c 128,-1,3
 373 21 373 21 337.5 4.5 c 128,-1,4
 302 -12 302 -12 258 -12 c 0,5,6
 179 -12 179 -12 131.5 21 c 128,-1,7
 84 54 84 54 62 105.5 c 128,-1,8
 40 157 40 157 40 219.5 c 128,-1,9
 40 282 40 282 56 340 c 0,10,11
 68 381 68 381 85.5 416 c 128,-1,12
 103 451 103 451 128.5 482.5 c 128,-1,13
 154 514 154 514 190 543.5 c 128,-1,14
 226 573 226 573 274 602 c 0,15,16
 287 610 287 610 298 605.5 c 128,-1,17
 309 601 309 601 314.5 591 c 128,-1,18
 320 581 320 581 318 569 c 128,-1,19
 316 557 316 557 304 549 c 0,20,21
 231 505 231 505 191 460 c 128,-1,22
 151 415 151 415 129 357 c 0,23,24
 128 355 128 355 128 354 c 128,-1,25
 128 353 128 353 127 351 c 1,26,27
 147 374 147 374 178 389.5 c 128,-1,28
 209 405 209 405 254 405 c 0,29,30
 293 405 293 405 328.5 392 c 128,-1,31
 364 379 364 379 391.5 354 c 128,-1,32
 419 329 419 329 435.5 293 c 128,-1,33
 452 257 452 257 452 210 c 0,0,1
391 210 m 0,34,35
 391 238 391 238 380 262.5 c 128,-1,36
 369 287 369 287 350.5 305 c 128,-1,37
 332 323 332 323 307 333.5 c 128,-1,38
 282 344 282 344 254 344 c 0,39,40
 224 344 224 344 197.5 332.5 c 128,-1,41
 171 321 171 321 151.5 300.5 c 128,-1,42
 132 280 132 280 120.5 253.5 c 128,-1,43
 109 227 109 227 109 197 c 0,44,45
 109 166 109 166 121 139 c 128,-1,46
 133 112 133 112 153 92 c 128,-1,47
 173 72 173 72 200.5 60 c 128,-1,48
 228 48 228 48 258 48 c 256,49,50
 288 48 288 48 313 62 c 128,-1,51
 338 76 338 76 355 98.5 c 128,-1,52
 372 121 372 121 381.5 150.5 c 128,-1,53
 391 180 391 180 391 210 c 0,34,35
EndSplineSet
Validated: 1
EndChar

StartChar: seven
Encoding: 55 55 26
Width: 500
GlyphClass: 2
Flags: W
LayerCount: 2
Back
Fore
SplineSet
418 583 m 0,0,1
 420 580 420 580 421.5 577 c 128,-1,2
 423 574 423 574 422.5 568 c 128,-1,3
 422 562 422 562 419.5 552.5 c 128,-1,4
 417 543 417 543 411 529 c 2,5,-1
 199 10 l 2,6,7
 193 -4 193 -4 181 -7 c 128,-1,8
 169 -10 169 -10 158.5 -5.5 c 128,-1,9
 148 -1 148 -1 142 10 c 128,-1,10
 136 21 136 21 142 34 c 2,11,-1
 352 540 l 1,12,-1
 102 540 l 2,13,14
 87 540 87 540 79 549.5 c 128,-1,15
 71 559 71 559 71 570 c 128,-1,16
 71 581 71 581 79 590.5 c 128,-1,17
 87 600 87 600 102 600 c 2,18,-1
 359 600 l 2,19,20
 381 600 381 600 392 599 c 128,-1,21
 403 598 403 598 408 595.5 c 128,-1,22
 413 593 413 593 414.5 590 c 128,-1,23
 416 587 416 587 418 583 c 0,0,1
EndSplineSet
Validated: 1
EndChar

StartChar: eight
Encoding: 56 56 27
Width: 500
GlyphClass: 2
Flags: W
LayerCount: 2
Back
Fore
SplineSet
432 173 m 0,0,1
 432 136 432 136 418 103 c 128,-1,2
 404 70 404 70 379.5 45 c 128,-1,3
 355 20 355 20 322 5.5 c 128,-1,4
 289 -9 289 -9 252 -9 c 256,5,6
 215 -9 215 -9 182 5.5 c 128,-1,7
 149 20 149 20 125 45 c 128,-1,8
 101 70 101 70 87 103 c 128,-1,9
 73 136 73 136 73 173 c 0,10,11
 73 222 73 222 97 263 c 128,-1,12
 121 304 121 304 159 327 c 1,13,14
 130 348 130 348 111.5 381 c 128,-1,15
 93 414 93 414 93 454 c 0,16,17
 93 486 93 486 105.5 514 c 128,-1,18
 118 542 118 542 139 563 c 128,-1,19
 160 584 160 584 188 596.5 c 128,-1,20
 216 609 216 609 247 609 c 0,21,22
 279 609 279 609 307 596.5 c 128,-1,23
 335 584 335 584 356 563 c 128,-1,24
 377 542 377 542 389 514 c 128,-1,25
 401 486 401 486 401 454 c 0,26,27
 401 416 401 416 384.5 384 c 128,-1,28
 368 352 368 352 339 332 c 1,29,30
 381 308 381 308 406.5 266 c 128,-1,31
 432 224 432 224 432 173 c 0,0,1
343 454 m 256,32,33
 343 474 343 474 335.5 491 c 128,-1,34
 328 508 328 508 314.5 521.5 c 128,-1,35
 301 535 301 535 284 542.5 c 128,-1,36
 267 550 267 550 247 550 c 0,37,38
 228 550 228 550 211 542.5 c 128,-1,39
 194 535 194 535 181 521.5 c 128,-1,40
 168 508 168 508 160.5 491 c 128,-1,41
 153 474 153 474 153 454 c 256,42,43
 153 434 153 434 160.5 416.5 c 128,-1,44
 168 399 168 399 181 385.5 c 128,-1,45
 194 372 194 372 211 364.5 c 128,-1,46
 228 357 228 357 247 357 c 0,47,48
 267 357 267 357 284 364.5 c 128,-1,49
 301 372 301 372 314.5 385.5 c 128,-1,50
 328 399 328 399 335.5 416.5 c 128,-1,51
 343 434 343 434 343 454 c 256,32,33
374 173 m 0,52,53
 374 199 374 199 364 221 c 128,-1,54
 354 243 354 243 337.5 260 c 128,-1,55
 321 277 321 277 299 286.5 c 128,-1,56
 277 296 277 296 252 296 c 256,57,58
 227 296 227 296 205 286.5 c 128,-1,59
 183 277 183 277 166.5 260 c 128,-1,60
 150 243 150 243 140.5 221 c 128,-1,61
 131 199 131 199 131 173 c 0,62,63
 131 148 131 148 140.5 126 c 128,-1,64
 150 104 150 104 166.5 87 c 128,-1,65
 183 70 183 70 205 60 c 128,-1,66
 227 50 227 50 252 50 c 256,67,68
 277 50 277 50 299 60 c 128,-1,69
 321 70 321 70 337.5 87 c 128,-1,70
 354 104 354 104 364 126 c 128,-1,71
 374 148 374 148 374 173 c 0,52,53
EndSplineSet
Validated: 1
EndChar

StartChar: nine
Encoding: 57 57 28
Width: 500
GlyphClass: 2
Flags: W
LayerCount: 2
Back
Fore
SplineSet
444 258 m 0,0,1
 432 218 432 218 414.5 182.5 c 128,-1,2
 397 147 397 147 371.5 115.5 c 128,-1,3
 346 84 346 84 310.5 54.5 c 128,-1,4
 275 25 275 25 227 -4 c 0,5,6
 214 -12 214 -12 202.5 -7 c 128,-1,7
 191 -2 191 -2 185.5 8 c 128,-1,8
 180 18 180 18 181.5 29.5 c 128,-1,9
 183 41 183 41 196 48 c 0,10,11
 233 70 233 70 261 92 c 128,-1,12
 289 114 289 114 310 137 c 128,-1,13
 331 160 331 160 346 185.5 c 128,-1,14
 361 211 361 211 372 240 c 0,15,16
 373 242 373 242 373 243 c 128,-1,17
 373 244 373 244 374 246 c 1,18,19
 354 223 354 223 323 208 c 128,-1,20
 292 193 292 193 247 193 c 0,21,22
 212 193 212 193 176.5 206 c 128,-1,23
 141 219 141 219 112.5 244 c 128,-1,24
 84 269 84 269 66.5 305 c 128,-1,25
 49 341 49 341 49 387 c 0,26,27
 49 435 49 435 63 476 c 128,-1,28
 77 517 77 517 102.5 546 c 128,-1,29
 128 575 128 575 163.5 591.5 c 128,-1,30
 199 608 199 608 243 608 c 0,31,32
 297 608 297 608 336.5 593 c 128,-1,33
 376 578 376 578 401.5 551.5 c 128,-1,34
 427 525 427 525 441 490.5 c 128,-1,35
 455 456 455 456 459.5 417 c 128,-1,36
 464 378 464 378 459.5 337.5 c 128,-1,37
 455 297 455 297 444 258 c 0,0,1
392 401 m 0,38,39
 392 432 392 432 380 459 c 128,-1,40
 368 486 368 486 348 506.5 c 128,-1,41
 328 527 328 527 300.5 538.5 c 128,-1,42
 273 550 273 550 243 550 c 0,43,44
 212 550 212 550 187.5 536 c 128,-1,45
 163 522 163 522 145.5 499 c 128,-1,46
 128 476 128 476 118.5 446.5 c 128,-1,47
 109 417 109 417 109 387 c 0,48,49
 109 360 109 360 120 335.5 c 128,-1,50
 131 311 131 311 150 292.5 c 128,-1,51
 169 274 169 274 194 263.5 c 128,-1,52
 219 253 219 253 247 253 c 0,53,54
 277 253 277 253 303.5 264.5 c 128,-1,55
 330 276 330 276 349.5 296.5 c 128,-1,56
 369 317 369 317 380.5 344 c 128,-1,57
 392 371 392 371 392 401 c 0,38,39
EndSplineSet
Validated: 33
EndChar

StartChar: colon
Encoding: 58 58 29
Width: 196
GlyphClass: 2
Flags: W
LayerCount: 2
Back
Fore
SplineSet
146 353 m 0,0,1
 146 332 146 332 132 318 c 128,-1,2
 118 304 118 304 98 304 c 256,3,4
 78 304 78 304 64 318 c 128,-1,5
 50 332 50 332 50 353 c 0,6,7
 50 373 50 373 64 386.5 c 128,-1,8
 78 400 78 400 98 400 c 256,9,10
 118 400 118 400 132 386.5 c 128,-1,11
 146 373 146 373 146 353 c 0,0,1
146 47 m 0,12,13
 146 27 146 27 132 13.5 c 128,-1,14
 118 0 118 0 98 0 c 256,15,16
 78 0 78 0 64 13.5 c 128,-1,17
 50 27 50 27 50 47 c 0,18,19
 50 68 50 68 64 82 c 128,-1,20
 78 96 78 96 98 96 c 256,21,22
 118 96 118 96 132 82 c 128,-1,23
 146 68 146 68 146 47 c 0,12,13
EndSplineSet
Validated: 1
EndChar

StartChar: semicolon
Encoding: 59 59 30
Width: 196
GlyphClass: 2
Flags: W
LayerCount: 2
Back
Fore
SplineSet
146 353 m 0,0,1
 146 332 146 332 132 318.5 c 128,-1,2
 118 305 118 305 98 305 c 256,3,4
 78 305 78 305 64 318.5 c 128,-1,5
 50 332 50 332 50 353 c 0,6,7
 50 373 50 373 64 386.5 c 128,-1,8
 78 400 78 400 98 400 c 256,9,10
 118 400 118 400 132 386.5 c 128,-1,11
 146 373 146 373 146 353 c 0,0,1
146 28 m 0,12,13
 145 -2 145 -2 136.5 -25 c 128,-1,14
 128 -48 128 -48 106 -79 c 0,15,16
 94 -96 94 -96 84.5 -101 c 128,-1,17
 75 -106 75 -106 69 -102.5 c 128,-1,18
 63 -99 63 -99 62 -90 c 128,-1,19
 61 -81 61 -81 67 -70 c 0,20,21
 74 -57 74 -57 79 -48 c 128,-1,22
 84 -39 84 -39 87.5 -31.5 c 128,-1,23
 91 -24 91 -24 92.5 -15.5 c 128,-1,24
 94 -7 94 -7 94 5 c 0,25,26
 94 8 94 8 87.5 12 c 128,-1,27
 81 16 81 16 73.5 21.5 c 128,-1,28
 66 27 66 27 59.5 35.5 c 128,-1,29
 53 44 53 44 52 56 c 0,30,31
 52 62 52 62 53.5 70.5 c 128,-1,32
 55 79 55 79 59.5 86.5 c 128,-1,33
 64 94 64 94 73 99.5 c 128,-1,34
 82 105 82 105 97 105 c 0,35,36
 115 105 115 105 125 97 c 128,-1,37
 135 89 135 89 140 77.5 c 128,-1,38
 145 66 145 66 145.5 52.5 c 128,-1,39
 146 39 146 39 146 28 c 0,12,13
EndSplineSet
Validated: 1
EndChar

StartChar: less
Encoding: 60 60 31
Width: 443
GlyphClass: 2
Flags: W
LayerCount: 2
Back
Fore
SplineSet
380 106 m 1,0,1
 392 97 392 97 392 85 c 128,-1,2
 392 73 392 73 385 64 c 128,-1,3
 378 55 378 55 365.5 52 c 128,-1,4
 353 49 353 49 341 59 c 2,5,-1
 63 276 l 2,6,7
 31 300 31 300 63 324 c 2,8,-1
 341 541 l 2,9,10
 353 551 353 551 365.5 548 c 128,-1,11
 378 545 378 545 385 536 c 128,-1,12
 392 527 392 527 392 515 c 128,-1,13
 392 503 392 503 380 494 c 2,14,-1
 132 300 l 1,15,-1
 380 106 l 1,16,-1
 380 106 l 1,0,1
EndSplineSet
Validated: 37
EndChar

StartChar: equal
Encoding: 61 61 32
Width: 414
GlyphClass: 2
Flags: W
LayerCount: 2
Back
Fore
SplineSet
80 343 m 2,0,1
 65 343 65 343 57 352.5 c 128,-1,2
 49 362 49 362 49 373 c 128,-1,3
 49 384 49 384 57 393.5 c 128,-1,4
 65 403 65 403 80 403 c 2,5,-1
 333 403 l 2,6,7
 348 403 348 403 355.5 393.5 c 128,-1,8
 363 384 363 384 363 373 c 128,-1,9
 363 362 363 362 355.5 352.5 c 128,-1,10
 348 343 348 343 333 343 c 2,11,-1
 80 343 l 2,0,1
80 154 m 2,12,13
 65 154 65 154 57 163 c 128,-1,14
 49 172 49 172 49 183.5 c 128,-1,15
 49 195 49 195 57 204 c 128,-1,16
 65 213 65 213 80 213 c 2,17,-1
 333 213 l 2,18,19
 348 213 348 213 355.5 204 c 128,-1,20
 363 195 363 195 363 183.5 c 128,-1,21
 363 172 363 172 355.5 163 c 128,-1,22
 348 154 348 154 333 154 c 2,23,-1
 80 154 l 2,12,13
EndSplineSet
Validated: 1
EndChar

StartChar: greater
Encoding: 62 62 33
Width: 443
GlyphClass: 2
Flags: W
LayerCount: 2
Back
Fore
SplineSet
99 59 m 2,0,1
 87 49 87 49 75 52 c 128,-1,2
 63 55 63 55 55.5 64 c 128,-1,3
 48 73 48 73 48.5 85 c 128,-1,4
 49 97 49 97 61 106 c 2,5,-1
 308 300 l 1,6,-1
 61 494 l 2,7,8
 49 503 49 503 48.5 515 c 128,-1,9
 48 527 48 527 55.5 536 c 128,-1,10
 63 545 63 545 75 548 c 128,-1,11
 87 551 87 551 99 541 c 2,12,-1
 377 324 l 2,13,14
 409 300 409 300 377 276 c 2,15,-1
 99 59 l 2,0,1
EndSplineSet
Validated: 33
EndChar

StartChar: question
Encoding: 63 63 34
Width: 414
GlyphClass: 2
Flags: W
LayerCount: 2
Back
Fore
SplineSet
365 450 m 0,0,1
 365 408 365 408 352.5 378.5 c 128,-1,2
 340 349 340 349 320 326.5 c 128,-1,3
 300 304 300 304 275.5 285 c 128,-1,4
 251 266 251 266 228 244 c 0,5,6
 217 233 217 233 204.5 223 c 128,-1,7
 192 213 192 213 192 196 c 0,8,9
 192 181 192 181 182.5 173 c 128,-1,10
 173 165 173 165 161.5 165 c 128,-1,11
 150 165 150 165 140.5 173 c 128,-1,12
 131 181 131 181 131 196 c 0,13,14
 131 212 131 212 135 223.5 c 128,-1,15
 139 235 139 235 146 244 c 128,-1,16
 153 253 153 253 162 261.5 c 128,-1,17
 171 270 171 270 181 281 c 0,18,19
 199 301 199 301 220.5 316.5 c 128,-1,20
 242 332 242 332 260.5 350 c 128,-1,21
 279 368 279 368 291.5 391 c 128,-1,22
 304 414 304 414 304 450 c 0,23,24
 304 469 304 469 296 485.5 c 128,-1,25
 288 502 288 502 274.5 515 c 128,-1,26
 261 528 261 528 243 535 c 128,-1,27
 225 542 225 542 205 542 c 0,28,29
 167 541 167 541 142 515 c 128,-1,30
 117 489 117 489 112 450 c 0,31,32
 110 435 110 435 99.5 428.5 c 128,-1,33
 89 422 89 422 78 423 c 128,-1,34
 67 424 67 424 58.5 432 c 128,-1,35
 50 440 50 440 51 455 c 0,36,37
 59 521 59 521 100.5 561 c 128,-1,38
 142 601 142 601 205 602 c 0,39,40
 237 602 237 602 266 590 c 128,-1,41
 295 578 295 578 317 557.5 c 128,-1,42
 339 537 339 537 352 509 c 128,-1,43
 365 481 365 481 365 450 c 0,0,1
197 30 m 0,44,45
 197 15 197 15 187 5 c 128,-1,46
 177 -5 177 -5 162 -5 c 0,47,48
 146 -5 146 -5 136 5 c 128,-1,49
 126 15 126 15 126 30 c 0,50,51
 126 44 126 44 136 54.5 c 128,-1,52
 146 65 146 65 162 65 c 0,53,54
 177 65 177 65 187 54.5 c 128,-1,55
 197 44 197 44 197 30 c 0,44,45
EndSplineSet
Validated: 1
EndChar

StartChar: at
Encoding: 64 64 35
Width: 641
GlyphClass: 2
Flags: W
LayerCount: 2
Back
Fore
SplineSet
592 342 m 0,0,1
 592 312 592 312 586 277 c 128,-1,2
 580 242 580 242 562 211.5 c 128,-1,3
 544 181 544 181 511.5 161 c 128,-1,4
 479 141 479 141 425 141 c 0,5,6
 403 141 403 141 392.5 144 c 128,-1,7
 382 147 382 147 373 153 c 1,8,9
 358 143 358 143 341.5 140 c 128,-1,10
 325 137 325 137 303 137 c 0,11,12
 272 137 272 137 249 149.5 c 128,-1,13
 226 162 226 162 210.5 182 c 128,-1,14
 195 202 195 202 187 227 c 128,-1,15
 179 252 179 252 179 277 c 0,16,17
 179 312 179 312 190.5 344.5 c 128,-1,18
 202 377 202 377 222 402.5 c 128,-1,19
 242 428 242 428 271 443.5 c 128,-1,20
 300 459 300 459 334 459 c 0,21,22
 365 459 365 459 390 443 c 1,23,-1
 390 444 l 2,24,25
 393 458 393 458 403.5 463 c 128,-1,26
 414 468 414 468 425.5 465.5 c 128,-1,27
 437 463 437 463 444.5 454 c 128,-1,28
 452 445 452 445 449 431 c 2,29,-1
 406 203 l 1,30,31
 412 200 412 200 425 200 c 0,32,33
 461 200 461 200 482.5 214.5 c 128,-1,34
 504 229 504 229 514.5 250.5 c 128,-1,35
 525 272 525 272 528 296.5 c 128,-1,36
 531 321 531 321 531 342 c 0,37,38
 531 383 531 383 514.5 420.5 c 128,-1,39
 498 458 498 458 470 486.5 c 128,-1,40
 442 515 442 515 404.5 531.5 c 128,-1,41
 367 548 367 548 325 548 c 0,42,43
 277 548 277 548 237.5 527.5 c 128,-1,44
 198 507 198 507 169.5 473 c 128,-1,45
 141 439 141 439 125.5 395 c 128,-1,46
 110 351 110 351 110 304 c 0,47,48
 110 256 110 256 127 211.5 c 128,-1,49
 144 167 144 167 174 133 c 128,-1,50
 204 99 204 99 245 78.5 c 128,-1,51
 286 58 286 58 334 58 c 0,52,53
 375 58 375 58 409.5 66 c 128,-1,54
 444 74 444 74 470 88 c 0,55,56
 483 95 483 95 494 90 c 128,-1,57
 505 85 505 85 510.5 74.5 c 128,-1,58
 516 64 516 64 513.5 52 c 128,-1,59
 511 40 511 40 497 34 c 0,60,61
 466 19 466 19 424.5 8.5 c 128,-1,62
 383 -2 383 -2 334 -2 c 0,63,64
 273 -2 273 -2 221 23 c 128,-1,65
 169 48 169 48 131 90.5 c 128,-1,66
 93 133 93 133 71.5 188.5 c 128,-1,67
 50 244 50 244 50 304 c 0,68,69
 50 363 50 363 70.5 418 c 128,-1,70
 91 473 91 473 127.5 515 c 128,-1,71
 164 557 164 557 214.5 582 c 128,-1,72
 265 607 265 607 325 607 c 0,73,74
 379 607 379 607 427.5 585.5 c 128,-1,75
 476 564 476 564 512.5 528 c 128,-1,76
 549 492 549 492 570.5 444 c 128,-1,77
 592 396 592 396 592 342 c 0,0,1
377 371 m 1,78,79
 376 373 376 373 375 373 c 128,-1,80
 374 373 374 373 373 375 c 0,81,82
 365 386 365 386 356.5 393 c 128,-1,83
 348 400 348 400 334 400 c 0,84,85
 313 400 313 400 295.5 390 c 128,-1,86
 278 380 278 380 265.5 364 c 128,-1,87
 253 348 253 348 246 327.5 c 128,-1,88
 239 307 239 307 239 286 c 0,89,90
 239 271 239 271 242 255.5 c 128,-1,91
 245 240 245 240 253 227 c 128,-1,92
 261 214 261 214 274 205.5 c 128,-1,93
 287 197 287 197 307 197 c 0,94,95
 318 197 318 197 327 199 c 128,-1,96
 336 201 336 201 345 206 c 1,97,-1
 377 371 l 1,98,-1
 377 371 l 1,78,79
EndSplineSet
Validated: 5
EndChar

StartChar: A
Encoding: 68 68 36
Width: 256
GlyphClass: 2
Flags: W
LayerCount: 2
Back
Fore
SplineSet
210 250 m 256,0,1
 210 215 210 215 186.5 191.5 c 128,-1,2
 163 168 163 168 128 168 c 256,3,4
 93 168 93 168 69 191.5 c 128,-1,5
 45 215 45 215 45 250 c 256,6,7
 45 285 45 285 69 308.5 c 128,-1,8
 93 332 93 332 128 332 c 256,9,10
 163 332 163 332 186.5 308.5 c 128,-1,11
 210 285 210 285 210 250 c 256,0,1
EndSplineSet
Validated: 1
EndChar

StartChar: B
Encoding: 69 69 37
Width: 256
GlyphClass: 2
Flags: W
LayerCount: 2
Back
Fore
SplineSet
210 250 m 256,0,1
 210 215 210 215 186.5 191.5 c 128,-1,2
 163 168 163 168 128 168 c 256,3,4
 93 168 93 168 69 191.5 c 128,-1,5
 45 215 45 215 45 250 c 256,6,7
 45 285 45 285 69 308.5 c 128,-1,8
 93 332 93 332 128 332 c 256,9,10
 163 332 163 332 186.5 308.5 c 128,-1,11
 210 285 210 285 210 250 c 256,0,1
EndSplineSet
Validated: 1
EndChar

StartChar: C
Encoding: 70 70 38
Width: 256
GlyphClass: 2
Flags: W
LayerCount: 2
Back
Fore
SplineSet
210 250 m 256,0,1
 210 215 210 215 186.5 191.5 c 128,-1,2
 163 168 163 168 128 168 c 256,3,4
 93 168 93 168 69 191.5 c 128,-1,5
 45 215 45 215 45 250 c 256,6,7
 45 285 45 285 69 308.5 c 128,-1,8
 93 332 93 332 128 332 c 256,9,10
 163 332 163 332 186.5 308.5 c 128,-1,11
 210 285 210 285 210 250 c 256,0,1
EndSplineSet
Validated: 1
EndChar

StartChar: D
Encoding: 71 71 39
Width: 256
GlyphClass: 2
Flags: W
LayerCount: 2
Back
Fore
SplineSet
210 250 m 256,0,1
 210 215 210 215 186.5 191.5 c 128,-1,2
 163 168 163 168 128 168 c 256,3,4
 93 168 93 168 69 191.5 c 128,-1,5
 45 215 45 215 45 250 c 256,6,7
 45 285 45 285 69 308.5 c 128,-1,8
 93 332 93 332 128 332 c 256,9,10
 163 332 163 332 186.5 308.5 c 128,-1,11
 210 285 210 285 210 250 c 256,0,1
EndSplineSet
Validated: 1
EndChar

StartChar: E
Encoding: 72 72 40
Width: 256
GlyphClass: 2
Flags: W
LayerCount: 2
Back
Fore
SplineSet
210 250 m 256,0,1
 210 215 210 215 186.5 191.5 c 128,-1,2
 163 168 163 168 128 168 c 256,3,4
 93 168 93 168 69 191.5 c 128,-1,5
 45 215 45 215 45 250 c 256,6,7
 45 285 45 285 69 308.5 c 128,-1,8
 93 332 93 332 128 332 c 256,9,10
 163 332 163 332 186.5 308.5 c 128,-1,11
 210 285 210 285 210 250 c 256,0,1
EndSplineSet
Validated: 1
EndChar

StartChar: F
Encoding: 73 73 41
Width: 256
GlyphClass: 2
Flags: W
LayerCount: 2
Back
Fore
SplineSet
210 250 m 256,0,1
 210 215 210 215 186.5 191.5 c 128,-1,2
 163 168 163 168 128 168 c 256,3,4
 93 168 93 168 69 191.5 c 128,-1,5
 45 215 45 215 45 250 c 256,6,7
 45 285 45 285 69 308.5 c 128,-1,8
 93 332 93 332 128 332 c 256,9,10
 163 332 163 332 186.5 308.5 c 128,-1,11
 210 285 210 285 210 250 c 256,0,1
EndSplineSet
Validated: 1
EndChar

StartChar: G
Encoding: 74 74 42
Width: 256
GlyphClass: 2
Flags: W
LayerCount: 2
Back
Fore
SplineSet
210 250 m 256,0,1
 210 215 210 215 186.5 191.5 c 128,-1,2
 163 168 163 168 128 168 c 256,3,4
 93 168 93 168 69 191.5 c 128,-1,5
 45 215 45 215 45 250 c 256,6,7
 45 285 45 285 69 308.5 c 128,-1,8
 93 332 93 332 128 332 c 256,9,10
 163 332 163 332 186.5 308.5 c 128,-1,11
 210 285 210 285 210 250 c 256,0,1
EndSplineSet
Validated: 1
EndChar

StartChar: H
Encoding: 75 75 43
Width: 256
GlyphClass: 2
Flags: W
LayerCount: 2
Back
Fore
SplineSet
210 250 m 256,0,1
 210 215 210 215 186.5 191.5 c 128,-1,2
 163 168 163 168 128 168 c 256,3,4
 93 168 93 168 69 191.5 c 128,-1,5
 45 215 45 215 45 250 c 256,6,7
 45 285 45 285 69 308.5 c 128,-1,8
 93 332 93 332 128 332 c 256,9,10
 163 332 163 332 186.5 308.5 c 128,-1,11
 210 285 210 285 210 250 c 256,0,1
EndSplineSet
Validated: 1
EndChar

StartChar: I
Encoding: 76 76 44
Width: 256
GlyphClass: 2
Flags: W
LayerCount: 2
Back
Fore
SplineSet
210 250 m 256,0,1
 210 215 210 215 186.5 191.5 c 128,-1,2
 163 168 163 168 128 168 c 256,3,4
 93 168 93 168 69 191.5 c 128,-1,5
 45 215 45 215 45 250 c 256,6,7
 45 285 45 285 69 308.5 c 128,-1,8
 93 332 93 332 128 332 c 256,9,10
 163 332 163 332 186.5 308.5 c 128,-1,11
 210 285 210 285 210 250 c 256,0,1
EndSplineSet
Validated: 1
EndChar

StartChar: J
Encoding: 77 77 45
Width: 256
GlyphClass: 2
Flags: W
LayerCount: 2
Back
Fore
SplineSet
210 250 m 256,0,1
 210 215 210 215 186.5 191.5 c 128,-1,2
 163 168 163 168 128 168 c 256,3,4
 93 168 93 168 69 191.5 c 128,-1,5
 45 215 45 215 45 250 c 256,6,7
 45 285 45 285 69 308.5 c 128,-1,8
 93 332 93 332 128 332 c 256,9,10
 163 332 163 332 186.5 308.5 c 128,-1,11
 210 285 210 285 210 250 c 256,0,1
EndSplineSet
Validated: 1
EndChar

StartChar: K
Encoding: 78 78 46
Width: 256
GlyphClass: 2
Flags: W
LayerCount: 2
Back
Fore
SplineSet
210 250 m 256,0,1
 210 215 210 215 186.5 191.5 c 128,-1,2
 163 168 163 168 128 168 c 256,3,4
 93 168 93 168 69 191.5 c 128,-1,5
 45 215 45 215 45 250 c 256,6,7
 45 285 45 285 69 308.5 c 128,-1,8
 93 332 93 332 128 332 c 256,9,10
 163 332 163 332 186.5 308.5 c 128,-1,11
 210 285 210 285 210 250 c 256,0,1
EndSplineSet
Validated: 1
EndChar

StartChar: L
Encoding: 79 79 47
Width: 256
GlyphClass: 2
Flags: W
LayerCount: 2
Back
Fore
SplineSet
210 250 m 256,0,1
 210 215 210 215 186.5 191.5 c 128,-1,2
 163 168 163 168 128 168 c 256,3,4
 93 168 93 168 69 191.5 c 128,-1,5
 45 215 45 215 45 250 c 256,6,7
 45 285 45 285 69 308.5 c 128,-1,8
 93 332 93 332 128 332 c 256,9,10
 163 332 163 332 186.5 308.5 c 128,-1,11
 210 285 210 285 210 250 c 256,0,1
EndSplineSet
Validated: 1
EndChar

StartChar: M
Encoding: 80 80 48
Width: 256
GlyphClass: 2
Flags: W
LayerCount: 2
Back
Fore
SplineSet
210 250 m 256,0,1
 210 215 210 215 186.5 191.5 c 128,-1,2
 163 168 163 168 128 168 c 256,3,4
 93 168 93 168 69 191.5 c 128,-1,5
 45 215 45 215 45 250 c 256,6,7
 45 285 45 285 69 308.5 c 128,-1,8
 93 332 93 332 128 332 c 256,9,10
 163 332 163 332 186.5 308.5 c 128,-1,11
 210 285 210 285 210 250 c 256,0,1
EndSplineSet
Validated: 1
EndChar

StartChar: N
Encoding: 81 81 49
Width: 256
GlyphClass: 2
Flags: W
LayerCount: 2
Back
Fore
SplineSet
210 250 m 256,0,1
 210 215 210 215 186.5 191.5 c 128,-1,2
 163 168 163 168 128 168 c 256,3,4
 93 168 93 168 69 191.5 c 128,-1,5
 45 215 45 215 45 250 c 256,6,7
 45 285 45 285 69 308.5 c 128,-1,8
 93 332 93 332 128 332 c 256,9,10
 163 332 163 332 186.5 308.5 c 128,-1,11
 210 285 210 285 210 250 c 256,0,1
EndSplineSet
Validated: 1
EndChar

StartChar: O
Encoding: 82 82 50
Width: 256
GlyphClass: 2
Flags: W
LayerCount: 2
Back
Fore
SplineSet
210 250 m 256,0,1
 210 215 210 215 186.5 191.5 c 128,-1,2
 163 168 163 168 128 168 c 256,3,4
 93 168 93 168 69 191.5 c 128,-1,5
 45 215 45 215 45 250 c 256,6,7
 45 285 45 285 69 308.5 c 128,-1,8
 93 332 93 332 128 332 c 256,9,10
 163 332 163 332 186.5 308.5 c 128,-1,11
 210 285 210 285 210 250 c 256,0,1
EndSplineSet
Validated: 1
EndChar

StartChar: P
Encoding: 83 83 51
Width: 256
GlyphClass: 2
Flags: W
LayerCount: 2
Back
Fore
SplineSet
210 250 m 256,0,1
 210 215 210 215 186.5 191.5 c 128,-1,2
 163 168 163 168 128 168 c 256,3,4
 93 168 93 168 69 191.5 c 128,-1,5
 45 215 45 215 45 250 c 256,6,7
 45 285 45 285 69 308.5 c 128,-1,8
 93 332 93 332 128 332 c 256,9,10
 163 332 163 332 186.5 308.5 c 128,-1,11
 210 285 210 285 210 250 c 256,0,1
EndSplineSet
Validated: 1
EndChar

StartChar: Q
Encoding: 84 84 52
Width: 256
GlyphClass: 2
Flags: W
LayerCount: 2
Back
Fore
SplineSet
210 250 m 256,0,1
 210 215 210 215 186.5 191.5 c 128,-1,2
 163 168 163 168 128 168 c 256,3,4
 93 168 93 168 69 191.5 c 128,-1,5
 45 215 45 215 45 250 c 256,6,7
 45 285 45 285 69 308.5 c 128,-1,8
 93 332 93 332 128 332 c 256,9,10
 163 332 163 332 186.5 308.5 c 128,-1,11
 210 285 210 285 210 250 c 256,0,1
EndSplineSet
Validated: 1
EndChar

StartChar: R
Encoding: 85 85 53
Width: 256
GlyphClass: 2
Flags: W
LayerCount: 2
Back
Fore
SplineSet
210 250 m 256,0,1
 210 215 210 215 186.5 191.5 c 128,-1,2
 163 168 163 168 128 168 c 256,3,4
 93 168 93 168 69 191.5 c 128,-1,5
 45 215 45 215 45 250 c 256,6,7
 45 285 45 285 69 308.5 c 128,-1,8
 93 332 93 332 128 332 c 256,9,10
 163 332 163 332 186.5 308.5 c 128,-1,11
 210 285 210 285 210 250 c 256,0,1
EndSplineSet
Validated: 1
EndChar

StartChar: S
Encoding: 86 86 54
Width: 256
GlyphClass: 2
Flags: W
LayerCount: 2
Back
Fore
SplineSet
210 250 m 256,0,1
 210 215 210 215 186.5 191.5 c 128,-1,2
 163 168 163 168 128 168 c 256,3,4
 93 168 93 168 69 191.5 c 128,-1,5
 45 215 45 215 45 250 c 256,6,7
 45 285 45 285 69 308.5 c 128,-1,8
 93 332 93 332 128 332 c 256,9,10
 163 332 163 332 186.5 308.5 c 128,-1,11
 210 285 210 285 210 250 c 256,0,1
EndSplineSet
Validated: 1
EndChar

StartChar: T
Encoding: 87 87 55
Width: 256
GlyphClass: 2
Flags: W
LayerCount: 2
Back
Fore
SplineSet
210 250 m 256,0,1
 210 215 210 215 186.5 191.5 c 128,-1,2
 163 168 163 168 128 168 c 256,3,4
 93 168 93 168 69 191.5 c 128,-1,5
 45 215 45 215 45 250 c 256,6,7
 45 285 45 285 69 308.5 c 128,-1,8
 93 332 93 332 128 332 c 256,9,10
 163 332 163 332 186.5 308.5 c 128,-1,11
 210 285 210 285 210 250 c 256,0,1
EndSplineSet
Validated: 1
EndChar

StartChar: U
Encoding: 88 88 56
Width: 256
GlyphClass: 2
Flags: W
LayerCount: 2
Back
Fore
SplineSet
210 250 m 256,0,1
 210 215 210 215 186.5 191.5 c 128,-1,2
 163 168 163 168 128 168 c 256,3,4
 93 168 93 168 69 191.5 c 128,-1,5
 45 215 45 215 45 250 c 256,6,7
 45 285 45 285 69 308.5 c 128,-1,8
 93 332 93 332 128 332 c 256,9,10
 163 332 163 332 186.5 308.5 c 128,-1,11
 210 285 210 285 210 250 c 256,0,1
EndSplineSet
Validated: 1
EndChar

StartChar: V
Encoding: 89 89 57
Width: 256
GlyphClass: 2
Flags: W
LayerCount: 2
Back
Fore
SplineSet
210 250 m 256,0,1
 210 215 210 215 186.5 191.5 c 128,-1,2
 163 168 163 168 128 168 c 256,3,4
 93 168 93 168 69 191.5 c 128,-1,5
 45 215 45 215 45 250 c 256,6,7
 45 285 45 285 69 308.5 c 128,-1,8
 93 332 93 332 128 332 c 256,9,10
 163 332 163 332 186.5 308.5 c 128,-1,11
 210 285 210 285 210 250 c 256,0,1
EndSplineSet
Validated: 1
EndChar

StartChar: W
Encoding: 90 90 58
Width: 256
GlyphClass: 2
Flags: W
LayerCount: 2
Back
Fore
SplineSet
210 250 m 256,0,1
 210 215 210 215 186.5 191.5 c 128,-1,2
 163 168 163 168 128 168 c 256,3,4
 93 168 93 168 69 191.5 c 128,-1,5
 45 215 45 215 45 250 c 256,6,7
 45 285 45 285 69 308.5 c 128,-1,8
 93 332 93 332 128 332 c 256,9,10
 163 332 163 332 186.5 308.5 c 128,-1,11
 210 285 210 285 210 250 c 256,0,1
EndSplineSet
Validated: 1
EndChar

StartChar: X
Encoding: 65539 -1 59
Width: 256
GlyphClass: 2
Flags: W
LayerCount: 2
Back
Fore
SplineSet
210 250 m 256,0,1
 210 215 210 215 186.5 191.5 c 128,-1,2
 163 168 163 168 128 168 c 256,3,4
 93 168 93 168 69 191.5 c 128,-1,5
 45 215 45 215 45 250 c 256,6,7
 45 285 45 285 69 308.5 c 128,-1,8
 93 332 93 332 128 332 c 256,9,10
 163 332 163 332 186.5 308.5 c 128,-1,11
 210 285 210 285 210 250 c 256,0,1
EndSplineSet
Validated: 1
EndChar

StartChar: Y
Encoding: 65540 -1 60
Width: 256
GlyphClass: 2
Flags: W
LayerCount: 2
Back
Fore
SplineSet
210 250 m 256,0,1
 210 215 210 215 186.5 191.5 c 128,-1,2
 163 168 163 168 128 168 c 256,3,4
 93 168 93 168 69 191.5 c 128,-1,5
 45 215 45 215 45 250 c 256,6,7
 45 285 45 285 69 308.5 c 128,-1,8
 93 332 93 332 128 332 c 256,9,10
 163 332 163 332 186.5 308.5 c 128,-1,11
 210 285 210 285 210 250 c 256,0,1
EndSplineSet
Validated: 1
EndChar

StartChar: Z
Encoding: 65541 -1 61
Width: 256
GlyphClass: 2
Flags: W
LayerCount: 2
Back
Fore
SplineSet
210 250 m 256,0,1
 210 215 210 215 186.5 191.5 c 128,-1,2
 163 168 163 168 128 168 c 256,3,4
 93 168 93 168 69 191.5 c 128,-1,5
 45 215 45 215 45 250 c 256,6,7
 45 285 45 285 69 308.5 c 128,-1,8
 93 332 93 332 128 332 c 256,9,10
 163 332 163 332 186.5 308.5 c 128,-1,11
 210 285 210 285 210 250 c 256,0,1
EndSplineSet
Validated: 1
EndChar

StartChar: bracketleft
Encoding: 91 91 62
Width: 299
GlyphClass: 2
Flags: W
LayerCount: 2
Back
Fore
SplineSet
80 -125 m 2,0,1
 50 -125 50 -125 50 -95 c 2,2,-1
 50 693 l 2,3,4
 50 724 50 724 80 724 c 2,5,-1
 216 724 l 2,6,7
 231 724 231 724 239 714.5 c 128,-1,8
 247 705 247 705 247 693.5 c 128,-1,9
 247 682 247 682 239 672.5 c 128,-1,10
 231 663 231 663 216 663 c 2,11,-1
 110 663 l 1,12,-1
 110 -65 l 1,13,-1
 216 -65 l 2,14,15
 231 -65 231 -65 239 -74.5 c 128,-1,16
 247 -84 247 -84 247 -95 c 128,-1,17
 247 -106 247 -106 239 -115.5 c 128,-1,18
 231 -125 231 -125 216 -125 c 2,19,-1
 80 -125 l 2,0,1
EndSplineSet
Validated: 1
EndChar

StartChar: backslash
Encoding: 92 92 63
Width: 405
GlyphClass: 2
Flags: W
LayerCount: 2
Back
Fore
SplineSet
330 36 m 1,0,1
 335 22 335 22 329 11.5 c 128,-1,2
 323 1 323 1 312.5 -3.5 c 128,-1,3
 302 -8 302 -8 290.5 -4 c 128,-1,4
 279 0 279 0 273 14 c 2,5,-1
 63 561 l 2,6,7
 58 575 58 575 64 585.5 c 128,-1,8
 70 596 70 596 80.5 600.5 c 128,-1,9
 91 605 91 605 102.5 601 c 128,-1,10
 114 597 114 597 120 583 c 2,11,-1
 330 36 l 1,12,-1
 330 36 l 1,0,1
EndSplineSet
Validated: 5
EndChar

StartChar: bracketright
Encoding: 93 93 64
Width: 299
GlyphClass: 2
Flags: W
LayerCount: 2
Back
Fore
SplineSet
247 -95 m 1,0,1
 247 -125 247 -125 217 -125 c 2,2,-1
 81 -125 l 2,3,4
 66 -125 66 -125 58 -115.5 c 128,-1,5
 50 -106 50 -106 50 -95 c 128,-1,6
 50 -84 50 -84 58 -74.5 c 128,-1,7
 66 -65 66 -65 81 -65 c 2,8,-1
 187 -65 l 1,9,-1
 187 663 l 1,10,-1
 81 663 l 2,11,12
 66 663 66 663 58 672.5 c 128,-1,13
 50 682 50 682 50 693.5 c 128,-1,14
 50 705 50 705 58 714.5 c 128,-1,15
 66 724 66 724 81 724 c 2,16,-1
 217 724 l 2,17,18
 247 724 247 724 247 693 c 2,19,-1
 247 -95 l 1,20,-1
 247 -95 l 1,0,1
EndSplineSet
Validated: 5
EndChar

StartChar: asciicircum
Encoding: 94 94 65
Width: 338
GlyphClass: 2
Flags: W
LayerCount: 2
Back
Fore
SplineSet
281 458 m 1,0,1
 289 446 289 446 285 435 c 128,-1,2
 281 424 281 424 271.5 418 c 128,-1,3
 262 412 262 412 250 413 c 128,-1,4
 238 414 238 414 230 426 c 2,5,-1
 168 518 l 1,6,-1
 105 426 l 2,7,8
 97 414 97 414 84.5 413 c 128,-1,9
 72 412 72 412 62.5 418 c 128,-1,10
 53 424 53 424 49 435 c 128,-1,11
 45 446 45 446 54 458 c 2,12,-1
 142 588 l 2,13,14
 153 605 153 605 167.5 605 c 128,-1,15
 182 605 182 605 193 588 c 2,16,-1
 281 458 l 1,17,-1
 281 458 l 1,0,1
EndSplineSet
Validated: 5
EndChar

StartChar: underscore
Encoding: 95 95 66
Width: 485
GlyphClass: 2
Flags: W
LayerCount: 2
Back
Fore
SplineSet
-11 -128 m 2,0,1
 -26 -128 -26 -128 -33.5 -119.5 c 128,-1,2
 -41 -111 -41 -111 -41 -101 c 128,-1,3
 -41 -91 -41 -91 -33.5 -82.5 c 128,-1,4
 -26 -74 -26 -74 -11 -74 c 2,5,-1
 493 -74 l 2,6,7
 508 -74 508 -74 515.5 -82.5 c 128,-1,8
 523 -91 523 -91 523 -101 c 128,-1,9
 523 -111 523 -111 515.5 -119.5 c 128,-1,10
 508 -128 508 -128 493 -128 c 2,11,-1
 -11 -128 l 2,0,1
EndSplineSet
Validated: 1
EndChar

StartChar: grave
Encoding: 96 96 67
Width: 278
GlyphClass: 2
Flags: W
LayerCount: 2
Back
Fore
SplineSet
210 508 m 1,0,1
 224 501 224 501 226 489.5 c 128,-1,2
 228 478 228 478 222.5 468.5 c 128,-1,3
 217 459 217 459 206 454.5 c 128,-1,4
 195 450 195 450 182 457 c 2,5,-1
 65 516 l 2,6,7
 52 523 52 523 49.5 534 c 128,-1,8
 47 545 47 545 52.5 554.5 c 128,-1,9
 58 564 58 564 69 568.5 c 128,-1,10
 80 573 80 573 93 566 c 2,11,-1
 210 508 l 1,12,-1
 210 508 l 1,0,1
EndSplineSet
Validated: 5
EndChar

StartChar: a
Encoding: 100 100 68
Width: 256
GlyphClass: 2
Flags: W
LayerCount: 2
Back
Fore
SplineSet
210 250 m 256,0,1
 210 215 210 215 186.5 191.5 c 128,-1,2
 163 168 163 168 128 168 c 256,3,4
 93 168 93 168 69 191.5 c 128,-1,5
 45 215 45 215 45 250 c 256,6,7
 45 285 45 285 69 308.5 c 128,-1,8
 93 332 93 332 128 332 c 256,9,10
 163 332 163 332 186.5 308.5 c 128,-1,11
 210 285 210 285 210 250 c 256,0,1
EndSplineSet
Validated: 1
EndChar

StartChar: b
Encoding: 101 101 69
Width: 256
GlyphClass: 2
Flags: W
LayerCount: 2
Back
Fore
SplineSet
210 250 m 256,0,1
 210 215 210 215 186.5 191.5 c 128,-1,2
 163 168 163 168 128 168 c 256,3,4
 93 168 93 168 69 191.5 c 128,-1,5
 45 215 45 215 45 250 c 256,6,7
 45 285 45 285 69 308.5 c 128,-1,8
 93 332 93 332 128 332 c 256,9,10
 163 332 163 332 186.5 308.5 c 128,-1,11
 210 285 210 285 210 250 c 256,0,1
EndSplineSet
Validated: 1
EndChar

StartChar: c
Encoding: 102 102 70
Width: 256
GlyphClass: 2
Flags: W
LayerCount: 2
Back
Fore
SplineSet
210 250 m 256,0,1
 210 215 210 215 186.5 191.5 c 128,-1,2
 163 168 163 168 128 168 c 256,3,4
 93 168 93 168 69 191.5 c 128,-1,5
 45 215 45 215 45 250 c 256,6,7
 45 285 45 285 69 308.5 c 128,-1,8
 93 332 93 332 128 332 c 256,9,10
 163 332 163 332 186.5 308.5 c 128,-1,11
 210 285 210 285 210 250 c 256,0,1
EndSplineSet
Validated: 1
EndChar

StartChar: d
Encoding: 103 103 71
Width: 256
GlyphClass: 2
Flags: W
LayerCount: 2
Back
Fore
SplineSet
210 250 m 256,0,1
 210 215 210 215 186.5 191.5 c 128,-1,2
 163 168 163 168 128 168 c 256,3,4
 93 168 93 168 69 191.5 c 128,-1,5
 45 215 45 215 45 250 c 256,6,7
 45 285 45 285 69 308.5 c 128,-1,8
 93 332 93 332 128 332 c 256,9,10
 163 332 163 332 186.5 308.5 c 128,-1,11
 210 285 210 285 210 250 c 256,0,1
EndSplineSet
Validated: 1
EndChar

StartChar: e
Encoding: 104 104 72
Width: 256
GlyphClass: 2
Flags: W
LayerCount: 2
Back
Fore
SplineSet
210 250 m 256,0,1
 210 215 210 215 186.5 191.5 c 128,-1,2
 163 168 163 168 128 168 c 256,3,4
 93 168 93 168 69 191.5 c 128,-1,5
 45 215 45 215 45 250 c 256,6,7
 45 285 45 285 69 308.5 c 128,-1,8
 93 332 93 332 128 332 c 256,9,10
 163 332 163 332 186.5 308.5 c 128,-1,11
 210 285 210 285 210 250 c 256,0,1
EndSplineSet
Validated: 1
EndChar

StartChar: f
Encoding: 105 105 73
Width: 256
GlyphClass: 2
Flags: W
LayerCount: 2
Back
Fore
SplineSet
210 250 m 256,0,1
 210 215 210 215 186.5 191.5 c 128,-1,2
 163 168 163 168 128 168 c 256,3,4
 93 168 93 168 69 191.5 c 128,-1,5
 45 215 45 215 45 250 c 256,6,7
 45 285 45 285 69 308.5 c 128,-1,8
 93 332 93 332 128 332 c 256,9,10
 163 332 163 332 186.5 308.5 c 128,-1,11
 210 285 210 285 210 250 c 256,0,1
EndSplineSet
Validated: 1
EndChar

StartChar: g
Encoding: 106 106 74
Width: 256
GlyphClass: 2
Flags: W
LayerCount: 2
Back
Fore
SplineSet
210 250 m 256,0,1
 210 215 210 215 186.5 191.5 c 128,-1,2
 163 168 163 168 128 168 c 256,3,4
 93 168 93 168 69 191.5 c 128,-1,5
 45 215 45 215 45 250 c 256,6,7
 45 285 45 285 69 308.5 c 128,-1,8
 93 332 93 332 128 332 c 256,9,10
 163 332 163 332 186.5 308.5 c 128,-1,11
 210 285 210 285 210 250 c 256,0,1
EndSplineSet
Validated: 1
EndChar

StartChar: h
Encoding: 107 107 75
Width: 256
GlyphClass: 2
Flags: W
LayerCount: 2
Back
Fore
SplineSet
210 250 m 256,0,1
 210 215 210 215 186.5 191.5 c 128,-1,2
 163 168 163 168 128 168 c 256,3,4
 93 168 93 168 69 191.5 c 128,-1,5
 45 215 45 215 45 250 c 256,6,7
 45 285 45 285 69 308.5 c 128,-1,8
 93 332 93 332 128 332 c 256,9,10
 163 332 163 332 186.5 308.5 c 128,-1,11
 210 285 210 285 210 250 c 256,0,1
EndSplineSet
Validated: 1
EndChar

StartChar: i
Encoding: 108 108 76
Width: 256
GlyphClass: 2
Flags: W
LayerCount: 2
Back
Fore
SplineSet
210 250 m 256,0,1
 210 215 210 215 186.5 191.5 c 128,-1,2
 163 168 163 168 128 168 c 256,3,4
 93 168 93 168 69 191.5 c 128,-1,5
 45 215 45 215 45 250 c 256,6,7
 45 285 45 285 69 308.5 c 128,-1,8
 93 332 93 332 128 332 c 256,9,10
 163 332 163 332 186.5 308.5 c 128,-1,11
 210 285 210 285 210 250 c 256,0,1
EndSplineSet
Validated: 1
EndChar

StartChar: j
Encoding: 109 109 77
Width: 256
GlyphClass: 2
Flags: W
LayerCount: 2
Back
Fore
SplineSet
210 250 m 256,0,1
 210 215 210 215 186.5 191.5 c 128,-1,2
 163 168 163 168 128 168 c 256,3,4
 93 168 93 168 69 191.5 c 128,-1,5
 45 215 45 215 45 250 c 256,6,7
 45 285 45 285 69 308.5 c 128,-1,8
 93 332 93 332 128 332 c 256,9,10
 163 332 163 332 186.5 308.5 c 128,-1,11
 210 285 210 285 210 250 c 256,0,1
EndSplineSet
Validated: 1
EndChar

StartChar: k
Encoding: 110 110 78
Width: 256
GlyphClass: 2
Flags: W
LayerCount: 2
Back
Fore
SplineSet
210 250 m 256,0,1
 210 215 210 215 186.5 191.5 c 128,-1,2
 163 168 163 168 128 168 c 256,3,4
 93 168 93 168 69 191.5 c 128,-1,5
 45 215 45 215 45 250 c 256,6,7
 45 285 45 285 69 308.5 c 128,-1,8
 93 332 93 332 128 332 c 256,9,10
 163 332 163 332 186.5 308.5 c 128,-1,11
 210 285 210 285 210 250 c 256,0,1
EndSplineSet
Validated: 1
EndChar

StartChar: l
Encoding: 111 111 79
Width: 256
GlyphClass: 2
Flags: W
LayerCount: 2
Back
Fore
SplineSet
210 250 m 256,0,1
 210 215 210 215 186.5 191.5 c 128,-1,2
 163 168 163 168 128 168 c 256,3,4
 93 168 93 168 69 191.5 c 128,-1,5
 45 215 45 215 45 250 c 256,6,7
 45 285 45 285 69 308.5 c 128,-1,8
 93 332 93 332 128 332 c 256,9,10
 163 332 163 332 186.5 308.5 c 128,-1,11
 210 285 210 285 210 250 c 256,0,1
EndSplineSet
Validated: 1
EndChar

StartChar: m
Encoding: 112 112 80
Width: 256
GlyphClass: 2
Flags: W
LayerCount: 2
Back
Fore
SplineSet
210 250 m 256,0,1
 210 215 210 215 186.5 191.5 c 128,-1,2
 163 168 163 168 128 168 c 256,3,4
 93 168 93 168 69 191.5 c 128,-1,5
 45 215 45 215 45 250 c 256,6,7
 45 285 45 285 69 308.5 c 128,-1,8
 93 332 93 332 128 332 c 256,9,10
 163 332 163 332 186.5 308.5 c 128,-1,11
 210 285 210 285 210 250 c 256,0,1
EndSplineSet
Validated: 1
EndChar

StartChar: n
Encoding: 113 113 81
Width: 256
GlyphClass: 2
Flags: W
LayerCount: 2
Back
Fore
SplineSet
210 250 m 256,0,1
 210 215 210 215 186.5 191.5 c 128,-1,2
 163 168 163 168 128 168 c 256,3,4
 93 168 93 168 69 191.5 c 128,-1,5
 45 215 45 215 45 250 c 256,6,7
 45 285 45 285 69 308.5 c 128,-1,8
 93 332 93 332 128 332 c 256,9,10
 163 332 163 332 186.5 308.5 c 128,-1,11
 210 285 210 285 210 250 c 256,0,1
EndSplineSet
Validated: 1
EndChar

StartChar: o
Encoding: 114 114 82
Width: 256
GlyphClass: 2
Flags: W
LayerCount: 2
Back
Fore
SplineSet
210 250 m 256,0,1
 210 215 210 215 186.5 191.5 c 128,-1,2
 163 168 163 168 128 168 c 256,3,4
 93 168 93 168 69 191.5 c 128,-1,5
 45 215 45 215 45 250 c 256,6,7
 45 285 45 285 69 308.5 c 128,-1,8
 93 332 93 332 128 332 c 256,9,10
 163 332 163 332 186.5 308.5 c 128,-1,11
 210 285 210 285 210 250 c 256,0,1
EndSplineSet
Validated: 1
EndChar

StartChar: p
Encoding: 115 115 83
Width: 256
GlyphClass: 2
Flags: W
LayerCount: 2
Back
Fore
SplineSet
210 250 m 256,0,1
 210 215 210 215 186.5 191.5 c 128,-1,2
 163 168 163 168 128 168 c 256,3,4
 93 168 93 168 69 191.5 c 128,-1,5
 45 215 45 215 45 250 c 256,6,7
 45 285 45 285 69 308.5 c 128,-1,8
 93 332 93 332 128 332 c 256,9,10
 163 332 163 332 186.5 308.5 c 128,-1,11
 210 285 210 285 210 250 c 256,0,1
EndSplineSet
Validated: 1
EndChar

StartChar: q
Encoding: 116 116 84
Width: 256
GlyphClass: 2
Flags: W
LayerCount: 2
Back
Fore
SplineSet
210 250 m 256,0,1
 210 215 210 215 186.5 191.5 c 128,-1,2
 163 168 163 168 128 168 c 256,3,4
 93 168 93 168 69 191.5 c 128,-1,5
 45 215 45 215 45 250 c 256,6,7
 45 285 45 285 69 308.5 c 128,-1,8
 93 332 93 332 128 332 c 256,9,10
 163 332 163 332 186.5 308.5 c 128,-1,11
 210 285 210 285 210 250 c 256,0,1
EndSplineSet
Validated: 1
EndChar

StartChar: r
Encoding: 117 117 85
Width: 256
GlyphClass: 2
Flags: W
LayerCount: 2
Back
Fore
SplineSet
210 250 m 256,0,1
 210 215 210 215 186.5 191.5 c 128,-1,2
 163 168 163 168 128 168 c 256,3,4
 93 168 93 168 69 191.5 c 128,-1,5
 45 215 45 215 45 250 c 256,6,7
 45 285 45 285 69 308.5 c 128,-1,8
 93 332 93 332 128 332 c 256,9,10
 163 332 163 332 186.5 308.5 c 128,-1,11
 210 285 210 285 210 250 c 256,0,1
EndSplineSet
Validated: 1
EndChar

StartChar: s
Encoding: 118 118 86
Width: 256
GlyphClass: 2
Flags: W
LayerCount: 2
Back
Fore
SplineSet
210 250 m 256,0,1
 210 215 210 215 186.5 191.5 c 128,-1,2
 163 168 163 168 128 168 c 256,3,4
 93 168 93 168 69 191.5 c 128,-1,5
 45 215 45 215 45 250 c 256,6,7
 45 285 45 285 69 308.5 c 128,-1,8
 93 332 93 332 128 332 c 256,9,10
 163 332 163 332 186.5 308.5 c 128,-1,11
 210 285 210 285 210 250 c 256,0,1
EndSplineSet
Validated: 1
EndChar

StartChar: t
Encoding: 119 119 87
Width: 256
GlyphClass: 2
Flags: W
LayerCount: 2
Back
Fore
SplineSet
210 250 m 256,0,1
 210 215 210 215 186.5 191.5 c 128,-1,2
 163 168 163 168 128 168 c 256,3,4
 93 168 93 168 69 191.5 c 128,-1,5
 45 215 45 215 45 250 c 256,6,7
 45 285 45 285 69 308.5 c 128,-1,8
 93 332 93 332 128 332 c 256,9,10
 163 332 163 332 186.5 308.5 c 128,-1,11
 210 285 210 285 210 250 c 256,0,1
EndSplineSet
Validated: 1
EndChar

StartChar: u
Encoding: 120 120 88
Width: 256
GlyphClass: 2
Flags: W
LayerCount: 2
Back
Fore
SplineSet
210 250 m 256,0,1
 210 215 210 215 186.5 191.5 c 128,-1,2
 163 168 163 168 128 168 c 256,3,4
 93 168 93 168 69 191.5 c 128,-1,5
 45 215 45 215 45 250 c 256,6,7
 45 285 45 285 69 308.5 c 128,-1,8
 93 332 93 332 128 332 c 256,9,10
 163 332 163 332 186.5 308.5 c 128,-1,11
 210 285 210 285 210 250 c 256,0,1
EndSplineSet
Validated: 1
EndChar

StartChar: v
Encoding: 121 121 89
Width: 256
GlyphClass: 2
Flags: W
LayerCount: 2
Back
Fore
SplineSet
210 250 m 256,0,1
 210 215 210 215 186.5 191.5 c 128,-1,2
 163 168 163 168 128 168 c 256,3,4
 93 168 93 168 69 191.5 c 128,-1,5
 45 215 45 215 45 250 c 256,6,7
 45 285 45 285 69 308.5 c 128,-1,8
 93 332 93 332 128 332 c 256,9,10
 163 332 163 332 186.5 308.5 c 128,-1,11
 210 285 210 285 210 250 c 256,0,1
EndSplineSet
Validated: 1
EndChar

StartChar: w
Encoding: 122 122 90
Width: 256
GlyphClass: 2
Flags: W
LayerCount: 2
Back
Fore
SplineSet
210 250 m 256,0,1
 210 215 210 215 186.5 191.5 c 128,-1,2
 163 168 163 168 128 168 c 256,3,4
 93 168 93 168 69 191.5 c 128,-1,5
 45 215 45 215 45 250 c 256,6,7
 45 285 45 285 69 308.5 c 128,-1,8
 93 332 93 332 128 332 c 256,9,10
 163 332 163 332 186.5 308.5 c 128,-1,11
 210 285 210 285 210 250 c 256,0,1
EndSplineSet
Validated: 1
EndChar

StartChar: x
Encoding: 65542 -1 91
Width: 256
GlyphClass: 2
Flags: W
LayerCount: 2
Back
Fore
SplineSet
210 250 m 256,0,1
 210 215 210 215 186.5 191.5 c 128,-1,2
 163 168 163 168 128 168 c 256,3,4
 93 168 93 168 69 191.5 c 128,-1,5
 45 215 45 215 45 250 c 256,6,7
 45 285 45 285 69 308.5 c 128,-1,8
 93 332 93 332 128 332 c 256,9,10
 163 332 163 332 186.5 308.5 c 128,-1,11
 210 285 210 285 210 250 c 256,0,1
EndSplineSet
Validated: 1
EndChar

StartChar: y
Encoding: 65543 -1 92
Width: 256
GlyphClass: 2
Flags: W
LayerCount: 2
Back
Fore
SplineSet
210 250 m 256,0,1
 210 215 210 215 186.5 191.5 c 128,-1,2
 163 168 163 168 128 168 c 256,3,4
 93 168 93 168 69 191.5 c 128,-1,5
 45 215 45 215 45 250 c 256,6,7
 45 285 45 285 69 308.5 c 128,-1,8
 93 332 93 332 128 332 c 256,9,10
 163 332 163 332 186.5 308.5 c 128,-1,11
 210 285 210 285 210 250 c 256,0,1
EndSplineSet
Validated: 1
EndChar

StartChar: z
Encoding: 65544 -1 93
Width: 256
GlyphClass: 2
Flags: W
LayerCount: 2
Back
Fore
SplineSet
210 250 m 256,0,1
 210 215 210 215 186.5 191.5 c 128,-1,2
 163 168 163 168 128 168 c 256,3,4
 93 168 93 168 69 191.5 c 128,-1,5
 45 215 45 215 45 250 c 256,6,7
 45 285 45 285 69 308.5 c 128,-1,8
 93 332 93 332 128 332 c 256,9,10
 163 332 163 332 186.5 308.5 c 128,-1,11
 210 285 210 285 210 250 c 256,0,1
EndSplineSet
Validated: 1
EndChar

StartChar: braceleft
Encoding: 123 123 94
Width: 327
GlyphClass: 2
Flags: W
LayerCount: 2
Back
Fore
SplineSet
246 60 m 256,0,1
 261 60 261 60 268.5 50 c 128,-1,2
 276 40 276 40 275 29 c 128,-1,3
 274 18 274 18 266 8.5 c 128,-1,4
 258 -1 258 -1 243 0 c 0,5,6
 218 2 218 2 193.5 6 c 128,-1,7
 169 10 169 10 149 24 c 128,-1,8
 129 38 129 38 116.5 66.5 c 128,-1,9
 104 95 104 95 104 144 c 2,10,-1
 104 240 l 2,11,12
 104 263 104 263 98 280 c 128,-1,13
 92 297 92 297 84 308 c 0,14,15
 75 321 75 321 64 330 c 0,16,17
 47 341 47 341 47 354.5 c 128,-1,18
 47 368 47 368 64 379 c 0,19,20
 75 388 75 388 84 401 c 0,21,22
 92 412 92 412 98 429 c 128,-1,23
 104 446 104 446 104 469 c 2,24,-1
 104 565 l 2,25,26
 104 615 104 615 116.5 643 c 128,-1,27
 129 671 129 671 149 685 c 128,-1,28
 169 699 169 699 193.5 703.5 c 128,-1,29
 218 708 218 708 243 709 c 0,30,31
 258 710 258 710 266 701 c 128,-1,32
 274 692 274 692 275 680.5 c 128,-1,33
 276 669 276 669 268.5 659.5 c 128,-1,34
 261 650 261 650 246 650 c 0,35,36
 232 649 232 649 217.5 646.5 c 128,-1,37
 203 644 203 644 191.5 636 c 128,-1,38
 180 628 180 628 172.5 611 c 128,-1,39
 165 594 165 594 165 565 c 2,40,-1
 165 469 l 2,41,42
 165 428 165 428 152 399.5 c 128,-1,43
 139 371 139 371 125 355 c 1,44,45
 139 338 139 338 152 310 c 128,-1,46
 165 282 165 282 165 240 c 2,47,-1
 165 144 l 2,48,49
 165 115 165 115 172 98 c 128,-1,50
 179 81 179 81 190.5 73 c 128,-1,51
 202 65 202 65 216.5 62.5 c 128,-1,52
 231 60 231 60 246 60 c 256,0,1
EndSplineSet
Validated: 1
EndChar

StartChar: bar
Encoding: 124 124 95
Width: 160
GlyphClass: 2
Flags: W
LayerCount: 2
Back
Fore
SplineSet
110 -34 m 1,0,1
 110 -49 110 -49 100.5 -57 c 128,-1,2
 91 -65 91 -65 80 -65 c 128,-1,3
 69 -65 69 -65 59.5 -57 c 128,-1,4
 50 -49 50 -49 50 -34 c 2,5,-1
 50 702 l 2,6,7
 50 717 50 717 59.5 725 c 128,-1,8
 69 733 69 733 80 733 c 128,-1,9
 91 733 91 733 100.5 725 c 128,-1,10
 110 717 110 717 110 702 c 2,11,-1
 110 -34 l 1,12,-1
 110 -34 l 1,0,1
EndSplineSet
Validated: 5
EndChar

StartChar: braceright
Encoding: 125 125 96
Width: 327
GlyphClass: 2
Flags: W
LayerCount: 2
Back
Fore
SplineSet
259 330 m 0,0,1
 248 321 248 321 239 308 c 0,2,3
 231 297 231 297 225 280 c 128,-1,4
 219 263 219 263 219 240 c 2,5,-1
 219 144 l 2,6,7
 219 95 219 95 206.5 66.5 c 128,-1,8
 194 38 194 38 174.5 24 c 128,-1,9
 155 10 155 10 130 6 c 128,-1,10
 105 2 105 2 81 0 c 0,11,12
 66 -1 66 -1 57.5 8.5 c 128,-1,13
 49 18 49 18 48.5 29 c 128,-1,14
 48 40 48 40 55 50 c 128,-1,15
 62 60 62 60 77 60 c 256,16,17
 92 60 92 60 106.5 62.5 c 128,-1,18
 121 65 121 65 132.5 73 c 128,-1,19
 144 81 144 81 151.5 98 c 128,-1,20
 159 115 159 115 159 144 c 2,21,-1
 159 240 l 2,22,23
 159 282 159 282 172 310 c 128,-1,24
 185 338 185 338 199 355 c 1,25,26
 185 371 185 371 172 399.5 c 128,-1,27
 159 428 159 428 159 469 c 2,28,-1
 159 565 l 2,29,30
 159 594 159 594 151.5 611 c 128,-1,31
 144 628 144 628 132 636 c 128,-1,32
 120 644 120 644 105.5 646.5 c 128,-1,33
 91 649 91 649 77 650 c 0,34,35
 62 650 62 650 55 659.5 c 128,-1,36
 48 669 48 669 48.5 680.5 c 128,-1,37
 49 692 49 692 57.5 701 c 128,-1,38
 66 710 66 710 81 709 c 0,39,40
 105 708 105 708 130 703.5 c 128,-1,41
 155 699 155 699 174.5 685 c 128,-1,42
 194 671 194 671 206.5 643 c 128,-1,43
 219 615 219 615 219 565 c 2,44,-1
 219 469 l 2,45,46
 219 446 219 446 225 429 c 128,-1,47
 231 412 231 412 239 401 c 0,48,49
 248 388 248 388 259 379 c 0,50,51
 276 368 276 368 276 354.5 c 128,-1,52
 276 341 276 341 259 330 c 0,0,1
EndSplineSet
Validated: 1
EndChar

StartChar: asciitilde
Encoding: 126 126 97
Width: 437
GlyphClass: 2
Flags: W
LayerCount: 2
Back
Fore
SplineSet
387 287 m 0,0,1
 379 247 379 247 351 219.5 c 128,-1,2
 323 192 323 192 282 192 c 0,3,4
 245 192 245 192 229 203 c 128,-1,5
 213 214 213 214 204.5 227 c 128,-1,6
 196 240 196 240 188 251 c 128,-1,7
 180 262 180 262 160 262 c 0,8,9
 138 262 138 262 128 244.5 c 128,-1,10
 118 227 118 227 108 208 c 0,11,12
 101 195 101 195 89 193 c 128,-1,13
 77 191 77 191 66.5 196 c 128,-1,14
 56 201 56 201 51 211.5 c 128,-1,15
 46 222 46 222 53 235 c 0,16,17
 62 251 62 251 72.5 266.5 c 128,-1,18
 83 282 83 282 96 294 c 128,-1,19
 109 306 109 306 124.5 313 c 128,-1,20
 140 320 140 320 160 320 c 0,21,22
 183 320 183 320 197 314.5 c 128,-1,23
 211 309 211 309 220 301.5 c 128,-1,24
 229 294 229 294 234.5 284.5 c 128,-1,25
 240 275 240 275 246 267.5 c 128,-1,26
 252 260 252 260 260 254.5 c 128,-1,27
 268 249 268 249 282 249 c 0,28,29
 302 249 302 249 313 265 c 128,-1,30
 324 281 324 281 329 301 c 0,31,32
 332 315 332 315 343 320 c 128,-1,33
 354 325 354 325 365 322.5 c 128,-1,34
 376 320 376 320 383.5 310.5 c 128,-1,35
 391 301 391 301 387 287 c 0,0,1
EndSplineSet
Validated: 1
EndChar

StartChar: FL00A1h
Encoding: 161 161 99
Width: 160
GlyphClass: 2
Flags: W
LayerCount: 2
Back
Fore
SplineSet
116 412 m 256,0,1
 116 397 116 397 105.5 387 c 128,-1,2
 95 377 95 377 80 377 c 256,3,4
 65 377 65 377 54.5 387 c 128,-1,5
 44 397 44 397 44 412 c 256,6,7
 44 427 44 427 54.5 437 c 128,-1,8
 65 447 65 447 80 447 c 256,9,10
 95 447 95 447 105.5 437 c 128,-1,11
 116 427 116 427 116 412 c 256,0,1
110 -132 m 1,12,13
 110 -147 110 -147 100.5 -154.5 c 128,-1,14
 91 -162 91 -162 80 -162 c 128,-1,15
 69 -162 69 -162 59.5 -154.5 c 128,-1,16
 50 -147 50 -147 50 -132 c 2,17,-1
 50 254 l 2,18,19
 50 269 50 269 59.5 276.5 c 128,-1,20
 69 284 69 284 80 284 c 128,-1,21
 91 284 91 284 100.5 276.5 c 128,-1,22
 110 269 110 269 110 254 c 2,23,-1
 110 -132 l 1,24,-1
 110 -132 l 1,12,13
EndSplineSet
Validated: 5
EndChar

StartChar: FL00A2h
Encoding: 162 162 100
Width: 474
GlyphClass: 2
Flags: W
LayerCount: 2
Back
Fore
SplineSet
417 79 m 0,0,1
 403 56 403 56 388.5 40 c 128,-1,2
 374 24 374 24 355.5 14 c 128,-1,3
 337 4 337 4 313 -0.5 c 128,-1,4
 289 -5 289 -5 254 -5 c 0,5,6
 238 -5 238 -5 222 -2.5 c 128,-1,7
 206 0 206 0 191 5 c 1,8,-1
 163 -58 l 2,9,10
 157 -72 157 -72 145 -75.5 c 128,-1,11
 133 -79 133 -79 122.5 -74.5 c 128,-1,12
 112 -70 112 -70 106 -59 c 128,-1,13
 100 -48 100 -48 106 -34 c 2,14,-1
 136 34 l 1,15,16
 96 61 96 61 72 106 c 128,-1,17
 48 151 48 151 48 202 c 0,18,19
 48 243 48 243 62 280.5 c 128,-1,20
 76 318 76 318 101.5 347 c 128,-1,21
 127 376 127 376 162 393 c 128,-1,22
 197 410 197 410 238 410 c 0,23,24
 256 410 256 410 271 409 c 128,-1,25
 286 408 286 408 301 405 c 0,26,27
 303 407 303 407 307.5 417.5 c 128,-1,28
 312 428 312 428 317 441 c 0,29,30
 323 456 323 456 330 474 c 0,31,32
 336 488 336 488 348 491.5 c 128,-1,33
 360 495 360 495 370.5 490.5 c 128,-1,34
 381 486 381 486 386.5 475.5 c 128,-1,35
 392 465 392 465 386 451 c 2,36,-1
 357 383 l 1,37,38
 385 362 385 362 413 321 c 0,39,40
 421 308 421 308 417 296.5 c 128,-1,41
 413 285 413 285 403 279 c 128,-1,42
 393 273 393 273 381 274.5 c 128,-1,43
 369 276 369 276 361 288 c 0,44,45
 348 311 348 311 331 325 c 1,46,-1
 215 61 l 1,47,48
 235 56 235 56 254 56 c 0,49,50
 278 56 278 56 294.5 59 c 128,-1,51
 311 62 311 62 323.5 68.5 c 128,-1,52
 336 75 336 75 345.5 85.5 c 128,-1,53
 355 96 355 96 364 112 c 0,54,55
 372 125 372 125 384 126.5 c 128,-1,56
 396 128 396 128 406 122 c 128,-1,57
 416 116 416 116 420.5 104.5 c 128,-1,58
 425 93 425 93 417 79 c 0,0,1
275 349 m 1,59,60
 266 350 266 350 257 350 c 128,-1,61
 248 350 248 350 238 350 c 0,62,63
 209 350 209 350 185 337.5 c 128,-1,64
 161 325 161 325 144 304.5 c 128,-1,65
 127 284 127 284 117.5 257.5 c 128,-1,66
 108 231 108 231 108 202 c 0,67,68
 108 170 108 170 122.5 140 c 128,-1,69
 137 110 137 110 161 90 c 1,70,-1
 275 349 l 1,71,-1
 275 349 l 1,59,60
EndSplineSet
Validated: 5
EndChar

StartChar: sterling
Encoding: 163 163 101
Width: 435
GlyphClass: 2
Flags: W
LayerCount: 2
Back
Fore
SplineSet
386 504 m 0,0,1
 392 491 392 491 386.5 480 c 128,-1,2
 381 469 381 469 370.5 464 c 128,-1,3
 360 459 360 459 348.5 462 c 128,-1,4
 337 465 337 465 330 478 c 0,5,6
 314 513 314 513 285 526.5 c 128,-1,7
 256 540 256 540 218 540 c 0,8,9
 201 540 201 540 184 535.5 c 128,-1,10
 167 531 167 531 153.5 522 c 128,-1,11
 140 513 140 513 131.5 500 c 128,-1,12
 123 487 123 487 123 471 c 0,13,14
 123 447 123 447 136 428 c 128,-1,15
 149 409 149 409 165.5 389.5 c 128,-1,16
 182 370 182 370 198 348 c 128,-1,17
 214 326 214 326 220 296 c 1,18,-1
 305 296 l 2,19,20
 320 296 320 296 328 286.5 c 128,-1,21
 336 277 336 277 336 266 c 128,-1,22
 336 255 336 255 328 245.5 c 128,-1,23
 320 236 320 236 305 236 c 2,24,-1
 221 236 l 1,25,26
 216 209 216 209 202.5 185.5 c 128,-1,27
 189 162 189 162 173.5 141 c 128,-1,28
 158 120 158 120 142.5 100 c 128,-1,29
 127 80 127 80 118 60 c 1,30,-1
 354 60 l 2,31,32
 369 60 369 60 377 50.5 c 128,-1,33
 385 41 385 41 385 30 c 128,-1,34
 385 19 385 19 377 9.5 c 128,-1,35
 369 0 369 0 354 0 c 2,36,-1
 80 0 l 2,37,38
 47 0 47 0 50 32 c 0,39,40
 52 59 52 59 69 87 c 128,-1,41
 86 115 86 115 105.5 141.5 c 128,-1,42
 125 168 125 168 142 192 c 128,-1,43
 159 216 159 216 160 236 c 1,44,-1
 87 236 l 2,45,46
 72 236 72 236 64.5 245.5 c 128,-1,47
 57 255 57 255 57 266 c 128,-1,48
 57 277 57 277 64.5 286.5 c 128,-1,49
 72 296 72 296 87 296 c 2,50,-1
 159 296 l 1,51,52
 153 322 153 322 137 340 c 128,-1,53
 121 358 121 358 104.5 376 c 128,-1,54
 88 394 88 394 75 416 c 128,-1,55
 62 438 62 438 62 471 c 0,56,57
 62 500 62 500 75 523.5 c 128,-1,58
 88 547 88 547 109.5 564 c 128,-1,59
 131 581 131 581 159.5 590.5 c 128,-1,60
 188 600 188 600 218 600 c 0,61,62
 275 600 275 600 318 577.5 c 128,-1,63
 361 555 361 555 386 504 c 0,0,1
EndSplineSet
Validated: 33
EndChar

StartChar: currency
Encoding: 164 164 102
Width: 440
GlyphClass: 2
Flags: W
LayerCount: 2
Back
Fore
SplineSet
380 175 m 1,0,1
 391 165 391 165 389.5 153.5 c 128,-1,2
 388 142 388 142 380 134 c 128,-1,3
 372 126 372 126 360.5 125 c 128,-1,4
 349 124 349 124 338 134 c 2,5,-1
 292 180 l 1,6,7
 276 171 276 171 258 165.5 c 128,-1,8
 240 160 240 160 220 160 c 256,9,10
 200 160 200 160 182 165.5 c 128,-1,11
 164 171 164 171 148 180 c 1,12,-1
 102 134 l 2,13,14
 92 124 92 124 80 125 c 128,-1,15
 68 126 68 126 60 134 c 128,-1,16
 52 142 52 142 51 153.5 c 128,-1,17
 50 165 50 165 60 175 c 2,18,-1
 106 221 l 1,19,20
 97 237 97 237 91.5 254.5 c 128,-1,21
 86 272 86 272 86 292 c 256,22,23
 86 312 86 312 91.5 329.5 c 128,-1,24
 97 347 97 347 106 363 c 1,25,-1
 60 409 l 2,26,27
 50 419 50 419 51 430.5 c 128,-1,28
 52 442 52 442 60 450 c 128,-1,29
 68 458 68 458 80 459.5 c 128,-1,30
 92 461 92 461 102 450 c 2,31,-1
 148 404 l 1,32,33
 164 413 164 413 182 418.5 c 128,-1,34
 200 424 200 424 220 424 c 256,35,36
 240 424 240 424 258 418.5 c 128,-1,37
 276 413 276 413 292 404 c 1,38,-1
 338 450 l 2,39,40
 349 461 349 461 360.5 459.5 c 128,-1,41
 372 458 372 458 380 450 c 128,-1,42
 388 442 388 442 389.5 430.5 c 128,-1,43
 391 419 391 419 380 409 c 2,44,-1
 334 363 l 1,45,46
 343 347 343 347 348.5 329.5 c 128,-1,47
 354 312 354 312 354 292 c 256,48,49
 354 272 354 272 348.5 254.5 c 128,-1,50
 343 237 343 237 334 221 c 1,51,-1
 380 175 l 1,52,-1
 380 175 l 1,0,1
293 292 m 256,53,54
 293 321 293 321 271.5 342.5 c 128,-1,55
 250 364 250 364 220 364 c 256,56,57
 190 364 190 364 168.5 342.5 c 128,-1,58
 147 321 147 321 147 292 c 256,59,60
 147 263 147 263 168.5 241.5 c 128,-1,61
 190 220 190 220 220 220 c 256,62,63
 250 220 250 220 271.5 241.5 c 128,-1,64
 293 263 293 263 293 292 c 256,53,54
EndSplineSet
Validated: 5
EndChar

StartChar: yen
Encoding: 165 165 103
Width: 556
GlyphClass: 2
Flags: W
LayerCount: 2
Back
Fore
SplineSet
314 289 m 1,0,-1
 405 289 l 2,1,2
 420 289 420 289 428 280 c 128,-1,3
 436 271 436 271 436 259.5 c 128,-1,4
 436 248 436 248 428 239 c 128,-1,5
 420 230 420 230 405 230 c 2,6,-1
 306 230 l 1,7,-1
 306 187 l 1,8,-1
 405 187 l 2,9,10
 420 187 420 187 428 177.5 c 128,-1,11
 436 168 436 168 436 157 c 128,-1,12
 436 146 436 146 428 136.5 c 128,-1,13
 420 127 420 127 405 127 c 2,14,-1
 306 127 l 1,15,-1
 306 21 l 2,16,17
 306 6 306 6 296.5 -1.5 c 128,-1,18
 287 -9 287 -9 276 -9 c 128,-1,19
 265 -9 265 -9 255.5 -1.5 c 128,-1,20
 246 6 246 6 246 21 c 2,21,-1
 246 127 l 1,22,-1
 153 127 l 2,23,24
 138 127 138 127 130 136.5 c 128,-1,25
 122 146 122 146 122 157 c 128,-1,26
 122 168 122 168 130 177.5 c 128,-1,27
 138 187 138 187 153 187 c 2,28,-1
 246 187 l 1,29,-1
 246 230 l 1,30,-1
 153 230 l 2,31,32
 138 230 138 230 130 239 c 128,-1,33
 122 248 122 248 122 259.5 c 128,-1,34
 122 271 122 271 130 280 c 128,-1,35
 138 289 138 289 153 289 c 2,36,-1
 238 289 l 1,37,-1
 55 558 l 2,38,39
 46 571 46 571 50 582.5 c 128,-1,40
 54 594 54 594 63.5 600.5 c 128,-1,41
 73 607 73 607 85 606 c 128,-1,42
 97 605 97 605 105 593 c 2,43,-1
 276 341 l 1,44,-1
 448 593 l 2,45,46
 456 605 456 605 468 606 c 128,-1,47
 480 607 480 607 489.5 600.5 c 128,-1,48
 499 594 499 594 502.5 582.5 c 128,-1,49
 506 571 506 571 497 558 c 2,50,-1
 314 289 l 1,0,-1
EndSplineSet
Validated: 1
EndChar

StartChar: brokenbar
Encoding: 166 166 104
Width: 160
GlyphClass: 2
Flags: W
LayerCount: 2
Back
Fore
SplineSet
110 355 m 1,0,1
 110 340 110 340 100.5 333 c 128,-1,2
 91 326 91 326 80 326 c 128,-1,3
 69 326 69 326 59.5 333 c 128,-1,4
 50 340 50 340 50 355 c 2,5,-1
 50 615 l 2,6,7
 50 630 50 630 59.5 638 c 128,-1,8
 69 646 69 646 80 646 c 128,-1,9
 91 646 91 646 100.5 638 c 128,-1,10
 110 630 110 630 110 615 c 2,11,-1
 110 355 l 1,12,-1
 110 355 l 1,0,1
110 -48 m 1,13,14
 110 -63 110 -63 100.5 -70.5 c 128,-1,15
 91 -78 91 -78 80 -78 c 128,-1,16
 69 -78 69 -78 59.5 -70.5 c 128,-1,17
 50 -63 50 -63 50 -48 c 2,18,-1
 50 212 l 2,19,20
 50 227 50 227 59.5 234 c 128,-1,21
 69 241 69 241 80 241 c 128,-1,22
 91 241 91 241 100.5 234 c 128,-1,23
 110 227 110 227 110 212 c 2,24,-1
 110 -48 l 1,25,-1
 110 -48 l 1,13,14
EndSplineSet
Validated: 5
EndChar

StartChar: section
Encoding: 167 167 105
Width: 460
GlyphClass: 2
Flags: W
LayerCount: 2
Back
Fore
SplineSet
410 193 m 0,0,1
 410 150 410 150 387 121.5 c 128,-1,2
 364 93 364 93 329 70 c 1,3,4
 348 53 348 53 359 33.5 c 128,-1,5
 370 14 370 14 370 -11 c 0,6,7
 370 -37 370 -37 357.5 -59 c 128,-1,8
 345 -81 345 -81 325 -97 c 128,-1,9
 305 -113 305 -113 278.5 -122 c 128,-1,10
 252 -131 252 -131 225 -131 c 0,11,12
 196 -131 196 -131 169 -122 c 128,-1,13
 142 -113 142 -113 122 -95.5 c 128,-1,14
 102 -78 102 -78 91 -51.5 c 128,-1,15
 80 -25 80 -25 82 11 c 0,16,17
 83 26 83 26 93 33 c 128,-1,18
 103 40 103 40 114.5 39 c 128,-1,19
 126 38 126 38 135 30 c 128,-1,20
 144 22 144 22 143 7 c 0,21,22
 141 -13 141 -13 147.5 -28 c 128,-1,23
 154 -43 154 -43 166 -52.5 c 128,-1,24
 178 -62 178 -62 193.5 -66.5 c 128,-1,25
 209 -71 209 -71 225 -71 c 0,26,27
 240 -71 240 -71 255 -67 c 128,-1,28
 270 -63 270 -63 282.5 -55.5 c 128,-1,29
 295 -48 295 -48 302.5 -36.5 c 128,-1,30
 310 -25 310 -25 310 -11 c 0,31,32
 310 11 310 11 296 27 c 128,-1,33
 282 43 282 43 261 56.5 c 128,-1,34
 240 70 240 70 214 83.5 c 128,-1,35
 188 97 188 97 164 115 c 0,36,37
 138 133 138 133 117 149 c 128,-1,38
 96 165 96 165 81.5 182.5 c 128,-1,39
 67 200 67 200 59 221.5 c 128,-1,40
 51 243 51 243 51 271 c 0,41,42
 51 314 51 314 75 342.5 c 128,-1,43
 99 371 99 371 132 393 c 1,44,45
 114 410 114 410 102.5 430 c 128,-1,46
 91 450 91 450 91 474 c 0,47,48
 91 500 91 500 103.5 522.5 c 128,-1,49
 116 545 116 545 136 561 c 128,-1,50
 156 577 156 577 182.5 586 c 128,-1,51
 209 595 209 595 236 595 c 0,52,53
 266 595 266 595 293 586 c 128,-1,54
 320 577 320 577 340 559.5 c 128,-1,55
 360 542 360 542 371 515.5 c 128,-1,56
 382 489 382 489 379 453 c 0,57,58
 378 438 378 438 368 431 c 128,-1,59
 358 424 358 424 347 424.5 c 128,-1,60
 336 425 336 425 327 433 c 128,-1,61
 318 441 318 441 319 456 c 0,62,63
 321 477 321 477 314 491.5 c 128,-1,64
 307 506 307 506 295.5 515.5 c 128,-1,65
 284 525 284 525 268.5 529.5 c 128,-1,66
 253 534 253 534 236 534 c 0,67,68
 221 534 221 534 206 530 c 128,-1,69
 191 526 191 526 179 518.5 c 128,-1,70
 167 511 167 511 159.5 499.5 c 128,-1,71
 152 488 152 488 152 474 c 0,72,73
 152 456 152 456 166 440.5 c 128,-1,74
 180 425 180 425 202 410 c 128,-1,75
 224 395 224 395 249.5 380 c 128,-1,76
 275 365 275 365 297 348 c 0,77,78
 323 330 323 330 344 314.5 c 128,-1,79
 365 299 365 299 379.5 281 c 128,-1,80
 394 263 394 263 402 242 c 128,-1,81
 410 221 410 221 410 193 c 0,0,1
350 193 m 0,82,83
 350 213 350 213 343 227 c 128,-1,84
 336 241 336 241 324 253 c 128,-1,85
 312 265 312 265 296 276.5 c 128,-1,86
 280 288 280 288 262 301 c 0,87,88
 242 315 242 315 221.5 328 c 128,-1,89
 201 341 201 341 182 353 c 1,90,91
 169 345 169 345 156.5 337 c 128,-1,92
 144 329 144 329 134 319.5 c 128,-1,93
 124 310 124 310 118 298 c 128,-1,94
 112 286 112 286 112 271 c 0,95,96
 112 251 112 251 118.5 236.5 c 128,-1,97
 125 222 125 222 137 210 c 128,-1,98
 149 198 149 198 165 187 c 128,-1,99
 181 176 181 176 199 163 c 0,100,101
 219 149 219 149 239 136 c 128,-1,102
 259 123 259 123 278 110 c 1,103,104
 292 118 292 118 304.5 126 c 128,-1,105
 317 134 317 134 327.5 143.5 c 128,-1,106
 338 153 338 153 344 165 c 128,-1,107
 350 177 350 177 350 193 c 0,82,83
EndSplineSet
Validated: 33
EndChar

StartChar: dieresis
Encoding: 168 168 106
Width: 332
GlyphClass: 2
Flags: W
LayerCount: 2
Back
Fore
SplineSet
283 493 m 256,0,1
 283 477 283 477 271 466 c 128,-1,2
 259 455 259 455 242 455 c 256,3,4
 225 455 225 455 212.5 466 c 128,-1,5
 200 477 200 477 200 493 c 256,6,7
 200 509 200 509 212.5 520 c 128,-1,8
 225 531 225 531 242 531 c 256,9,10
 259 531 259 531 271 520 c 128,-1,11
 283 509 283 509 283 493 c 256,0,1
131 493 m 256,12,13
 131 477 131 477 119 466 c 128,-1,14
 107 455 107 455 90 455 c 256,15,16
 73 455 73 455 61 466 c 128,-1,17
 49 477 49 477 49 493 c 256,18,19
 49 509 49 509 61 520 c 128,-1,20
 73 531 73 531 90 531 c 256,21,22
 107 531 107 531 119 520 c 128,-1,23
 131 509 131 509 131 493 c 256,12,13
EndSplineSet
Validated: 1
EndChar

StartChar: copyright
Encoding: 169 169 107
Width: 704
GlyphClass: 2
Flags: W
LayerCount: 2
Back
Fore
SplineSet
657 302 m 256,0,1
 657 239 657 239 633.5 184 c 128,-1,2
 610 129 610 129 568.5 88 c 128,-1,3
 527 47 527 47 471.5 23.5 c 128,-1,4
 416 0 416 0 353 0 c 0,5,6
 289 0 289 0 233.5 23.5 c 128,-1,7
 178 47 178 47 137 88 c 128,-1,8
 96 129 96 129 72 184 c 128,-1,9
 48 239 48 239 48 302 c 256,10,11
 48 365 48 365 72 420 c 128,-1,12
 96 475 96 475 137 516 c 128,-1,13
 178 557 178 557 233.5 580.5 c 128,-1,14
 289 604 289 604 353 604 c 0,15,16
 416 604 416 604 471.5 580.5 c 128,-1,17
 527 557 527 557 568.5 516 c 128,-1,18
 610 475 610 475 633.5 420 c 128,-1,19
 657 365 657 365 657 302 c 256,0,1
597 302 m 256,20,21
 597 352 597 352 577.5 396 c 128,-1,22
 558 440 558 440 525 473 c 128,-1,23
 492 506 492 506 447.5 525 c 128,-1,24
 403 544 403 544 353 544 c 0,25,26
 302 544 302 544 257.5 525 c 128,-1,27
 213 506 213 506 180 473 c 128,-1,28
 147 440 147 440 127.5 396 c 128,-1,29
 108 352 108 352 108 302 c 256,30,31
 108 252 108 252 127.5 208 c 128,-1,32
 147 164 147 164 180 131 c 128,-1,33
 213 98 213 98 257.5 79 c 128,-1,34
 302 60 302 60 353 60 c 0,35,36
 403 60 403 60 447.5 79 c 128,-1,37
 492 98 492 98 525 131 c 128,-1,38
 558 164 558 164 577.5 208 c 128,-1,39
 597 252 597 252 597 302 c 256,20,21
491 202 m 0,40,41
 471 160 471 160 436 143 c 128,-1,42
 401 126 401 126 356 126 c 0,43,44
 320 126 320 126 288.5 140 c 128,-1,45
 257 154 257 154 233.5 177.5 c 128,-1,46
 210 201 210 201 196.5 232.5 c 128,-1,47
 183 264 183 264 183 300 c 0,48,49
 183 335 183 335 196 365.5 c 128,-1,50
 209 396 209 396 232 419.5 c 128,-1,51
 255 443 255 443 285.5 456.5 c 128,-1,52
 316 470 316 470 351 470 c 0,53,54
 397 470 397 470 434.5 450.5 c 128,-1,55
 472 431 472 431 488 390 c 0,56,57
 493 376 493 376 487 365.5 c 128,-1,58
 481 355 481 355 470.5 350.5 c 128,-1,59
 460 346 460 346 448.5 350 c 128,-1,60
 437 354 437 354 431 368 c 0,61,62
 423 392 423 392 400 401.5 c 128,-1,63
 377 411 377 411 351 411 c 0,64,65
 329 411 329 411 309 402 c 128,-1,66
 289 393 289 393 275 377.5 c 128,-1,67
 261 362 261 362 252.5 342 c 128,-1,68
 244 322 244 322 244 300 c 0,69,70
 244 277 244 277 253 256 c 128,-1,71
 262 235 262 235 277 219.5 c 128,-1,72
 292 204 292 204 312.5 195 c 128,-1,73
 333 186 333 186 356 186 c 0,74,75
 382 186 382 186 403.5 194 c 128,-1,76
 425 202 425 202 436 226 c 0,77,78
 442 239 442 239 454 242 c 128,-1,79
 466 245 466 245 476 240.5 c 128,-1,80
 486 236 486 236 491.5 226 c 128,-1,81
 497 216 497 216 491 202 c 0,40,41
EndSplineSet
Validated: 1
EndChar

StartChar: ordfeminine
Encoding: 170 170 108
Width: 372
GlyphClass: 2
Flags: W
LayerCount: 2
Back
Fore
SplineSet
251 333 m 2,0,1
 229 333 229 333 222 351 c 1,2,3
 193 331 193 331 157 331 c 0,4,5
 136 331 136 331 116.5 338 c 128,-1,6
 97 345 97 345 82.5 357 c 128,-1,7
 68 369 68 369 59 386 c 128,-1,8
 50 403 50 403 50 424 c 256,9,10
 50 445 50 445 59.5 462 c 128,-1,11
 69 479 69 479 84 491 c 128,-1,12
 99 503 99 503 119 510 c 128,-1,13
 139 517 139 517 160 517 c 0,14,15
 176 517 176 517 190.5 516 c 128,-1,16
 205 515 205 515 219 512 c 1,17,18
 213 545 213 545 183 545 c 0,19,20
 161 545 161 545 145.5 540 c 128,-1,21
 130 535 130 535 110 524 c 0,22,23
 97 517 97 517 85.5 521.5 c 128,-1,24
 74 526 74 526 68.5 536 c 128,-1,25
 63 546 63 546 65.5 557.5 c 128,-1,26
 68 569 68 569 81 576 c 0,27,28
 107 591 107 591 129 598 c 128,-1,29
 151 605 151 605 183 605 c 0,30,31
 225 605 225 605 253 578 c 128,-1,32
 281 551 281 551 281 500 c 2,33,-1
 281 393 l 1,34,-1
 290 393 l 2,35,36
 305 393 305 393 312.5 383.5 c 128,-1,37
 320 374 320 374 320 363 c 128,-1,38
 320 352 320 352 312.5 342.5 c 128,-1,39
 305 333 305 333 290 333 c 2,40,-1
 251 333 l 2,0,1
81 241 m 2,41,42
 66 241 66 241 58 250 c 128,-1,43
 50 259 50 259 50 270.5 c 128,-1,44
 50 282 50 282 58 291 c 128,-1,45
 66 300 66 300 81 300 c 2,46,-1
 277 300 l 2,47,48
 292 300 292 300 299.5 291 c 128,-1,49
 307 282 307 282 307 270.5 c 128,-1,50
 307 259 307 259 299.5 250 c 128,-1,51
 292 241 292 241 277 241 c 2,52,-1
 81 241 l 2,41,42
220 451 m 1,53,54
 193 458 193 458 160 458 c 0,55,56
 143 458 143 458 126.5 449.5 c 128,-1,57
 110 441 110 441 110 424 c 256,58,59
 110 407 110 407 125 398.5 c 128,-1,60
 140 390 140 390 157 390 c 0,61,62
 179 390 179 390 193 403 c 128,-1,63
 207 416 207 416 219 430 c 0,64,65
 219 431 219 431 220 431 c 2,66,-1
 220 451 l 1,53,54
EndSplineSet
Validated: 1
EndChar

StartChar: guillemotleft
Encoding: 171 171 109
Width: 465
GlyphClass: 2
Flags: W
LayerCount: 2
Back
Fore
SplineSet
404 44 m 1,0,1
 415 34 415 34 413 22 c 128,-1,2
 411 10 411 10 403 2 c 128,-1,3
 395 -6 395 -6 383 -7 c 128,-1,4
 371 -8 371 -8 360 3 c 2,5,-1
 237 127 l 2,6,7
 216 148 216 148 237 169 c 2,8,-1
 360 294 l 2,9,10
 371 305 371 305 383 304 c 128,-1,11
 395 303 395 303 403 295.5 c 128,-1,12
 411 288 411 288 413 276 c 128,-1,13
 415 264 415 264 404 253 c 2,14,-1
 301 148 l 1,15,-1
 404 44 l 1,16,-1
 404 44 l 1,0,1
225 44 m 1,17,18
 236 34 236 34 234.5 22 c 128,-1,19
 233 10 233 10 225 2 c 128,-1,20
 217 -6 217 -6 204.5 -7 c 128,-1,21
 192 -8 192 -8 181 3 c 2,22,-1
 59 127 l 2,23,24
 38 148 38 148 59 169 c 2,25,-1
 181 294 l 2,26,27
 192 305 192 305 204.5 304 c 128,-1,28
 217 303 217 303 225 295.5 c 128,-1,29
 233 288 233 288 234.5 276 c 128,-1,30
 236 264 236 264 225 253 c 2,31,-1
 123 148 l 1,32,-1
 225 44 l 1,33,-1
 225 44 l 1,17,18
EndSplineSet
Validated: 37
EndChar

StartChar: logicalnot
Encoding: 172 172 110
Width: 494
GlyphClass: 2
Flags: W
LayerCount: 2
Back
Fore
SplineSet
445 29 m 1,0,1
 445 14 445 14 435.5 7 c 128,-1,2
 426 0 426 0 414.5 0 c 128,-1,3
 403 0 403 0 393.5 7 c 128,-1,4
 384 14 384 14 384 29 c 2,5,-1
 384 149 l 1,6,-1
 78 149 l 2,7,8
 63 149 63 149 55.5 158 c 128,-1,9
 48 167 48 167 48 178 c 128,-1,10
 48 189 48 189 55.5 198 c 128,-1,11
 63 207 63 207 78 207 c 2,12,-1
 414 207 l 2,13,14
 445 207 445 207 445 178 c 2,15,-1
 445 29 l 1,16,-1
 445 29 l 1,0,1
EndSplineSet
Validated: 5
EndChar

StartChar: minus
Encoding: 173 173 111
Width: 463
GlyphClass: 2
Flags: W
LayerCount: 2
Back
Fore
SplineSet
80 215 m 2,0,1
 65 215 65 215 57 223.5 c 128,-1,2
 49 232 49 232 49 242.5 c 128,-1,3
 49 253 49 253 57 261.5 c 128,-1,4
 65 270 65 270 80 270 c 2,5,-1
 382 270 l 2,6,7
 397 270 397 270 404.5 261.5 c 128,-1,8
 412 253 412 253 412 242.5 c 128,-1,9
 412 232 412 232 404.5 223.5 c 128,-1,10
 397 215 397 215 382 215 c 2,11,-1
 80 215 l 2,0,1
EndSplineSet
Validated: 1
EndChar

StartChar: registered
Encoding: 174 174 112
Width: 710
GlyphClass: 2
Flags: W
LayerCount: 2
Back
Fore
SplineSet
660 302 m 256,0,1
 660 239 660 239 636.5 184 c 128,-1,2
 613 129 613 129 571.5 88 c 128,-1,3
 530 47 530 47 474.5 23.5 c 128,-1,4
 419 0 419 0 355 0 c 0,5,6
 292 0 292 0 236 23.5 c 128,-1,7
 180 47 180 47 139 88 c 128,-1,8
 98 129 98 129 74 184 c 128,-1,9
 50 239 50 239 50 302 c 256,10,11
 50 365 50 365 74 420 c 128,-1,12
 98 475 98 475 139 516 c 128,-1,13
 180 557 180 557 236 580.5 c 128,-1,14
 292 604 292 604 355 604 c 0,15,16
 419 604 419 604 474.5 580.5 c 128,-1,17
 530 557 530 557 571.5 516 c 128,-1,18
 613 475 613 475 636.5 420 c 128,-1,19
 660 365 660 365 660 302 c 256,0,1
600 302 m 256,20,21
 600 352 600 352 580.5 396 c 128,-1,22
 561 440 561 440 528 473 c 128,-1,23
 495 506 495 506 450.5 525 c 128,-1,24
 406 544 406 544 355 544 c 0,25,26
 305 544 305 544 260.5 525 c 128,-1,27
 216 506 216 506 183 473 c 128,-1,28
 150 440 150 440 130.5 396 c 128,-1,29
 111 352 111 352 111 302 c 256,30,31
 111 252 111 252 130.5 208 c 128,-1,32
 150 164 150 164 183 131 c 128,-1,33
 216 98 216 98 260.5 79 c 128,-1,34
 305 60 305 60 355 60 c 0,35,36
 406 60 406 60 450.5 79 c 128,-1,37
 495 98 495 98 528 131 c 128,-1,38
 561 164 561 164 580.5 208 c 128,-1,39
 600 252 600 252 600 302 c 256,20,21
500 370 m 0,40,41
 500 352 500 352 493.5 335 c 128,-1,42
 487 318 487 318 475.5 304 c 128,-1,43
 464 290 464 290 448 280 c 128,-1,44
 432 270 432 270 413 266 c 1,45,46
 413 268 413 268 426 251.5 c 128,-1,47
 439 235 439 235 455 215 c 2,48,-1
 497 161 l 2,49,50
 506 149 506 149 502.5 137.5 c 128,-1,51
 499 126 499 126 490 119.5 c 128,-1,52
 481 113 481 113 469 114 c 128,-1,53
 457 115 457 115 448 127 c 2,54,-1
 349 265 l 2,55,56
 349 266 349 266 348.5 266.5 c 128,-1,57
 348 267 348 267 348 265 c 2,58,-1
 296 265 l 1,59,-1
 296 151 l 2,60,61
 296 136 296 136 286.5 128.5 c 128,-1,62
 277 121 277 121 266 121 c 128,-1,63
 255 121 255 121 245.5 128.5 c 128,-1,64
 236 136 236 136 236 151 c 2,65,-1
 236 444 l 2,66,67
 236 474 236 474 266 474 c 2,68,-1
 396 474 l 2,69,70
 441 474 441 474 470.5 444 c 128,-1,71
 500 414 500 414 500 370 c 0,40,41
440 370 m 256,72,73
 440 387 440 387 427 400.5 c 128,-1,74
 414 414 414 414 396 414 c 2,75,-1
 296 414 l 1,76,-1
 296 326 l 1,77,-1
 395 326 l 2,78,79
 414 326 414 326 427 339.5 c 128,-1,80
 440 353 440 353 440 370 c 256,72,73
EndSplineSet
Validated: 5
EndChar

StartChar: macron
Encoding: 175 175 113
Width: 463
GlyphClass: 2
Flags: W
LayerCount: 2
Back
Fore
SplineSet
80 454 m 2,0,1
 65 454 65 454 57 462.5 c 128,-1,2
 49 471 49 471 49 481 c 128,-1,3
 49 491 49 491 57 499.5 c 128,-1,4
 65 508 65 508 80 508 c 2,5,-1
 382 508 l 2,6,7
 397 508 397 508 404.5 499.5 c 128,-1,8
 412 491 412 491 412 481 c 128,-1,9
 412 471 412 471 404.5 462.5 c 128,-1,10
 397 454 397 454 382 454 c 2,11,-1
 80 454 l 2,0,1
EndSplineSet
Validated: 1
EndChar

StartChar: degree
Encoding: 176 176 114
Width: 373
GlyphClass: 2
Flags: W
LayerCount: 2
Back
Fore
SplineSet
324 467 m 256,0,1
 324 439 324 439 313.5 415 c 128,-1,2
 303 391 303 391 284 373 c 128,-1,3
 265 355 265 355 240 344.5 c 128,-1,4
 215 334 215 334 186 334 c 0,5,6
 158 334 158 334 133 344.5 c 128,-1,7
 108 355 108 355 89 373 c 128,-1,8
 70 391 70 391 59.5 415 c 128,-1,9
 49 439 49 439 49 467 c 256,10,11
 49 495 49 495 59.5 519.5 c 128,-1,12
 70 544 70 544 89 562.5 c 128,-1,13
 108 581 108 581 133 591.5 c 128,-1,14
 158 602 158 602 186 602 c 0,15,16
 215 602 215 602 240 591.5 c 128,-1,17
 265 581 265 581 284 562.5 c 128,-1,18
 303 544 303 544 313.5 519.5 c 128,-1,19
 324 495 324 495 324 467 c 256,0,1
263 467 m 0,20,21
 263 498 263 498 240.5 520 c 128,-1,22
 218 542 218 542 186 542 c 0,23,24
 155 542 155 542 132 520 c 128,-1,25
 109 498 109 498 109 467 c 0,26,27
 109 437 109 437 132 415 c 128,-1,28
 155 393 155 393 186 393 c 0,29,30
 218 393 218 393 240.5 415 c 128,-1,31
 263 437 263 437 263 467 c 0,20,21
EndSplineSet
Validated: 1
EndChar

StartChar: plusminus
Encoding: 177 177 115
Width: 485
GlyphClass: 2
Flags: W
LayerCount: 2
Back
Fore
SplineSet
272 272 m 1,0,-1
 272 142 l 2,1,2
 272 127 272 127 262.5 120 c 128,-1,3
 253 113 253 113 241.5 113 c 128,-1,4
 230 113 230 113 220.5 120 c 128,-1,5
 211 127 211 127 211 142 c 2,6,-1
 211 272 l 1,7,-1
 79 272 l 2,8,9
 64 272 64 272 56.5 281.5 c 128,-1,10
 49 291 49 291 49 302 c 128,-1,11
 49 313 49 313 56.5 322.5 c 128,-1,12
 64 332 64 332 79 332 c 2,13,-1
 211 332 l 1,14,-1
 211 462 l 2,15,16
 211 477 211 477 220.5 485 c 128,-1,17
 230 493 230 493 241.5 493 c 128,-1,18
 253 493 253 493 262.5 485 c 128,-1,19
 272 477 272 477 272 462 c 2,20,-1
 272 332 l 1,21,-1
 403 332 l 2,22,23
 418 332 418 332 426 322.5 c 128,-1,24
 434 313 434 313 434 302 c 128,-1,25
 434 291 434 291 426 281.5 c 128,-1,26
 418 272 418 272 403 272 c 2,27,-1
 272 272 l 1,0,-1
94 0 m 2,28,29
 79 0 79 0 71.5 9.5 c 128,-1,30
 64 19 64 19 64 30 c 128,-1,31
 64 41 64 41 71.5 50.5 c 128,-1,32
 79 60 79 60 94 60 c 2,33,-1
 396 60 l 2,34,35
 411 60 411 60 419 50.5 c 128,-1,36
 427 41 427 41 427 30 c 128,-1,37
 427 19 427 19 419 9.5 c 128,-1,38
 411 0 411 0 396 0 c 2,39,-1
 94 0 l 2,28,29
EndSplineSet
Validated: 1
EndChar

StartChar: twosuperior
Encoding: 178 178 116
Width: 346
GlyphClass: 2
Flags: W
LayerCount: 2
Back
Fore
SplineSet
296 519 m 0,0,1
 296 492 296 492 283 472 c 128,-1,2
 270 452 270 452 250.5 436 c 128,-1,3
 231 420 231 420 208.5 405.5 c 128,-1,4
 186 391 186 391 168 374 c 0,5,6
 148 352 148 352 138.5 332 c 128,-1,7
 129 312 129 312 121 289 c 1,8,-1
 263 289 l 2,9,10
 278 289 278 289 286 279.5 c 128,-1,11
 294 270 294 270 294 259 c 128,-1,12
 294 248 294 248 286 238.5 c 128,-1,13
 278 229 278 229 263 229 c 2,14,-1
 80 229 l 2,15,16
 39 229 39 229 51 268 c 0,17,18
 59 291 59 291 65 310.5 c 128,-1,19
 71 330 71 330 78.5 347.5 c 128,-1,20
 86 365 86 365 97 381.5 c 128,-1,21
 108 398 108 398 126 415 c 0,22,23
 140 429 140 429 159 439 c 128,-1,24
 178 449 178 449 195 459.5 c 128,-1,25
 212 470 212 470 224 484 c 128,-1,26
 236 498 236 498 236 519 c 0,27,28
 236 536 236 536 220 545.5 c 128,-1,29
 204 555 204 555 186 555 c 0,30,31
 162 555 162 555 143 545 c 128,-1,32
 124 535 124 535 118 513 c 0,33,34
 114 498 114 498 102.5 493.5 c 128,-1,35
 91 489 91 489 80 492.5 c 128,-1,36
 69 496 69 496 62.5 506 c 128,-1,37
 56 516 56 516 60 530 c 0,38,39
 74 572 74 572 107.5 593.5 c 128,-1,40
 141 615 141 615 186 615 c 0,41,42
 208 615 208 615 228 607.5 c 128,-1,43
 248 600 248 600 263 587.5 c 128,-1,44
 278 575 278 575 287 557.5 c 128,-1,45
 296 540 296 540 296 519 c 0,0,1
EndSplineSet
Validated: 33
EndChar

StartChar: threesuperior
Encoding: 179 179 117
Width: 360
GlyphClass: 2
Flags: W
LayerCount: 2
Back
Fore
SplineSet
310 369 m 0,0,1
 310 341 310 341 300.5 315 c 128,-1,2
 291 289 291 289 273.5 268.5 c 128,-1,3
 256 248 256 248 232.5 236 c 128,-1,4
 209 224 209 224 180 224 c 0,5,6
 129 224 129 224 94 251 c 128,-1,7
 59 278 59 278 49 326 c 0,8,9
 46 341 46 341 53 350.5 c 128,-1,10
 60 360 60 360 71 362 c 128,-1,11
 82 364 82 364 93 359 c 128,-1,12
 104 354 104 354 107 339 c 0,13,14
 114 313 114 313 133.5 298 c 128,-1,15
 153 283 153 283 180 283 c 0,16,17
 196 283 196 283 209 290.5 c 128,-1,18
 222 298 222 298 231 310 c 128,-1,19
 240 322 240 322 245 337.5 c 128,-1,20
 250 353 250 353 250 369 c 0,21,22
 250 405 250 405 223.5 426 c 128,-1,23
 197 447 197 447 152 447 c 0,24,25
 127 447 127 447 120 462.5 c 128,-1,26
 113 478 113 478 130 496 c 2,27,-1
 179 550 l 1,28,-1
 94 550 l 2,29,30
 79 550 79 550 71.5 559.5 c 128,-1,31
 64 569 64 569 64 580 c 128,-1,32
 64 591 64 591 71.5 600.5 c 128,-1,33
 79 610 79 610 94 610 c 2,34,-1
 248 610 l 2,35,36
 273 610 273 610 280 594 c 128,-1,37
 287 578 287 578 270 561 c 2,38,-1
 212 499 l 1,39,40
 261 485 261 485 285.5 451 c 128,-1,41
 310 417 310 417 310 369 c 0,0,1
EndSplineSet
Validated: 33
EndChar

StartChar: FL00B4h
Encoding: 180 180 118
Width: 280
GlyphClass: 2
Flags: W
LayerCount: 2
Back
Fore
SplineSet
94 457 m 2,0,1
 81 450 81 450 70 454.5 c 128,-1,2
 59 459 59 459 53.5 468.5 c 128,-1,3
 48 478 48 478 50.5 489.5 c 128,-1,4
 53 501 53 501 66 508 c 2,5,-1
 183 566 l 2,6,7
 196 573 196 573 207 568.5 c 128,-1,8
 218 564 218 564 223.5 554.5 c 128,-1,9
 229 545 229 545 227 534 c 128,-1,10
 225 523 225 523 211 516 c 2,11,-1
 94 457 l 2,0,1
EndSplineSet
Validated: 1
EndChar

StartChar: mu1
Encoding: 181 181 119
Width: 429
GlyphClass: 2
Flags: W
LayerCount: 2
Back
Fore
SplineSet
379 145 m 1,0,1
 379 110 379 110 366.5 82 c 128,-1,2
 354 54 354 54 333 34 c 128,-1,3
 312 14 312 14 283.5 3.5 c 128,-1,4
 255 -7 255 -7 223 -7 c 0,5,6
 186 -7 186 -7 156.5 6.5 c 128,-1,7
 127 20 127 20 104 43 c 1,8,9
 104 43 104 43 104 33 c 128,-1,10
 104 23 104 23 104.5 6.5 c 128,-1,11
 105 -10 105 -10 105.5 -31.5 c 128,-1,12
 106 -53 106 -53 107 -75 c 0,13,14
 109 -127 109 -127 110 -194 c 0,15,16
 110 -209 110 -209 100.5 -217 c 128,-1,17
 91 -225 91 -225 80 -225 c 128,-1,18
 69 -225 69 -225 59.5 -217 c 128,-1,19
 50 -209 50 -209 50 -194 c 2,20,-1
 50 379 l 2,21,22
 50 394 50 394 59.5 401.5 c 128,-1,23
 69 409 69 409 80 409 c 128,-1,24
 91 409 91 409 100.5 401.5 c 128,-1,25
 110 394 110 394 110 379 c 2,26,-1
 110 130 l 1,27,28
 129 100 129 100 159.5 76 c 128,-1,29
 190 52 190 52 223 52 c 0,30,31
 262 52 262 52 290.5 77 c 128,-1,32
 319 102 319 102 319 145 c 2,33,-1
 319 382 l 2,34,35
 319 397 319 397 328.5 405 c 128,-1,36
 338 413 338 413 349 413 c 128,-1,37
 360 413 360 413 369.5 405 c 128,-1,38
 379 397 379 397 379 382 c 2,39,-1
 379 145 l 1,40,-1
 379 145 l 1,0,1
EndSplineSet
Validated: 5
EndChar

StartChar: paragraph
Encoding: 182 182 120
Width: 456
GlyphClass: 2
Flags: W
LayerCount: 2
Back
Fore
SplineSet
406 22 m 1,0,1
 406 7 406 7 396.5 -0.5 c 128,-1,2
 387 -8 387 -8 376 -8 c 128,-1,3
 365 -8 365 -8 355.5 -0.5 c 128,-1,4
 346 7 346 7 346 22 c 2,5,-1
 346 290 l 1,6,-1
 301 290 l 1,7,-1
 301 22 l 2,8,9
 301 7 301 7 291.5 -0.5 c 128,-1,10
 282 -8 282 -8 270.5 -8 c 128,-1,11
 259 -8 259 -8 249.5 -0.5 c 128,-1,12
 240 7 240 7 240 22 c 2,13,-1
 240 290 l 1,14,-1
 200 290 l 2,15,16
 157 290 157 290 128 302.5 c 128,-1,17
 99 315 99 315 81.5 336 c 128,-1,18
 64 357 64 357 57 385 c 128,-1,19
 50 413 50 413 50 444 c 0,20,21
 50 476 50 476 58.5 504.5 c 128,-1,22
 67 533 67 533 85 555 c 128,-1,23
 103 577 103 577 131 589.5 c 128,-1,24
 159 602 159 602 198 602 c 2,25,-1
 406 602 l 1,26,-1
 406 22 l 1,27,-1
 406 22 l 1,0,1
346 542 m 1,28,-1
 301 542 l 1,29,-1
 301 349 l 1,30,-1
 346 349 l 1,31,-1
 346 542 l 1,28,-1
240 542 m 1,32,-1
 198 542 l 2,33,34
 174 542 174 542 157.5 533.5 c 128,-1,35
 141 525 141 525 130.5 511.5 c 128,-1,36
 120 498 120 498 115 480.5 c 128,-1,37
 110 463 110 463 110 444 c 256,38,39
 110 425 110 425 114 408 c 128,-1,40
 118 391 118 391 128.5 378 c 128,-1,41
 139 365 139 365 156.5 357 c 128,-1,42
 174 349 174 349 200 349 c 2,43,-1
 240 349 l 1,44,-1
 240 542 l 1,32,-1
EndSplineSet
Validated: 5
EndChar

StartChar: FL00B7h
Encoding: 183 183 121
Width: 360
GlyphClass: 2
Flags: W
LayerCount: 2
Back
Fore
SplineSet
224 215 m 0,0,1
 224 196 224 196 209.5 182.5 c 128,-1,2
 195 169 195 169 174 169 c 0,3,4
 154 169 154 169 139.5 182.5 c 128,-1,5
 125 196 125 196 125 215 c 0,6,7
 125 235 125 235 139.5 248.5 c 128,-1,8
 154 262 154 262 174 262 c 0,9,10
 195 262 195 262 209.5 248.5 c 128,-1,11
 224 235 224 235 224 215 c 0,0,1
EndSplineSet
Validated: 1
EndChar

StartChar: FL00B8h
Encoding: 184 184 122
Width: 312
GlyphClass: 2
Flags: W
LayerCount: 2
Back
Fore
SplineSet
263 -117 m 0,0,1
 263 -137 263 -137 254 -153 c 128,-1,2
 245 -169 245 -169 230 -179.5 c 128,-1,3
 215 -190 215 -190 196 -195.5 c 128,-1,4
 177 -201 177 -201 157 -201 c 0,5,6
 119 -201 119 -201 92 -181.5 c 128,-1,7
 65 -162 65 -162 52 -127 c 0,8,9
 47 -113 47 -113 54 -103 c 128,-1,10
 61 -93 61 -93 72.5 -89.5 c 128,-1,11
 84 -86 84 -86 95.5 -90 c 128,-1,12
 107 -94 107 -94 111 -109 c 0,13,14
 120 -141 120 -141 157 -141 c 0,15,16
 172 -141 172 -141 187 -136.5 c 128,-1,17
 202 -132 202 -132 202 -117 c 0,18,19
 202 -100 202 -100 192 -90 c 128,-1,20
 182 -80 182 -80 168 -80 c 0,21,22
 138 -80 138 -80 138 -51 c 2,23,-1
 138 20 l 2,24,25
 138 35 138 35 147.5 42 c 128,-1,26
 157 49 157 49 168 49 c 128,-1,27
 179 49 179 49 188.5 42 c 128,-1,28
 198 35 198 35 198 20 c 2,29,-1
 198 -25 l 1,30,31
 227 -33 227 -33 245 -56 c 128,-1,32
 263 -79 263 -79 263 -117 c 0,0,1
EndSplineSet
Validated: 1
EndChar

StartChar: FL00B9h
Encoding: 185 185 123
Width: 160
GlyphClass: 2
Flags: W
LayerCount: 2
Back
Fore
SplineSet
110 257 m 1,0,1
 110 242 110 242 100.5 234 c 128,-1,2
 91 226 91 226 80 226 c 128,-1,3
 69 226 69 226 59.5 234 c 128,-1,4
 50 242 50 242 50 257 c 2,5,-1
 50 579 l 2,6,7
 50 594 50 594 59.5 601.5 c 128,-1,8
 69 609 69 609 80 609 c 128,-1,9
 91 609 91 609 100.5 601.5 c 128,-1,10
 110 594 110 594 110 579 c 2,11,-1
 110 257 l 1,12,-1
 110 257 l 1,0,1
EndSplineSet
Validated: 5
EndChar

StartChar: FL00BAh
Encoding: 186 186 124
Width: 376
GlyphClass: 2
Flags: W
LayerCount: 2
Back
Fore
SplineSet
326 467 m 0,0,1
 326 439 326 439 315.5 414.5 c 128,-1,2
 305 390 305 390 286 371.5 c 128,-1,3
 267 353 267 353 242 342.5 c 128,-1,4
 217 332 217 332 188 332 c 256,5,6
 159 332 159 332 134 342.5 c 128,-1,7
 109 353 109 353 90 371.5 c 128,-1,8
 71 390 71 390 60.5 414.5 c 128,-1,9
 50 439 50 439 50 467 c 0,10,11
 50 496 50 496 60.5 521 c 128,-1,12
 71 546 71 546 90 564.5 c 128,-1,13
 109 583 109 583 134 593.5 c 128,-1,14
 159 604 159 604 188 604 c 256,15,16
 217 604 217 604 242 593.5 c 128,-1,17
 267 583 267 583 286 564.5 c 128,-1,18
 305 546 305 546 315.5 521 c 128,-1,19
 326 496 326 496 326 467 c 0,0,1
90 242 m 2,20,21
 75 242 75 242 67 251 c 128,-1,22
 59 260 59 260 59 271.5 c 128,-1,23
 59 283 59 283 67 292 c 128,-1,24
 75 301 75 301 90 301 c 2,25,-1
 295 301 l 2,26,27
 310 301 310 301 318 292 c 128,-1,28
 326 283 326 283 326 271.5 c 128,-1,29
 326 260 326 260 318 251 c 128,-1,30
 310 242 310 242 295 242 c 2,31,-1
 90 242 l 2,20,21
266 467 m 0,32,33
 266 499 266 499 243 521.5 c 128,-1,34
 220 544 220 544 188 544 c 256,35,36
 156 544 156 544 133 521.5 c 128,-1,37
 110 499 110 499 110 467 c 0,38,39
 110 452 110 452 116 438 c 128,-1,40
 122 424 122 424 132.5 413.5 c 128,-1,41
 143 403 143 403 157.5 397 c 128,-1,42
 172 391 172 391 188 391 c 256,43,44
 204 391 204 391 218.5 397 c 128,-1,45
 233 403 233 403 243.5 413.5 c 128,-1,46
 254 424 254 424 260 438 c 128,-1,47
 266 452 266 452 266 467 c 0,32,33
EndSplineSet
Validated: 1
EndChar

StartChar: guillemotright
Encoding: 187 187 125
Width: 465
GlyphClass: 2
Flags: W
LayerCount: 2
Back
Fore
SplineSet
279 3 m 2,0,1
 269 -8 269 -8 256.5 -7 c 128,-1,2
 244 -6 244 -6 236 2 c 128,-1,3
 228 10 228 10 226.5 22 c 128,-1,4
 225 34 225 34 235 44 c 2,5,-1
 338 148 l 1,6,-1
 235 253 l 2,7,8
 225 264 225 264 226.5 276 c 128,-1,9
 228 288 228 288 236 295.5 c 128,-1,10
 244 303 244 303 256.5 304 c 128,-1,11
 269 305 269 305 279 294 c 2,12,-1
 402 169 l 2,13,14
 423 148 423 148 402 127 c 2,15,-1
 279 3 l 2,0,1
101 3 m 2,16,17
 90 -8 90 -8 78 -7 c 128,-1,18
 66 -6 66 -6 57.5 2 c 128,-1,19
 49 10 49 10 47.5 22 c 128,-1,20
 46 34 46 34 57 44 c 2,21,-1
 159 148 l 1,22,-1
 57 253 l 2,23,24
 46 264 46 264 47.5 276 c 128,-1,25
 49 288 49 288 57.5 295.5 c 128,-1,26
 66 303 66 303 78 304 c 128,-1,27
 90 305 90 305 101 294 c 2,28,-1
 224 169 l 2,29,30
 243 149 243 149 224 127 c 2,31,-1
 101 3 l 2,16,17
EndSplineSet
Validated: 33
EndChar

StartChar: FL00BCh
Encoding: 188 188 126
Width: 603
GlyphClass: 2
Flags: W
LayerCount: 2
Back
Fore
SplineSet
496 43 m 1,0,-1
 496 21 l 2,1,2
 496 6 496 6 486.5 -1.5 c 128,-1,3
 477 -9 477 -9 466 -9 c 128,-1,4
 455 -9 455 -9 445.5 -1.5 c 128,-1,5
 436 6 436 6 436 21 c 2,6,-1
 436 43 l 1,7,-1
 292 43 l 2,8,9
 251 43 251 43 263 83 c 2,10,-1
 357 358 l 2,11,12
 362 372 362 372 373.5 376 c 128,-1,13
 385 380 385 380 395.5 376.5 c 128,-1,14
 406 373 406 373 412.5 363 c 128,-1,15
 419 353 419 353 414 339 c 2,16,-1
 333 103 l 1,17,-1
 436 103 l 1,18,-1
 436 165 l 2,19,20
 436 180 436 180 445.5 187.5 c 128,-1,21
 455 195 455 195 466 195 c 128,-1,22
 477 195 477 195 486.5 187.5 c 128,-1,23
 496 180 496 180 496 165 c 2,24,-1
 496 103 l 1,25,-1
 522 103 l 2,26,27
 537 103 537 103 544.5 93.5 c 128,-1,28
 552 84 552 84 552 73 c 128,-1,29
 552 62 552 62 544.5 52.5 c 128,-1,30
 537 43 537 43 522 43 c 2,31,-1
 496 43 l 1,0,-1
154 17 m 2,32,33
 148 3 148 3 136.5 -0.5 c 128,-1,34
 125 -4 125 -4 114.5 0 c 128,-1,35
 104 4 104 4 98 14.5 c 128,-1,36
 92 25 92 25 97 39 c 2,37,-1
 304 584 l 2,38,39
 310 598 310 598 321.5 602 c 128,-1,40
 333 606 333 606 343.5 601.5 c 128,-1,41
 354 597 354 597 360 586.5 c 128,-1,42
 366 576 366 576 361 562 c 2,43,-1
 154 17 l 2,32,33
110 236 m 1,44,45
 110 221 110 221 100.5 213.5 c 128,-1,46
 91 206 91 206 80 206 c 128,-1,47
 69 206 69 206 59.5 213.5 c 128,-1,48
 50 221 50 221 50 236 c 2,49,-1
 50 561 l 2,50,51
 50 576 50 576 59.5 583.5 c 128,-1,52
 69 591 69 591 80 591 c 128,-1,53
 91 591 91 591 100.5 583.5 c 128,-1,54
 110 576 110 576 110 561 c 2,55,-1
 110 236 l 1,56,-1
 110 236 l 1,44,45
EndSplineSet
Validated: 37
EndChar

StartChar: onehalf
Encoding: 189 189 127
Width: 580
GlyphClass: 2
Flags: W
LayerCount: 2
Back
Fore
SplineSet
531 292 m 0,0,1
 531 264 531 264 518 244.5 c 128,-1,2
 505 225 505 225 485.5 208.5 c 128,-1,3
 466 192 466 192 443.5 177.5 c 128,-1,4
 421 163 421 163 403 145 c 0,5,6
 383 124 383 124 373.5 103.5 c 128,-1,7
 364 83 364 83 356 60 c 1,8,-1
 498 60 l 2,9,10
 513 60 513 60 520.5 50.5 c 128,-1,11
 528 41 528 41 528 30 c 128,-1,12
 528 19 528 19 520.5 9.5 c 128,-1,13
 513 0 513 0 498 0 c 2,14,-1
 314 0 l 2,15,16
 274 0 274 0 286 39 c 0,17,18
 294 62 294 62 299.5 81.5 c 128,-1,19
 305 101 305 101 313 119 c 128,-1,20
 321 137 321 137 332 153.5 c 128,-1,21
 343 170 343 170 361 187 c 0,22,23
 375 201 375 201 393.5 211.5 c 128,-1,24
 412 222 412 222 429 232.5 c 128,-1,25
 446 243 446 243 458 257 c 128,-1,26
 470 271 470 271 470 292 c 0,27,28
 470 309 470 309 454 318.5 c 128,-1,29
 438 328 438 328 421 328 c 0,30,31
 397 328 397 328 378.5 317.5 c 128,-1,32
 360 307 360 307 353 284 c 0,33,34
 349 270 349 270 337.5 265.5 c 128,-1,35
 326 261 326 261 315 264.5 c 128,-1,36
 304 268 304 268 297 278 c 128,-1,37
 290 288 290 288 294 303 c 0,38,39
 308 345 308 345 342 366 c 128,-1,40
 376 387 376 387 421 387 c 0,41,42
 443 387 443 387 463 380 c 128,-1,43
 483 373 483 373 498 360 c 128,-1,44
 513 347 513 347 522 330 c 128,-1,45
 531 313 531 313 531 292 c 0,0,1
154 17 m 2,46,47
 148 3 148 3 136.5 -0.5 c 128,-1,48
 125 -4 125 -4 114.5 0 c 128,-1,49
 104 4 104 4 98 14.5 c 128,-1,50
 92 25 92 25 97 39 c 2,51,-1
 304 584 l 2,52,53
 310 598 310 598 321.5 602 c 128,-1,54
 333 606 333 606 343.5 601.5 c 128,-1,55
 354 597 354 597 360 586.5 c 128,-1,56
 366 576 366 576 361 562 c 2,57,-1
 154 17 l 2,46,47
110 236 m 1,58,59
 110 221 110 221 100.5 213.5 c 128,-1,60
 91 206 91 206 80 206 c 128,-1,61
 69 206 69 206 59.5 213.5 c 128,-1,62
 50 221 50 221 50 236 c 2,63,-1
 50 561 l 2,64,65
 50 576 50 576 59.5 583.5 c 128,-1,66
 69 591 69 591 80 591 c 128,-1,67
 91 591 91 591 100.5 583.5 c 128,-1,68
 110 576 110 576 110 561 c 2,69,-1
 110 236 l 1,70,-1
 110 236 l 1,58,59
EndSplineSet
Validated: 37
EndChar

StartChar: FL00BEh
Encoding: 190 190 128
Width: 780
GlyphClass: 2
Flags: W
LayerCount: 2
Back
Fore
SplineSet
673 43 m 1,0,-1
 673 21 l 2,1,2
 673 6 673 6 663.5 -1.5 c 128,-1,3
 654 -9 654 -9 642.5 -9 c 128,-1,4
 631 -9 631 -9 621.5 -1.5 c 128,-1,5
 612 6 612 6 612 21 c 2,6,-1
 612 43 l 1,7,-1
 468 43 l 2,8,9
 426 43 426 43 440 83 c 2,10,-1
 533 358 l 2,11,12
 538 372 538 372 549.5 376 c 128,-1,13
 561 380 561 380 571.5 376.5 c 128,-1,14
 582 373 582 373 588.5 363 c 128,-1,15
 595 353 595 353 590 339 c 2,16,-1
 509 103 l 1,17,-1
 612 103 l 1,18,-1
 612 165 l 2,19,20
 612 180 612 180 621.5 187.5 c 128,-1,21
 631 195 631 195 642.5 195 c 128,-1,22
 654 195 654 195 663.5 187.5 c 128,-1,23
 673 180 673 180 673 165 c 2,24,-1
 673 103 l 1,25,-1
 698 103 l 2,26,27
 713 103 713 103 720.5 93.5 c 128,-1,28
 728 84 728 84 728 73 c 128,-1,29
 728 62 728 62 720.5 52.5 c 128,-1,30
 713 43 713 43 698 43 c 2,31,-1
 673 43 l 1,0,-1
329 17 m 2,32,33
 323 3 323 3 312 -0.5 c 128,-1,34
 301 -4 301 -4 290.5 0 c 128,-1,35
 280 4 280 4 273.5 14.5 c 128,-1,36
 267 25 267 25 272 39 c 2,37,-1
 480 584 l 2,38,39
 485 598 485 598 496.5 602 c 128,-1,40
 508 606 508 606 518.5 601.5 c 128,-1,41
 529 597 529 597 535 586.5 c 128,-1,42
 541 576 541 576 536 562 c 2,43,-1
 329 17 l 2,32,33
311 356 m 0,44,45
 311 328 311 328 301.5 302 c 128,-1,46
 292 276 292 276 274.5 255.5 c 128,-1,47
 257 235 257 235 233.5 223 c 128,-1,48
 210 211 210 211 181 211 c 0,49,50
 130 211 130 211 95 238.5 c 128,-1,51
 60 266 60 266 50 314 c 0,52,53
 47 329 47 329 54 338 c 128,-1,54
 61 347 61 347 72 349.5 c 128,-1,55
 83 352 83 352 94 346.5 c 128,-1,56
 105 341 105 341 108 327 c 0,57,58
 114 301 114 301 133.5 285.5 c 128,-1,59
 153 270 153 270 181 270 c 0,60,61
 197 270 197 270 210 277.5 c 128,-1,62
 223 285 223 285 232 297 c 128,-1,63
 241 309 241 309 245.5 324.5 c 128,-1,64
 250 340 250 340 250 356 c 0,65,66
 250 393 250 393 224 414 c 128,-1,67
 198 435 198 435 153 435 c 0,68,69
 128 435 128 435 121 450 c 128,-1,70
 114 465 114 465 131 485 c 2,71,-1
 180 540 l 1,72,-1
 95 540 l 2,73,74
 80 540 80 540 72.5 549 c 128,-1,75
 65 558 65 558 65 569.5 c 128,-1,76
 65 581 65 581 72.5 590 c 128,-1,77
 80 599 80 599 95 599 c 2,78,-1
 249 599 l 2,79,80
 274 599 274 599 281 583 c 128,-1,81
 288 567 288 567 271 550 c 2,82,-1
 213 487 l 1,83,84
 261 473 261 473 286 439 c 128,-1,85
 311 405 311 405 311 356 c 0,44,45
EndSplineSet
Validated: 33
EndChar

StartChar: FL00BFh
Encoding: 191 191 129
Width: 412
GlyphClass: 2
Flags: W
LayerCount: 2
Back
Fore
SplineSet
288 408 m 0,0,1
 288 394 288 394 278 383.5 c 128,-1,2
 268 373 268 373 253 373 c 0,3,4
 237 373 237 373 227 383.5 c 128,-1,5
 217 394 217 394 217 408 c 0,6,7
 217 423 217 423 227 433.5 c 128,-1,8
 237 444 237 444 253 444 c 0,9,10
 268 444 268 444 278 433.5 c 128,-1,11
 288 423 288 423 288 408 c 0,0,1
363 -17 m 0,12,13
 355 -83 355 -83 313.5 -123 c 128,-1,14
 272 -163 272 -163 209 -164 c 0,15,16
 177 -164 177 -164 148 -152 c 128,-1,17
 119 -140 119 -140 97.5 -119.5 c 128,-1,18
 76 -99 76 -99 63 -71 c 128,-1,19
 50 -43 50 -43 50 -12 c 0,20,21
 50 30 50 30 62.5 59.5 c 128,-1,22
 75 89 75 89 94.5 111.5 c 128,-1,23
 114 134 114 134 138.5 153.5 c 128,-1,24
 163 173 163 173 186 194 c 0,25,26
 197 205 197 205 209.5 215 c 128,-1,27
 222 225 222 225 222 243 c 0,28,29
 222 258 222 258 231.5 265.5 c 128,-1,30
 241 273 241 273 252.5 273 c 128,-1,31
 264 273 264 273 273.5 265.5 c 128,-1,32
 283 258 283 258 283 243 c 0,33,34
 283 227 283 227 279 215.5 c 128,-1,35
 275 204 275 204 268 194.5 c 128,-1,36
 261 185 261 185 252 176.5 c 128,-1,37
 243 168 243 168 233 157 c 0,38,39
 215 137 215 137 193.5 121.5 c 128,-1,40
 172 106 172 106 153.5 88 c 128,-1,41
 135 70 135 70 122.5 47 c 128,-1,42
 110 24 110 24 110 -12 c 0,43,44
 110 -30 110 -30 118 -47 c 128,-1,45
 126 -64 126 -64 139.5 -77 c 128,-1,46
 153 -90 153 -90 171 -97 c 128,-1,47
 189 -104 189 -104 209 -104 c 0,48,49
 247 -103 247 -103 272 -77 c 128,-1,50
 297 -51 297 -51 302 -12 c 0,51,52
 304 3 304 3 314.5 9.5 c 128,-1,53
 325 16 325 16 336.5 15 c 128,-1,54
 348 14 348 14 356.5 6 c 128,-1,55
 365 -2 365 -2 363 -17 c 0,12,13
EndSplineSet
Validated: 1
EndChar

StartChar: FL00C0h
Encoding: 192 192 130
Width: 256
GlyphClass: 2
Flags: W
LayerCount: 2
Back
Fore
SplineSet
210 250 m 256,0,1
 210 215 210 215 186.5 191.5 c 128,-1,2
 163 168 163 168 128 168 c 256,3,4
 93 168 93 168 69 191.5 c 128,-1,5
 45 215 45 215 45 250 c 256,6,7
 45 285 45 285 69 308.5 c 128,-1,8
 93 332 93 332 128 332 c 256,9,10
 163 332 163 332 186.5 308.5 c 128,-1,11
 210 285 210 285 210 250 c 256,0,1
EndSplineSet
Validated: 1
EndChar

StartChar: FL00C1h
Encoding: 193 193 131
Width: 256
GlyphClass: 2
Flags: W
LayerCount: 2
Back
Fore
SplineSet
210 250 m 256,0,1
 210 215 210 215 186.5 191.5 c 128,-1,2
 163 168 163 168 128 168 c 256,3,4
 93 168 93 168 69 191.5 c 128,-1,5
 45 215 45 215 45 250 c 256,6,7
 45 285 45 285 69 308.5 c 128,-1,8
 93 332 93 332 128 332 c 256,9,10
 163 332 163 332 186.5 308.5 c 128,-1,11
 210 285 210 285 210 250 c 256,0,1
EndSplineSet
Validated: 1
EndChar

StartChar: FL00C2h
Encoding: 194 194 132
Width: 256
GlyphClass: 2
Flags: W
LayerCount: 2
Back
Fore
SplineSet
210 250 m 256,0,1
 210 215 210 215 186.5 191.5 c 128,-1,2
 163 168 163 168 128 168 c 256,3,4
 93 168 93 168 69 191.5 c 128,-1,5
 45 215 45 215 45 250 c 256,6,7
 45 285 45 285 69 308.5 c 128,-1,8
 93 332 93 332 128 332 c 256,9,10
 163 332 163 332 186.5 308.5 c 128,-1,11
 210 285 210 285 210 250 c 256,0,1
EndSplineSet
Validated: 1
EndChar

StartChar: FL00C3h
Encoding: 195 195 133
Width: 256
GlyphClass: 2
Flags: W
LayerCount: 2
Back
Fore
SplineSet
210 250 m 256,0,1
 210 215 210 215 186.5 191.5 c 128,-1,2
 163 168 163 168 128 168 c 256,3,4
 93 168 93 168 69 191.5 c 128,-1,5
 45 215 45 215 45 250 c 256,6,7
 45 285 45 285 69 308.5 c 128,-1,8
 93 332 93 332 128 332 c 256,9,10
 163 332 163 332 186.5 308.5 c 128,-1,11
 210 285 210 285 210 250 c 256,0,1
EndSplineSet
Validated: 1
EndChar

StartChar: FL00C4h
Encoding: 196 196 134
Width: 256
GlyphClass: 2
Flags: W
LayerCount: 2
Back
Fore
SplineSet
210 250 m 256,0,1
 210 215 210 215 186.5 191.5 c 128,-1,2
 163 168 163 168 128 168 c 256,3,4
 93 168 93 168 69 191.5 c 128,-1,5
 45 215 45 215 45 250 c 256,6,7
 45 285 45 285 69 308.5 c 128,-1,8
 93 332 93 332 128 332 c 256,9,10
 163 332 163 332 186.5 308.5 c 128,-1,11
 210 285 210 285 210 250 c 256,0,1
EndSplineSet
Validated: 1
EndChar

StartChar: FL00C5h
Encoding: 197 197 135
Width: 256
GlyphClass: 2
Flags: W
LayerCount: 2
Back
Fore
SplineSet
210 250 m 256,0,1
 210 215 210 215 186.5 191.5 c 128,-1,2
 163 168 163 168 128 168 c 256,3,4
 93 168 93 168 69 191.5 c 128,-1,5
 45 215 45 215 45 250 c 256,6,7
 45 285 45 285 69 308.5 c 128,-1,8
 93 332 93 332 128 332 c 256,9,10
 163 332 163 332 186.5 308.5 c 128,-1,11
 210 285 210 285 210 250 c 256,0,1
EndSplineSet
Validated: 1
EndChar

StartChar: FL00C6h
Encoding: 198 198 136
Width: 256
GlyphClass: 2
Flags: W
LayerCount: 2
Back
Fore
SplineSet
210 250 m 256,0,1
 210 215 210 215 186.5 191.5 c 128,-1,2
 163 168 163 168 128 168 c 256,3,4
 93 168 93 168 69 191.5 c 128,-1,5
 45 215 45 215 45 250 c 256,6,7
 45 285 45 285 69 308.5 c 128,-1,8
 93 332 93 332 128 332 c 256,9,10
 163 332 163 332 186.5 308.5 c 128,-1,11
 210 285 210 285 210 250 c 256,0,1
EndSplineSet
Validated: 1
EndChar

StartChar: FL00C7h
Encoding: 199 199 137
Width: 256
GlyphClass: 2
Flags: W
LayerCount: 2
Back
Fore
SplineSet
210 250 m 256,0,1
 210 215 210 215 186.5 191.5 c 128,-1,2
 163 168 163 168 128 168 c 256,3,4
 93 168 93 168 69 191.5 c 128,-1,5
 45 215 45 215 45 250 c 256,6,7
 45 285 45 285 69 308.5 c 128,-1,8
 93 332 93 332 128 332 c 256,9,10
 163 332 163 332 186.5 308.5 c 128,-1,11
 210 285 210 285 210 250 c 256,0,1
EndSplineSet
Validated: 1
EndChar

StartChar: FL00C8h
Encoding: 200 200 138
Width: 256
GlyphClass: 2
Flags: W
LayerCount: 2
Back
Fore
SplineSet
210 250 m 256,0,1
 210 215 210 215 186.5 191.5 c 128,-1,2
 163 168 163 168 128 168 c 256,3,4
 93 168 93 168 69 191.5 c 128,-1,5
 45 215 45 215 45 250 c 256,6,7
 45 285 45 285 69 308.5 c 128,-1,8
 93 332 93 332 128 332 c 256,9,10
 163 332 163 332 186.5 308.5 c 128,-1,11
 210 285 210 285 210 250 c 256,0,1
EndSplineSet
Validated: 1
EndChar

StartChar: FL00C9h
Encoding: 201 201 139
Width: 256
GlyphClass: 2
Flags: W
LayerCount: 2
Back
Fore
SplineSet
210 250 m 256,0,1
 210 215 210 215 186.5 191.5 c 128,-1,2
 163 168 163 168 128 168 c 256,3,4
 93 168 93 168 69 191.5 c 128,-1,5
 45 215 45 215 45 250 c 256,6,7
 45 285 45 285 69 308.5 c 128,-1,8
 93 332 93 332 128 332 c 256,9,10
 163 332 163 332 186.5 308.5 c 128,-1,11
 210 285 210 285 210 250 c 256,0,1
EndSplineSet
Validated: 1
EndChar

StartChar: FL00CAh
Encoding: 202 202 140
Width: 256
GlyphClass: 2
Flags: W
LayerCount: 2
Back
Fore
SplineSet
210 250 m 256,0,1
 210 215 210 215 186.5 191.5 c 128,-1,2
 163 168 163 168 128 168 c 256,3,4
 93 168 93 168 69 191.5 c 128,-1,5
 45 215 45 215 45 250 c 256,6,7
 45 285 45 285 69 308.5 c 128,-1,8
 93 332 93 332 128 332 c 256,9,10
 163 332 163 332 186.5 308.5 c 128,-1,11
 210 285 210 285 210 250 c 256,0,1
EndSplineSet
Validated: 1
EndChar

StartChar: FL00CBh
Encoding: 203 203 141
Width: 256
GlyphClass: 2
Flags: W
LayerCount: 2
Back
Fore
SplineSet
210 250 m 256,0,1
 210 215 210 215 186.5 191.5 c 128,-1,2
 163 168 163 168 128 168 c 256,3,4
 93 168 93 168 69 191.5 c 128,-1,5
 45 215 45 215 45 250 c 256,6,7
 45 285 45 285 69 308.5 c 128,-1,8
 93 332 93 332 128 332 c 256,9,10
 163 332 163 332 186.5 308.5 c 128,-1,11
 210 285 210 285 210 250 c 256,0,1
EndSplineSet
Validated: 1
EndChar

StartChar: FL00CCh
Encoding: 204 204 142
Width: 256
GlyphClass: 2
Flags: W
LayerCount: 2
Back
Fore
SplineSet
210 250 m 256,0,1
 210 215 210 215 186.5 191.5 c 128,-1,2
 163 168 163 168 128 168 c 256,3,4
 93 168 93 168 69 191.5 c 128,-1,5
 45 215 45 215 45 250 c 256,6,7
 45 285 45 285 69 308.5 c 128,-1,8
 93 332 93 332 128 332 c 256,9,10
 163 332 163 332 186.5 308.5 c 128,-1,11
 210 285 210 285 210 250 c 256,0,1
EndSplineSet
Validated: 1
EndChar

StartChar: FL00CDh
Encoding: 205 205 143
Width: 256
GlyphClass: 2
Flags: W
LayerCount: 2
Back
Fore
SplineSet
210 250 m 256,0,1
 210 215 210 215 186.5 191.5 c 128,-1,2
 163 168 163 168 128 168 c 256,3,4
 93 168 93 168 69 191.5 c 128,-1,5
 45 215 45 215 45 250 c 256,6,7
 45 285 45 285 69 308.5 c 128,-1,8
 93 332 93 332 128 332 c 256,9,10
 163 332 163 332 186.5 308.5 c 128,-1,11
 210 285 210 285 210 250 c 256,0,1
EndSplineSet
Validated: 1
EndChar

StartChar: FL00CEh
Encoding: 206 206 144
Width: 256
GlyphClass: 2
Flags: W
LayerCount: 2
Back
Fore
SplineSet
210 250 m 256,0,1
 210 215 210 215 186.5 191.5 c 128,-1,2
 163 168 163 168 128 168 c 256,3,4
 93 168 93 168 69 191.5 c 128,-1,5
 45 215 45 215 45 250 c 256,6,7
 45 285 45 285 69 308.5 c 128,-1,8
 93 332 93 332 128 332 c 256,9,10
 163 332 163 332 186.5 308.5 c 128,-1,11
 210 285 210 285 210 250 c 256,0,1
EndSplineSet
Validated: 1
EndChar

StartChar: FL00CFh
Encoding: 207 207 145
Width: 256
GlyphClass: 2
Flags: W
LayerCount: 2
Back
Fore
SplineSet
210 250 m 256,0,1
 210 215 210 215 186.5 191.5 c 128,-1,2
 163 168 163 168 128 168 c 256,3,4
 93 168 93 168 69 191.5 c 128,-1,5
 45 215 45 215 45 250 c 256,6,7
 45 285 45 285 69 308.5 c 128,-1,8
 93 332 93 332 128 332 c 256,9,10
 163 332 163 332 186.5 308.5 c 128,-1,11
 210 285 210 285 210 250 c 256,0,1
EndSplineSet
Validated: 1
EndChar

StartChar: FL00D0h
Encoding: 208 208 146
Width: 256
GlyphClass: 2
Flags: W
LayerCount: 2
Back
Fore
SplineSet
210 250 m 256,0,1
 210 215 210 215 186.5 191.5 c 128,-1,2
 163 168 163 168 128 168 c 256,3,4
 93 168 93 168 69 191.5 c 128,-1,5
 45 215 45 215 45 250 c 256,6,7
 45 285 45 285 69 308.5 c 128,-1,8
 93 332 93 332 128 332 c 256,9,10
 163 332 163 332 186.5 308.5 c 128,-1,11
 210 285 210 285 210 250 c 256,0,1
EndSplineSet
Validated: 1
EndChar

StartChar: FL00D1h
Encoding: 209 209 147
Width: 256
GlyphClass: 2
Flags: W
LayerCount: 2
Back
Fore
SplineSet
210 250 m 256,0,1
 210 215 210 215 186.5 191.5 c 128,-1,2
 163 168 163 168 128 168 c 256,3,4
 93 168 93 168 69 191.5 c 128,-1,5
 45 215 45 215 45 250 c 256,6,7
 45 285 45 285 69 308.5 c 128,-1,8
 93 332 93 332 128 332 c 256,9,10
 163 332 163 332 186.5 308.5 c 128,-1,11
 210 285 210 285 210 250 c 256,0,1
EndSplineSet
Validated: 1
EndChar

StartChar: Ograve
Encoding: 210 210 148
Width: 256
GlyphClass: 2
Flags: W
LayerCount: 2
Back
Fore
SplineSet
210 250 m 256,0,1
 210 215 210 215 186.5 191.5 c 128,-1,2
 163 168 163 168 128 168 c 256,3,4
 93 168 93 168 69 191.5 c 128,-1,5
 45 215 45 215 45 250 c 256,6,7
 45 285 45 285 69 308.5 c 128,-1,8
 93 332 93 332 128 332 c 256,9,10
 163 332 163 332 186.5 308.5 c 128,-1,11
 210 285 210 285 210 250 c 256,0,1
EndSplineSet
Validated: 1
EndChar

StartChar: FL00D3h
Encoding: 211 211 149
Width: 256
GlyphClass: 2
Flags: W
LayerCount: 2
Back
Fore
SplineSet
210 250 m 256,0,1
 210 215 210 215 186.5 191.5 c 128,-1,2
 163 168 163 168 128 168 c 256,3,4
 93 168 93 168 69 191.5 c 128,-1,5
 45 215 45 215 45 250 c 256,6,7
 45 285 45 285 69 308.5 c 128,-1,8
 93 332 93 332 128 332 c 256,9,10
 163 332 163 332 186.5 308.5 c 128,-1,11
 210 285 210 285 210 250 c 256,0,1
EndSplineSet
Validated: 1
EndChar

StartChar: FL00D4h
Encoding: 212 212 150
Width: 256
GlyphClass: 2
Flags: W
LayerCount: 2
Back
Fore
SplineSet
210 250 m 256,0,1
 210 215 210 215 186.5 191.5 c 128,-1,2
 163 168 163 168 128 168 c 256,3,4
 93 168 93 168 69 191.5 c 128,-1,5
 45 215 45 215 45 250 c 256,6,7
 45 285 45 285 69 308.5 c 128,-1,8
 93 332 93 332 128 332 c 256,9,10
 163 332 163 332 186.5 308.5 c 128,-1,11
 210 285 210 285 210 250 c 256,0,1
EndSplineSet
Validated: 1
EndChar

StartChar: FL00D5h
Encoding: 213 213 151
Width: 256
GlyphClass: 2
Flags: W
LayerCount: 2
Back
Fore
SplineSet
210 250 m 256,0,1
 210 215 210 215 186.5 191.5 c 128,-1,2
 163 168 163 168 128 168 c 256,3,4
 93 168 93 168 69 191.5 c 128,-1,5
 45 215 45 215 45 250 c 256,6,7
 45 285 45 285 69 308.5 c 128,-1,8
 93 332 93 332 128 332 c 256,9,10
 163 332 163 332 186.5 308.5 c 128,-1,11
 210 285 210 285 210 250 c 256,0,1
EndSplineSet
Validated: 1
EndChar

StartChar: FL00D6h
Encoding: 214 214 152
Width: 256
GlyphClass: 2
Flags: W
LayerCount: 2
Back
Fore
SplineSet
210 250 m 256,0,1
 210 215 210 215 186.5 191.5 c 128,-1,2
 163 168 163 168 128 168 c 256,3,4
 93 168 93 168 69 191.5 c 128,-1,5
 45 215 45 215 45 250 c 256,6,7
 45 285 45 285 69 308.5 c 128,-1,8
 93 332 93 332 128 332 c 256,9,10
 163 332 163 332 186.5 308.5 c 128,-1,11
 210 285 210 285 210 250 c 256,0,1
EndSplineSet
Validated: 1
EndChar

StartChar: FL00D7h
Encoding: 215 215 153
Width: 506
GlyphClass: 2
Flags: W
LayerCount: 2
Back
Fore
SplineSet
416 98 m 1,0,1
 427 87 427 87 426 75 c 128,-1,2
 425 63 425 63 417 55 c 128,-1,3
 409 47 409 47 397 46 c 128,-1,4
 385 45 385 45 374 56 c 2,5,-1
 255 175 l 1,6,-1
 138 58 l 2,7,8
 127 48 127 48 115 49 c 128,-1,9
 103 50 103 50 95 58 c 128,-1,10
 87 66 87 66 86 78 c 128,-1,11
 85 90 85 90 96 100 c 2,12,-1
 212 217 l 1,13,-1
 96 333 l 2,14,15
 85 344 85 344 86.5 356 c 128,-1,16
 88 368 88 368 96 376 c 128,-1,17
 104 384 104 384 116 385.5 c 128,-1,18
 128 387 128 387 139 376 c 2,19,-1
 255 260 l 1,20,-1
 372 377 l 2,21,22
 383 388 383 388 394.5 386.5 c 128,-1,23
 406 385 406 385 414 377 c 128,-1,24
 422 369 422 369 423.5 357 c 128,-1,25
 425 345 425 345 414 334 c 2,26,-1
 297 217 l 1,27,-1
 416 98 l 1,28,-1
 416 98 l 1,0,1
EndSplineSet
Validated: 5
EndChar

StartChar: FL00D8h
Encoding: 216 216 154
Width: 256
GlyphClass: 2
Flags: W
LayerCount: 2
Back
Fore
SplineSet
210 250 m 256,0,1
 210 215 210 215 186.5 191.5 c 128,-1,2
 163 168 163 168 128 168 c 256,3,4
 93 168 93 168 69 191.5 c 128,-1,5
 45 215 45 215 45 250 c 256,6,7
 45 285 45 285 69 308.5 c 128,-1,8
 93 332 93 332 128 332 c 256,9,10
 163 332 163 332 186.5 308.5 c 128,-1,11
 210 285 210 285 210 250 c 256,0,1
EndSplineSet
Validated: 1
EndChar

StartChar: FL00D9h
Encoding: 217 217 155
Width: 256
GlyphClass: 2
Flags: W
LayerCount: 2
Back
Fore
SplineSet
210 250 m 256,0,1
 210 215 210 215 186.5 191.5 c 128,-1,2
 163 168 163 168 128 168 c 256,3,4
 93 168 93 168 69 191.5 c 128,-1,5
 45 215 45 215 45 250 c 256,6,7
 45 285 45 285 69 308.5 c 128,-1,8
 93 332 93 332 128 332 c 256,9,10
 163 332 163 332 186.5 308.5 c 128,-1,11
 210 285 210 285 210 250 c 256,0,1
EndSplineSet
Validated: 1
EndChar

StartChar: FL00DAh
Encoding: 218 218 156
Width: 256
GlyphClass: 2
Flags: W
LayerCount: 2
Back
Fore
SplineSet
210 250 m 256,0,1
 210 215 210 215 186.5 191.5 c 128,-1,2
 163 168 163 168 128 168 c 256,3,4
 93 168 93 168 69 191.5 c 128,-1,5
 45 215 45 215 45 250 c 256,6,7
 45 285 45 285 69 308.5 c 128,-1,8
 93 332 93 332 128 332 c 256,9,10
 163 332 163 332 186.5 308.5 c 128,-1,11
 210 285 210 285 210 250 c 256,0,1
EndSplineSet
Validated: 1
EndChar

StartChar: FL00DBh
Encoding: 219 219 157
Width: 256
GlyphClass: 2
Flags: W
LayerCount: 2
Back
Fore
SplineSet
210 250 m 256,0,1
 210 215 210 215 186.5 191.5 c 128,-1,2
 163 168 163 168 128 168 c 256,3,4
 93 168 93 168 69 191.5 c 128,-1,5
 45 215 45 215 45 250 c 256,6,7
 45 285 45 285 69 308.5 c 128,-1,8
 93 332 93 332 128 332 c 256,9,10
 163 332 163 332 186.5 308.5 c 128,-1,11
 210 285 210 285 210 250 c 256,0,1
EndSplineSet
Validated: 1
EndChar

StartChar: FL00DCh
Encoding: 220 220 158
Width: 256
GlyphClass: 2
Flags: W
LayerCount: 2
Back
Fore
SplineSet
210 250 m 256,0,1
 210 215 210 215 186.5 191.5 c 128,-1,2
 163 168 163 168 128 168 c 256,3,4
 93 168 93 168 69 191.5 c 128,-1,5
 45 215 45 215 45 250 c 256,6,7
 45 285 45 285 69 308.5 c 128,-1,8
 93 332 93 332 128 332 c 256,9,10
 163 332 163 332 186.5 308.5 c 128,-1,11
 210 285 210 285 210 250 c 256,0,1
EndSplineSet
Validated: 1
EndChar

StartChar: FL00DDh
Encoding: 221 221 159
Width: 256
GlyphClass: 2
Flags: W
LayerCount: 2
Back
Fore
SplineSet
210 250 m 256,0,1
 210 215 210 215 186.5 191.5 c 128,-1,2
 163 168 163 168 128 168 c 256,3,4
 93 168 93 168 69 191.5 c 128,-1,5
 45 215 45 215 45 250 c 256,6,7
 45 285 45 285 69 308.5 c 128,-1,8
 93 332 93 332 128 332 c 256,9,10
 163 332 163 332 186.5 308.5 c 128,-1,11
 210 285 210 285 210 250 c 256,0,1
EndSplineSet
Validated: 1
EndChar

StartChar: fi
Encoding: 222 222 160
Width: 256
GlyphClass: 2
Flags: W
LayerCount: 2
Back
Fore
SplineSet
210 250 m 256,0,1
 210 215 210 215 186.5 191.5 c 128,-1,2
 163 168 163 168 128 168 c 256,3,4
 93 168 93 168 69 191.5 c 128,-1,5
 45 215 45 215 45 250 c 256,6,7
 45 285 45 285 69 308.5 c 128,-1,8
 93 332 93 332 128 332 c 256,9,10
 163 332 163 332 186.5 308.5 c 128,-1,11
 210 285 210 285 210 250 c 256,0,1
EndSplineSet
Validated: 1
EndChar

StartChar: FL00DFh
Encoding: 223 223 161
Width: 256
GlyphClass: 2
Flags: W
LayerCount: 2
Back
Fore
SplineSet
210 250 m 256,0,1
 210 215 210 215 186.5 191.5 c 128,-1,2
 163 168 163 168 128 168 c 256,3,4
 93 168 93 168 69 191.5 c 128,-1,5
 45 215 45 215 45 250 c 256,6,7
 45 285 45 285 69 308.5 c 128,-1,8
 93 332 93 332 128 332 c 256,9,10
 163 332 163 332 186.5 308.5 c 128,-1,11
 210 285 210 285 210 250 c 256,0,1
EndSplineSet
Validated: 1
EndChar

StartChar: FL00E0h
Encoding: 224 224 162
Width: 256
GlyphClass: 2
Flags: W
LayerCount: 2
Back
Fore
SplineSet
210 250 m 256,0,1
 210 215 210 215 186.5 191.5 c 128,-1,2
 163 168 163 168 128 168 c 256,3,4
 93 168 93 168 69 191.5 c 128,-1,5
 45 215 45 215 45 250 c 256,6,7
 45 285 45 285 69 308.5 c 128,-1,8
 93 332 93 332 128 332 c 256,9,10
 163 332 163 332 186.5 308.5 c 128,-1,11
 210 285 210 285 210 250 c 256,0,1
EndSplineSet
Validated: 1
EndChar

StartChar: FL00E1h
Encoding: 225 225 163
Width: 256
GlyphClass: 2
Flags: W
LayerCount: 2
Back
Fore
SplineSet
210 250 m 256,0,1
 210 215 210 215 186.5 191.5 c 128,-1,2
 163 168 163 168 128 168 c 256,3,4
 93 168 93 168 69 191.5 c 128,-1,5
 45 215 45 215 45 250 c 256,6,7
 45 285 45 285 69 308.5 c 128,-1,8
 93 332 93 332 128 332 c 256,9,10
 163 332 163 332 186.5 308.5 c 128,-1,11
 210 285 210 285 210 250 c 256,0,1
EndSplineSet
Validated: 1
EndChar

StartChar: FL00E2h
Encoding: 226 226 164
Width: 256
GlyphClass: 2
Flags: W
LayerCount: 2
Back
Fore
SplineSet
210 250 m 256,0,1
 210 215 210 215 186.5 191.5 c 128,-1,2
 163 168 163 168 128 168 c 256,3,4
 93 168 93 168 69 191.5 c 128,-1,5
 45 215 45 215 45 250 c 256,6,7
 45 285 45 285 69 308.5 c 128,-1,8
 93 332 93 332 128 332 c 256,9,10
 163 332 163 332 186.5 308.5 c 128,-1,11
 210 285 210 285 210 250 c 256,0,1
EndSplineSet
Validated: 1
EndChar

StartChar: FL00E3h
Encoding: 227 227 165
Width: 256
GlyphClass: 2
Flags: W
LayerCount: 2
Back
Fore
SplineSet
210 250 m 256,0,1
 210 215 210 215 186.5 191.5 c 128,-1,2
 163 168 163 168 128 168 c 256,3,4
 93 168 93 168 69 191.5 c 128,-1,5
 45 215 45 215 45 250 c 256,6,7
 45 285 45 285 69 308.5 c 128,-1,8
 93 332 93 332 128 332 c 256,9,10
 163 332 163 332 186.5 308.5 c 128,-1,11
 210 285 210 285 210 250 c 256,0,1
EndSplineSet
Validated: 1
EndChar

StartChar: FL00E4h
Encoding: 228 228 166
Width: 256
GlyphClass: 2
Flags: W
LayerCount: 2
Back
Fore
SplineSet
210 250 m 256,0,1
 210 215 210 215 186.5 191.5 c 128,-1,2
 163 168 163 168 128 168 c 256,3,4
 93 168 93 168 69 191.5 c 128,-1,5
 45 215 45 215 45 250 c 256,6,7
 45 285 45 285 69 308.5 c 128,-1,8
 93 332 93 332 128 332 c 256,9,10
 163 332 163 332 186.5 308.5 c 128,-1,11
 210 285 210 285 210 250 c 256,0,1
EndSplineSet
Validated: 1
EndChar

StartChar: FL00E5h
Encoding: 229 229 167
Width: 256
GlyphClass: 2
Flags: W
LayerCount: 2
Back
Fore
SplineSet
210 250 m 256,0,1
 210 215 210 215 186.5 191.5 c 128,-1,2
 163 168 163 168 128 168 c 256,3,4
 93 168 93 168 69 191.5 c 128,-1,5
 45 215 45 215 45 250 c 256,6,7
 45 285 45 285 69 308.5 c 128,-1,8
 93 332 93 332 128 332 c 256,9,10
 163 332 163 332 186.5 308.5 c 128,-1,11
 210 285 210 285 210 250 c 256,0,1
EndSplineSet
Validated: 1
EndChar

StartChar: FL00E6h
Encoding: 230 230 168
Width: 256
GlyphClass: 2
Flags: W
LayerCount: 2
Back
Fore
SplineSet
210 250 m 256,0,1
 210 215 210 215 186.5 191.5 c 128,-1,2
 163 168 163 168 128 168 c 256,3,4
 93 168 93 168 69 191.5 c 128,-1,5
 45 215 45 215 45 250 c 256,6,7
 45 285 45 285 69 308.5 c 128,-1,8
 93 332 93 332 128 332 c 256,9,10
 163 332 163 332 186.5 308.5 c 128,-1,11
 210 285 210 285 210 250 c 256,0,1
EndSplineSet
Validated: 1
EndChar

StartChar: FL00E7h
Encoding: 231 231 169
Width: 256
GlyphClass: 2
Flags: W
LayerCount: 2
Back
Fore
SplineSet
210 250 m 256,0,1
 210 215 210 215 186.5 191.5 c 128,-1,2
 163 168 163 168 128 168 c 256,3,4
 93 168 93 168 69 191.5 c 128,-1,5
 45 215 45 215 45 250 c 256,6,7
 45 285 45 285 69 308.5 c 128,-1,8
 93 332 93 332 128 332 c 256,9,10
 163 332 163 332 186.5 308.5 c 128,-1,11
 210 285 210 285 210 250 c 256,0,1
EndSplineSet
Validated: 1
EndChar

StartChar: FL00E8h
Encoding: 232 232 170
Width: 256
GlyphClass: 2
Flags: W
LayerCount: 2
Back
Fore
SplineSet
210 250 m 256,0,1
 210 215 210 215 186.5 191.5 c 128,-1,2
 163 168 163 168 128 168 c 256,3,4
 93 168 93 168 69 191.5 c 128,-1,5
 45 215 45 215 45 250 c 256,6,7
 45 285 45 285 69 308.5 c 128,-1,8
 93 332 93 332 128 332 c 256,9,10
 163 332 163 332 186.5 308.5 c 128,-1,11
 210 285 210 285 210 250 c 256,0,1
EndSplineSet
Validated: 1
EndChar

StartChar: FL00E9h
Encoding: 233 233 171
Width: 256
GlyphClass: 2
Flags: W
LayerCount: 2
Back
Fore
SplineSet
210 250 m 256,0,1
 210 215 210 215 186.5 191.5 c 128,-1,2
 163 168 163 168 128 168 c 256,3,4
 93 168 93 168 69 191.5 c 128,-1,5
 45 215 45 215 45 250 c 256,6,7
 45 285 45 285 69 308.5 c 128,-1,8
 93 332 93 332 128 332 c 256,9,10
 163 332 163 332 186.5 308.5 c 128,-1,11
 210 285 210 285 210 250 c 256,0,1
EndSplineSet
Validated: 1
EndChar

StartChar: FL00EAh
Encoding: 234 234 172
Width: 256
GlyphClass: 2
Flags: W
LayerCount: 2
Back
Fore
SplineSet
210 250 m 256,0,1
 210 215 210 215 186.5 191.5 c 128,-1,2
 163 168 163 168 128 168 c 256,3,4
 93 168 93 168 69 191.5 c 128,-1,5
 45 215 45 215 45 250 c 256,6,7
 45 285 45 285 69 308.5 c 128,-1,8
 93 332 93 332 128 332 c 256,9,10
 163 332 163 332 186.5 308.5 c 128,-1,11
 210 285 210 285 210 250 c 256,0,1
EndSplineSet
Validated: 1
EndChar

StartChar: FL00EBh
Encoding: 235 235 173
Width: 256
GlyphClass: 2
Flags: W
LayerCount: 2
Back
Fore
SplineSet
210 250 m 256,0,1
 210 215 210 215 186.5 191.5 c 128,-1,2
 163 168 163 168 128 168 c 256,3,4
 93 168 93 168 69 191.5 c 128,-1,5
 45 215 45 215 45 250 c 256,6,7
 45 285 45 285 69 308.5 c 128,-1,8
 93 332 93 332 128 332 c 256,9,10
 163 332 163 332 186.5 308.5 c 128,-1,11
 210 285 210 285 210 250 c 256,0,1
EndSplineSet
Validated: 1
EndChar

StartChar: FL00ECh
Encoding: 236 236 174
Width: 256
GlyphClass: 2
Flags: W
LayerCount: 2
Back
Fore
SplineSet
210 250 m 256,0,1
 210 215 210 215 186.5 191.5 c 128,-1,2
 163 168 163 168 128 168 c 256,3,4
 93 168 93 168 69 191.5 c 128,-1,5
 45 215 45 215 45 250 c 256,6,7
 45 285 45 285 69 308.5 c 128,-1,8
 93 332 93 332 128 332 c 256,9,10
 163 332 163 332 186.5 308.5 c 128,-1,11
 210 285 210 285 210 250 c 256,0,1
EndSplineSet
Validated: 1
EndChar

StartChar: FL00EDh
Encoding: 237 237 175
Width: 256
GlyphClass: 2
Flags: W
LayerCount: 2
Back
Fore
SplineSet
210 250 m 256,0,1
 210 215 210 215 186.5 191.5 c 128,-1,2
 163 168 163 168 128 168 c 256,3,4
 93 168 93 168 69 191.5 c 128,-1,5
 45 215 45 215 45 250 c 256,6,7
 45 285 45 285 69 308.5 c 128,-1,8
 93 332 93 332 128 332 c 256,9,10
 163 332 163 332 186.5 308.5 c 128,-1,11
 210 285 210 285 210 250 c 256,0,1
EndSplineSet
Validated: 1
EndChar

StartChar: FL00EEh
Encoding: 238 238 176
Width: 256
GlyphClass: 2
Flags: W
LayerCount: 2
Back
Fore
SplineSet
210 250 m 256,0,1
 210 215 210 215 186.5 191.5 c 128,-1,2
 163 168 163 168 128 168 c 256,3,4
 93 168 93 168 69 191.5 c 128,-1,5
 45 215 45 215 45 250 c 256,6,7
 45 285 45 285 69 308.5 c 128,-1,8
 93 332 93 332 128 332 c 256,9,10
 163 332 163 332 186.5 308.5 c 128,-1,11
 210 285 210 285 210 250 c 256,0,1
EndSplineSet
Validated: 1
EndChar

StartChar: FL00EFh
Encoding: 239 239 177
Width: 256
GlyphClass: 2
Flags: W
LayerCount: 2
Back
Fore
SplineSet
210 250 m 256,0,1
 210 215 210 215 186.5 191.5 c 128,-1,2
 163 168 163 168 128 168 c 256,3,4
 93 168 93 168 69 191.5 c 128,-1,5
 45 215 45 215 45 250 c 256,6,7
 45 285 45 285 69 308.5 c 128,-1,8
 93 332 93 332 128 332 c 256,9,10
 163 332 163 332 186.5 308.5 c 128,-1,11
 210 285 210 285 210 250 c 256,0,1
EndSplineSet
Validated: 1
EndChar

StartChar: FL00F0h
Encoding: 240 240 178
Width: 256
GlyphClass: 2
Flags: W
LayerCount: 2
Back
Fore
SplineSet
210 250 m 256,0,1
 210 215 210 215 186.5 191.5 c 128,-1,2
 163 168 163 168 128 168 c 256,3,4
 93 168 93 168 69 191.5 c 128,-1,5
 45 215 45 215 45 250 c 256,6,7
 45 285 45 285 69 308.5 c 128,-1,8
 93 332 93 332 128 332 c 256,9,10
 163 332 163 332 186.5 308.5 c 128,-1,11
 210 285 210 285 210 250 c 256,0,1
EndSplineSet
Validated: 1
EndChar

StartChar: FL00F1h
Encoding: 241 241 179
Width: 256
GlyphClass: 2
Flags: W
LayerCount: 2
Back
Fore
SplineSet
210 250 m 256,0,1
 210 215 210 215 186.5 191.5 c 128,-1,2
 163 168 163 168 128 168 c 256,3,4
 93 168 93 168 69 191.5 c 128,-1,5
 45 215 45 215 45 250 c 256,6,7
 45 285 45 285 69 308.5 c 128,-1,8
 93 332 93 332 128 332 c 256,9,10
 163 332 163 332 186.5 308.5 c 128,-1,11
 210 285 210 285 210 250 c 256,0,1
EndSplineSet
Validated: 1
EndChar

StartChar: FL00F2h
Encoding: 242 242 180
Width: 256
GlyphClass: 2
Flags: W
LayerCount: 2
Back
Fore
SplineSet
210 250 m 256,0,1
 210 215 210 215 186.5 191.5 c 128,-1,2
 163 168 163 168 128 168 c 256,3,4
 93 168 93 168 69 191.5 c 128,-1,5
 45 215 45 215 45 250 c 256,6,7
 45 285 45 285 69 308.5 c 128,-1,8
 93 332 93 332 128 332 c 256,9,10
 163 332 163 332 186.5 308.5 c 128,-1,11
 210 285 210 285 210 250 c 256,0,1
EndSplineSet
Validated: 1
EndChar

StartChar: FL00F3h
Encoding: 243 243 181
Width: 256
GlyphClass: 2
Flags: W
LayerCount: 2
Back
Fore
SplineSet
210 250 m 256,0,1
 210 215 210 215 186.5 191.5 c 128,-1,2
 163 168 163 168 128 168 c 256,3,4
 93 168 93 168 69 191.5 c 128,-1,5
 45 215 45 215 45 250 c 256,6,7
 45 285 45 285 69 308.5 c 128,-1,8
 93 332 93 332 128 332 c 256,9,10
 163 332 163 332 186.5 308.5 c 128,-1,11
 210 285 210 285 210 250 c 256,0,1
EndSplineSet
Validated: 1
EndChar

StartChar: FL00F4h
Encoding: 244 244 182
Width: 256
GlyphClass: 2
Flags: W
LayerCount: 2
Back
Fore
SplineSet
210 250 m 256,0,1
 210 215 210 215 186.5 191.5 c 128,-1,2
 163 168 163 168 128 168 c 256,3,4
 93 168 93 168 69 191.5 c 128,-1,5
 45 215 45 215 45 250 c 256,6,7
 45 285 45 285 69 308.5 c 128,-1,8
 93 332 93 332 128 332 c 256,9,10
 163 332 163 332 186.5 308.5 c 128,-1,11
 210 285 210 285 210 250 c 256,0,1
EndSplineSet
Validated: 1
EndChar

StartChar: FL00F5h
Encoding: 245 245 183
Width: 256
GlyphClass: 2
Flags: W
LayerCount: 2
Back
Fore
SplineSet
210 250 m 256,0,1
 210 215 210 215 186.5 191.5 c 128,-1,2
 163 168 163 168 128 168 c 256,3,4
 93 168 93 168 69 191.5 c 128,-1,5
 45 215 45 215 45 250 c 256,6,7
 45 285 45 285 69 308.5 c 128,-1,8
 93 332 93 332 128 332 c 256,9,10
 163 332 163 332 186.5 308.5 c 128,-1,11
 210 285 210 285 210 250 c 256,0,1
EndSplineSet
Validated: 1
EndChar

StartChar: FL00F6h
Encoding: 246 246 184
Width: 256
GlyphClass: 2
Flags: W
LayerCount: 2
Back
Fore
SplineSet
210 250 m 256,0,1
 210 215 210 215 186.5 191.5 c 128,-1,2
 163 168 163 168 128 168 c 256,3,4
 93 168 93 168 69 191.5 c 128,-1,5
 45 215 45 215 45 250 c 256,6,7
 45 285 45 285 69 308.5 c 128,-1,8
 93 332 93 332 128 332 c 256,9,10
 163 332 163 332 186.5 308.5 c 128,-1,11
 210 285 210 285 210 250 c 256,0,1
EndSplineSet
Validated: 1
EndChar

StartChar: FL00F7h
Encoding: 247 247 185
Width: 475
GlyphClass: 2
Flags: W
LayerCount: 2
Back
Fore
SplineSet
279 375 m 256,0,1
 279 358 279 358 267.5 346.5 c 128,-1,2
 256 335 256 335 239 335 c 256,3,4
 222 335 222 335 211 346.5 c 128,-1,5
 200 358 200 358 200 375 c 256,6,7
 200 392 200 392 211 403.5 c 128,-1,8
 222 415 222 415 239 415 c 256,9,10
 256 415 256 415 267.5 403.5 c 128,-1,11
 279 392 279 392 279 375 c 256,0,1
88 215 m 2,12,13
 73 215 73 215 65.5 224.5 c 128,-1,14
 58 234 58 234 58 245 c 128,-1,15
 58 256 58 256 65.5 265.5 c 128,-1,16
 73 275 73 275 88 275 c 2,17,-1
 389 275 l 2,18,19
 404 275 404 275 411.5 265.5 c 128,-1,20
 419 256 419 256 419 245 c 128,-1,21
 419 234 419 234 411.5 224.5 c 128,-1,22
 404 215 404 215 389 215 c 2,23,-1
 88 215 l 2,12,13
279 113 m 256,24,25
 279 96 279 96 267.5 84.5 c 128,-1,26
 256 73 256 73 239 73 c 256,27,28
 222 73 222 73 211 84.5 c 128,-1,29
 200 96 200 96 200 113 c 256,30,31
 200 130 200 130 211 141.5 c 128,-1,32
 222 153 222 153 239 153 c 256,33,34
 256 153 256 153 267.5 141.5 c 128,-1,35
 279 130 279 130 279 113 c 256,24,25
EndSplineSet
Validated: 1
EndChar

StartChar: FL00F8h
Encoding: 248 248 186
Width: 256
GlyphClass: 2
Flags: W
LayerCount: 2
Back
Fore
SplineSet
210 250 m 256,0,1
 210 215 210 215 186.5 191.5 c 128,-1,2
 163 168 163 168 128 168 c 256,3,4
 93 168 93 168 69 191.5 c 128,-1,5
 45 215 45 215 45 250 c 256,6,7
 45 285 45 285 69 308.5 c 128,-1,8
 93 332 93 332 128 332 c 256,9,10
 163 332 163 332 186.5 308.5 c 128,-1,11
 210 285 210 285 210 250 c 256,0,1
EndSplineSet
Validated: 1
EndChar

StartChar: FL00F9h
Encoding: 249 249 187
Width: 256
GlyphClass: 2
Flags: W
LayerCount: 2
Back
Fore
SplineSet
210 250 m 256,0,1
 210 215 210 215 186.5 191.5 c 128,-1,2
 163 168 163 168 128 168 c 256,3,4
 93 168 93 168 69 191.5 c 128,-1,5
 45 215 45 215 45 250 c 256,6,7
 45 285 45 285 69 308.5 c 128,-1,8
 93 332 93 332 128 332 c 256,9,10
 163 332 163 332 186.5 308.5 c 128,-1,11
 210 285 210 285 210 250 c 256,0,1
EndSplineSet
Validated: 1
EndChar

StartChar: FL00FAh
Encoding: 250 250 188
Width: 256
GlyphClass: 2
Flags: W
LayerCount: 2
Back
Fore
SplineSet
210 250 m 256,0,1
 210 215 210 215 186.5 191.5 c 128,-1,2
 163 168 163 168 128 168 c 256,3,4
 93 168 93 168 69 191.5 c 128,-1,5
 45 215 45 215 45 250 c 256,6,7
 45 285 45 285 69 308.5 c 128,-1,8
 93 332 93 332 128 332 c 256,9,10
 163 332 163 332 186.5 308.5 c 128,-1,11
 210 285 210 285 210 250 c 256,0,1
EndSplineSet
Validated: 1
EndChar

StartChar: FL00FBh
Encoding: 251 251 189
Width: 256
GlyphClass: 2
Flags: W
LayerCount: 2
Back
Fore
SplineSet
210 250 m 256,0,1
 210 215 210 215 186.5 191.5 c 128,-1,2
 163 168 163 168 128 168 c 256,3,4
 93 168 93 168 69 191.5 c 128,-1,5
 45 215 45 215 45 250 c 256,6,7
 45 285 45 285 69 308.5 c 128,-1,8
 93 332 93 332 128 332 c 256,9,10
 163 332 163 332 186.5 308.5 c 128,-1,11
 210 285 210 285 210 250 c 256,0,1
EndSplineSet
Validated: 1
EndChar

StartChar: FL00FCh
Encoding: 252 252 190
Width: 256
GlyphClass: 2
Flags: W
LayerCount: 2
Back
Fore
SplineSet
210 250 m 256,0,1
 210 215 210 215 186.5 191.5 c 128,-1,2
 163 168 163 168 128 168 c 256,3,4
 93 168 93 168 69 191.5 c 128,-1,5
 45 215 45 215 45 250 c 256,6,7
 45 285 45 285 69 308.5 c 128,-1,8
 93 332 93 332 128 332 c 256,9,10
 163 332 163 332 186.5 308.5 c 128,-1,11
 210 285 210 285 210 250 c 256,0,1
EndSplineSet
Validated: 1
EndChar

StartChar: FL00FDh
Encoding: 253 253 191
Width: 256
GlyphClass: 2
Flags: W
LayerCount: 2
Back
Fore
SplineSet
210 250 m 256,0,1
 210 215 210 215 186.5 191.5 c 128,-1,2
 163 168 163 168 128 168 c 256,3,4
 93 168 93 168 69 191.5 c 128,-1,5
 45 215 45 215 45 250 c 256,6,7
 45 285 45 285 69 308.5 c 128,-1,8
 93 332 93 332 128 332 c 256,9,10
 163 332 163 332 186.5 308.5 c 128,-1,11
 210 285 210 285 210 250 c 256,0,1
EndSplineSet
Validated: 1
EndChar

StartChar: ogonek
Encoding: 254 254 192
Width: 256
GlyphClass: 2
Flags: W
LayerCount: 2
Back
Fore
SplineSet
210 250 m 256,0,1
 210 215 210 215 186.5 191.5 c 128,-1,2
 163 168 163 168 128 168 c 256,3,4
 93 168 93 168 69 191.5 c 128,-1,5
 45 215 45 215 45 250 c 256,6,7
 45 285 45 285 69 308.5 c 128,-1,8
 93 332 93 332 128 332 c 256,9,10
 163 332 163 332 186.5 308.5 c 128,-1,11
 210 285 210 285 210 250 c 256,0,1
EndSplineSet
Validated: 1
EndChar

StartChar: FL00FFh
Encoding: 255 255 193
Width: 256
GlyphClass: 2
Flags: W
LayerCount: 2
Back
Fore
SplineSet
210 250 m 256,0,1
 210 215 210 215 186.5 191.5 c 128,-1,2
 163 168 163 168 128 168 c 256,3,4
 93 168 93 168 69 191.5 c 128,-1,5
 45 215 45 215 45 250 c 256,6,7
 45 285 45 285 69 308.5 c 128,-1,8
 93 332 93 332 128 332 c 256,9,10
 163 332 163 332 186.5 308.5 c 128,-1,11
 210 285 210 285 210 250 c 256,0,1
EndSplineSet
Validated: 1
EndChar

StartChar: aring
Encoding: 338 338 194
Width: 818
GlyphClass: 2
Flags: W
LayerCount: 2
Back
Fore
SplineSet
389 0 m 2,0,1
 383 0 383 0 375 2 c 1,2,3
 355 -8 355 -8 335 -12 c 128,-1,4
 315 -16 315 -16 288 -16 c 0,5,6
 229 -16 229 -16 184 11 c 128,-1,7
 139 38 139 38 109 82 c 128,-1,8
 79 126 79 126 64 182 c 128,-1,9
 49 238 49 238 49 295 c 0,10,11
 49 351 49 351 63.5 407 c 128,-1,12
 78 463 78 463 106 508 c 128,-1,13
 134 553 134 553 174.5 581 c 128,-1,14
 215 609 215 609 266 609 c 0,15,16
 298 609 298 609 320 604.5 c 128,-1,17
 342 600 342 600 370 595 c 1,18,19
 378 600 378 600 389 600 c 2,20,-1
 735 600 l 2,21,22
 750 600 750 600 758 590.5 c 128,-1,23
 766 581 766 581 766 570 c 128,-1,24
 766 559 766 559 758 549.5 c 128,-1,25
 750 540 750 540 735 540 c 2,26,-1
 419 540 l 1,27,-1
 419 358 l 1,28,-1
 715 358 l 2,29,30
 730 358 730 358 738 349 c 128,-1,31
 746 340 746 340 746 328.5 c 128,-1,32
 746 317 746 317 738 308 c 128,-1,33
 730 299 730 299 715 299 c 2,34,-1
 419 299 l 1,35,-1
 419 60 l 1,36,-1
 735 60 l 2,37,38
 750 60 750 60 758 50.5 c 128,-1,39
 766 41 766 41 766 30 c 128,-1,40
 766 19 766 19 758 9.5 c 128,-1,41
 750 0 750 0 735 0 c 2,42,-1
 389 0 l 2,0,1
359 536 m 1,43,44
 335 541 335 541 314 545.5 c 128,-1,45
 293 550 293 550 266 550 c 0,46,47
 226 550 226 550 196 526.5 c 128,-1,48
 166 503 166 503 147 466 c 128,-1,49
 128 429 128 429 118.5 384 c 128,-1,50
 109 339 109 339 109 295 c 0,51,52
 109 250 109 250 119.5 205 c 128,-1,53
 130 160 130 160 152 124 c 128,-1,54
 174 88 174 88 208 65.5 c 128,-1,55
 242 43 242 43 288 43 c 0,56,57
 309 43 309 43 325.5 47.5 c 128,-1,58
 342 52 342 52 359 60 c 1,59,-1
 359 536 l 1,43,44
EndSplineSet
Validated: 1
EndChar

StartChar: uacute
Encoding: 339 339 195
Width: 843
GlyphClass: 2
Flags: W
LayerCount: 2
Back
Fore
SplineSet
794 215 m 0,0,1
 796 182 796 182 763 182 c 2,2,-1
 466 182 l 1,3,4
 468 157 468 157 477.5 134.5 c 128,-1,5
 487 112 487 112 504 95.5 c 128,-1,6
 521 79 521 79 546 69.5 c 128,-1,7
 571 60 571 60 605 60 c 0,8,9
 645 60 645 60 674.5 71 c 128,-1,10
 704 82 704 82 730 111 c 0,11,12
 739 123 739 123 751 122.5 c 128,-1,13
 763 122 763 122 772 115 c 128,-1,14
 781 108 781 108 783 96.5 c 128,-1,15
 785 85 785 85 775 74 c 0,16,17
 740 32 740 32 700 16 c 128,-1,18
 660 0 660 0 605 0 c 0,19,20
 539 0 539 0 496.5 24 c 128,-1,21
 454 48 454 48 431 89 c 1,22,23
 402 47 402 47 356.5 21.5 c 128,-1,24
 311 -4 311 -4 256 -4 c 0,25,26
 213 -4 213 -4 175 12 c 128,-1,27
 137 28 137 28 109 56 c 128,-1,28
 81 84 81 84 64.5 121.5 c 128,-1,29
 48 159 48 159 48 202 c 0,30,31
 48 244 48 244 64.5 281.5 c 128,-1,32
 81 319 81 319 109 347 c 128,-1,33
 137 375 137 375 175 391 c 128,-1,34
 213 407 213 407 256 407 c 0,35,36
 313 407 313 407 359 381 c 128,-1,37
 405 355 405 355 433 312 c 1,38,39
 459 357 459 357 504.5 384 c 128,-1,40
 550 411 550 411 607 411 c 0,41,42
 647 411 647 411 680 395 c 128,-1,43
 713 379 713 379 737.5 352 c 128,-1,44
 762 325 762 325 776.5 289.5 c 128,-1,45
 791 254 791 254 794 215 c 0,0,1
728 242 m 1,46,47
 716 288 716 288 685.5 319.5 c 128,-1,48
 655 351 655 351 607 351 c 0,49,50
 554 351 554 351 517.5 320.5 c 128,-1,51
 481 290 481 290 469 242 c 1,52,-1
 728 242 l 1,53,-1
 728 242 l 1,46,47
404 202 m 256,54,55
 404 232 404 232 392.5 258.5 c 128,-1,56
 381 285 381 285 360.5 305 c 128,-1,57
 340 325 340 325 313 336.5 c 128,-1,58
 286 348 286 348 256 348 c 256,59,60
 226 348 226 348 199 336.5 c 128,-1,61
 172 325 172 325 151.5 305 c 128,-1,62
 131 285 131 285 119.5 258.5 c 128,-1,63
 108 232 108 232 108 202 c 256,64,65
 108 172 108 172 119.5 145.5 c 128,-1,66
 131 119 131 119 151.5 99 c 128,-1,67
 172 79 172 79 199 67.5 c 128,-1,68
 226 56 226 56 256 56 c 256,69,70
 286 56 286 56 313 67.5 c 128,-1,71
 340 79 340 79 360.5 99 c 128,-1,72
 381 119 381 119 392.5 145.5 c 128,-1,73
 404 172 404 172 404 202 c 256,54,55
EndSplineSet
Validated: 37
EndChar

StartChar: adieresis
Encoding: 352 352 196
Width: 524
GlyphClass: 2
Flags: W
LayerCount: 2
Back
Fore
SplineSet
270 649 m 2,0,1
 251 633 251 633 231 649 c 2,2,-1
 107 749 l 2,3,4
 95 758 95 758 95.5 770 c 128,-1,5
 96 782 96 782 103 790.5 c 128,-1,6
 110 799 110 799 121.5 801.5 c 128,-1,7
 133 804 133 804 145 794 c 2,8,-1
 251 710 l 1,9,-1
 356 794 l 2,10,11
 368 804 368 804 379.5 801.5 c 128,-1,12
 391 799 391 799 398.5 790.5 c 128,-1,13
 406 782 406 782 406.5 770 c 128,-1,14
 407 758 407 758 395 749 c 2,15,-1
 270 649 l 2,0,1
475 151 m 0,16,17
 475 73 475 73 420 31 c 128,-1,18
 365 -11 365 -11 263 -11 c 0,19,20
 188 -11 188 -11 133.5 24 c 128,-1,21
 79 59 79 59 50 127 c 0,22,23
 45 141 45 141 51 151.5 c 128,-1,24
 57 162 57 162 67.5 166.5 c 128,-1,25
 78 171 78 171 89.5 167 c 128,-1,26
 101 163 101 163 107 149 c 0,27,28
 128 98 128 98 168 74 c 128,-1,29
 208 50 208 50 263 50 c 0,30,31
 333 50 333 50 373.5 73.5 c 128,-1,32
 414 97 414 97 414 151 c 0,33,34
 414 180 414 180 401.5 198.5 c 128,-1,35
 389 217 389 217 368 230 c 128,-1,36
 347 243 347 243 319.5 253.5 c 128,-1,37
 292 264 292 264 262 277 c 0,38,39
 225 294 225 294 188.5 309.5 c 128,-1,40
 152 325 152 325 122.5 345.5 c 128,-1,41
 93 366 93 366 74.5 393 c 128,-1,42
 56 420 56 420 56 460 c 0,43,44
 56 496 56 496 70.5 525 c 128,-1,45
 85 554 85 554 111.5 573.5 c 128,-1,46
 138 593 138 593 175 603.5 c 128,-1,47
 212 614 212 614 257 614 c 0,48,49
 290 614 290 614 319.5 604 c 128,-1,50
 349 594 349 594 374 577.5 c 128,-1,51
 399 561 399 561 418.5 538.5 c 128,-1,52
 438 516 438 516 451 491 c 0,53,54
 457 478 457 478 452.5 467.5 c 128,-1,55
 448 457 448 457 438 451.5 c 128,-1,56
 428 446 428 446 416.5 448 c 128,-1,57
 405 450 405 450 398 463 c 0,58,59
 378 500 378 500 342 527 c 128,-1,60
 306 554 306 554 257 554 c 0,61,62
 227 554 227 554 201.5 548.5 c 128,-1,63
 176 543 176 543 157 531 c 128,-1,64
 138 519 138 519 127 501.5 c 128,-1,65
 116 484 116 484 116 460 c 0,66,67
 116 429 116 429 132 409.5 c 128,-1,68
 148 390 148 390 172.5 377 c 128,-1,69
 197 364 197 364 227 354 c 128,-1,70
 257 344 257 344 285 331 c 0,71,72
 324 314 324 314 359 298 c 128,-1,73
 394 282 394 282 419.5 262 c 128,-1,74
 445 242 445 242 460 215.5 c 128,-1,75
 475 189 475 189 475 151 c 0,16,17
EndSplineSet
Validated: 33
EndChar

StartChar: odieresis
Encoding: 353 353 197
Width: 413
GlyphClass: 2
Flags: W
LayerCount: 2
Back
Fore
SplineSet
221 458 m 2,0,1
 202 443 202 443 182 458 c 2,2,-1
 58 559 l 2,3,4
 46 568 46 568 46.5 579.5 c 128,-1,5
 47 591 47 591 54 599.5 c 128,-1,6
 61 608 61 608 72.5 610.5 c 128,-1,7
 84 613 84 613 96 604 c 2,8,-1
 202 519 l 1,9,-1
 307 604 l 2,10,11
 319 613 319 613 330.5 610.5 c 128,-1,12
 342 608 342 608 349.5 599.5 c 128,-1,13
 357 591 357 591 357 579.5 c 128,-1,14
 357 568 357 568 345 559 c 2,15,-1
 221 458 l 2,0,1
364 113 m 0,16,17
 364 87 364 87 352.5 65.5 c 128,-1,18
 341 44 341 44 321.5 29 c 128,-1,19
 302 14 302 14 277.5 6 c 128,-1,20
 253 -2 253 -2 227 -2 c 0,21,22
 173 -2 173 -2 135.5 10.5 c 128,-1,23
 98 23 98 23 60 55 c 0,24,25
 48 64 48 64 48.5 76 c 128,-1,26
 49 88 49 88 56 96.5 c 128,-1,27
 63 105 63 105 74.5 107.5 c 128,-1,28
 86 110 86 110 98 100 c 0,29,30
 127 77 127 77 156.5 67.5 c 128,-1,31
 186 58 186 58 227 58 c 0,32,33
 254 58 254 58 278.5 72 c 128,-1,34
 303 86 303 86 303 113 c 0,35,36
 303 143 303 143 277.5 158 c 128,-1,37
 252 173 252 173 218 175 c 0,38,39
 188 177 188 177 159 184.5 c 128,-1,40
 130 192 130 192 106.5 206.5 c 128,-1,41
 83 221 83 221 68.5 242 c 128,-1,42
 54 263 54 263 54 292 c 0,43,44
 54 347 54 347 94.5 378.5 c 128,-1,45
 135 410 135 410 203 410 c 0,46,47
 225 410 225 410 242 407.5 c 128,-1,48
 259 405 259 405 275 400.5 c 128,-1,49
 291 396 291 396 306.5 388.5 c 128,-1,50
 322 381 322 381 341 372 c 0,51,52
 355 366 355 366 357 354 c 128,-1,53
 359 342 359 342 354 332 c 128,-1,54
 349 322 349 322 337.5 316.5 c 128,-1,55
 326 311 326 311 313 318 c 0,56,57
 282 335 282 335 259.5 343 c 128,-1,58
 237 351 237 351 203 351 c 0,59,60
 166 351 166 351 140.5 337 c 128,-1,61
 115 323 115 323 115 292 c 0,62,63
 115 275 115 275 125 264.5 c 128,-1,64
 135 254 135 254 151 248 c 128,-1,65
 167 242 167 242 185.5 239.5 c 128,-1,66
 204 237 204 237 222 236 c 0,67,68
 282 231 282 231 323 199.5 c 128,-1,69
 364 168 364 168 364 113 c 0,16,17
EndSplineSet
Validated: 33
EndChar

StartChar: udieresis
Encoding: 376 376 198
Width: 556
GlyphClass: 2
Flags: W
LayerCount: 2
Back
Fore
SplineSet
388 680 m 0,0,1
 388 664 388 664 376.5 652 c 128,-1,2
 365 640 365 640 348 640 c 256,3,4
 331 640 331 640 319.5 652 c 128,-1,5
 308 664 308 664 308 680 c 0,6,7
 308 697 308 697 319.5 708.5 c 128,-1,8
 331 720 331 720 348 720 c 256,9,10
 365 720 365 720 376.5 708.5 c 128,-1,11
 388 697 388 697 388 680 c 0,0,1
237 680 m 256,12,13
 237 663 237 663 225.5 651.5 c 128,-1,14
 214 640 214 640 197 640 c 256,15,16
 180 640 180 640 168.5 651.5 c 128,-1,17
 157 663 157 663 157 680 c 256,18,19
 157 697 157 697 168.5 708.5 c 128,-1,20
 180 720 180 720 197 720 c 256,21,22
 214 720 214 720 225.5 708.5 c 128,-1,23
 237 697 237 697 237 680 c 256,12,13
301 270 m 2,24,25
 301 272 301 272 301 262.5 c 128,-1,26
 301 253 301 253 301.5 235.5 c 128,-1,27
 302 218 302 218 302.5 195.5 c 128,-1,28
 303 173 303 173 304 149 c 0,29,30
 306 93 306 93 307 21 c 0,31,32
 307 6 307 6 297.5 -1.5 c 128,-1,33
 288 -9 288 -9 277 -9 c 128,-1,34
 266 -9 266 -9 256.5 -1.5 c 128,-1,35
 247 6 247 6 247 21 c 2,36,-1
 247 278 l 1,37,-1
 56 559 l 2,38,39
 47 572 47 572 50.5 583.5 c 128,-1,40
 54 595 54 595 63.5 601.5 c 128,-1,41
 73 608 73 608 85 607 c 128,-1,42
 97 606 97 606 105 594 c 2,43,-1
 277 341 l 1,44,-1
 449 594 l 2,45,46
 457 606 457 606 469 607 c 128,-1,47
 481 608 481 608 490.5 601.5 c 128,-1,48
 500 595 500 595 503.5 583.5 c 128,-1,49
 507 572 507 572 498 559 c 2,50,-1
 301 270 l 2,24,25
EndSplineSet
Validated: 1
EndChar

StartChar: FL017Dh
Encoding: 381 381 199
Width: 509
GlyphClass: 2
Flags: W
LayerCount: 2
Back
Fore
SplineSet
285 649 m 2,0,1
 277 641 277 641 266.5 641 c 128,-1,2
 256 641 256 641 247 649 c 2,3,-1
 122 749 l 2,4,5
 110 758 110 758 110.5 770 c 128,-1,6
 111 782 111 782 118.5 790.5 c 128,-1,7
 126 799 126 799 137.5 801.5 c 128,-1,8
 149 804 149 804 161 794 c 2,9,-1
 266 710 l 1,10,-1
 371 794 l 2,11,12
 383 804 383 804 395 801.5 c 128,-1,13
 407 799 407 799 414 790.5 c 128,-1,14
 421 782 421 782 421.5 770 c 128,-1,15
 422 758 422 758 410 749 c 2,16,-1
 285 649 l 2,0,1
139 61 m 1,17,-1
 433 61 l 2,18,19
 448 61 448 61 455.5 51.5 c 128,-1,20
 463 42 463 42 463 30.5 c 128,-1,21
 463 19 463 19 455.5 9.5 c 128,-1,22
 448 0 448 0 433 0 c 2,23,-1
 83 0 l 2,24,25
 60 0 60 0 52.5 13.5 c 128,-1,26
 45 27 45 27 57 47 c 2,27,-1
 368 541 l 1,28,-1
 82 541 l 2,29,30
 67 541 67 541 59 550.5 c 128,-1,31
 51 560 51 560 51 571 c 128,-1,32
 51 582 51 582 59 591.5 c 128,-1,33
 67 601 67 601 82 601 c 2,34,-1
 423 601 l 2,35,36
 447 601 447 601 454.5 588 c 128,-1,37
 462 575 462 575 450 555 c 2,38,-1
 139 61 l 1,17,-1
EndSplineSet
Validated: 33
EndChar

StartChar: FL017Eh
Encoding: 382 382 200
Width: 480
GlyphClass: 2
Flags: W
LayerCount: 2
Back
Fore
SplineSet
264 458 m 2,0,1
 245 443 245 443 225 458 c 2,2,-1
 101 559 l 2,3,4
 89 568 89 568 89 579.5 c 128,-1,5
 89 591 89 591 96.5 599.5 c 128,-1,6
 104 608 104 608 115.5 610.5 c 128,-1,7
 127 613 127 613 139 604 c 2,8,-1
 244 519 l 1,9,-1
 350 604 l 2,10,11
 362 613 362 613 373.5 610.5 c 128,-1,12
 385 608 385 608 392 599.5 c 128,-1,13
 399 591 399 591 399.5 579.5 c 128,-1,14
 400 568 400 568 388 559 c 2,15,-1
 264 458 l 2,0,1
147 60 m 1,16,-1
 392 60 l 2,17,18
 407 60 407 60 414.5 50.5 c 128,-1,19
 422 41 422 41 422 30 c 128,-1,20
 422 19 422 19 414.5 9.5 c 128,-1,21
 407 0 407 0 392 0 c 2,22,-1
 81 0 l 2,23,24
 56 0 56 0 49 16 c 128,-1,25
 42 32 42 32 59 50 c 2,26,-1
 327 350 l 1,27,-1
 84 350 l 2,28,29
 69 350 69 350 61.5 359 c 128,-1,30
 54 368 54 368 54 379.5 c 128,-1,31
 54 391 54 391 61.5 400 c 128,-1,32
 69 409 69 409 84 409 c 2,33,-1
 393 409 l 2,34,35
 418 409 418 409 425 394 c 128,-1,36
 432 379 432 379 415 359 c 2,37,-1
 147 60 l 1,16,-1
EndSplineSet
Validated: 33
EndChar

StartChar: Eacute
Encoding: 402 402 201
Width: 663
GlyphClass: 2
Flags: W
LayerCount: 2
Back
Fore
SplineSet
614 508 m 0,0,1
 617 493 617 493 609.5 484 c 128,-1,2
 602 475 602 475 591 473 c 128,-1,3
 580 471 580 471 569 476 c 128,-1,4
 558 481 558 481 555 495 c 0,5,6
 548 525 548 525 530 532 c 128,-1,7
 512 539 512 539 488 539 c 0,8,9
 454 539 454 539 432.5 517.5 c 128,-1,10
 411 496 411 496 398.5 462.5 c 128,-1,11
 386 429 386 429 380 389 c 128,-1,12
 374 349 374 349 369 312 c 1,13,-1
 484 312 l 2,14,15
 499 312 499 312 507 302.5 c 128,-1,16
 515 293 515 293 515 282 c 128,-1,17
 515 271 515 271 507 261.5 c 128,-1,18
 499 252 499 252 484 252 c 2,19,-1
 362 252 l 1,20,21
 352 184 352 184 338.5 113.5 c 128,-1,22
 325 43 325 43 303.5 -14.5 c 128,-1,23
 282 -72 282 -72 249.5 -108.5 c 128,-1,24
 217 -145 217 -145 170 -145 c 0,25,26
 148 -145 148 -145 129.5 -141 c 128,-1,27
 111 -137 111 -137 96 -126.5 c 128,-1,28
 81 -116 81 -116 69.5 -97.5 c 128,-1,29
 58 -79 58 -79 50 -49 c 0,30,31
 46 -34 46 -34 53 -24.5 c 128,-1,32
 60 -15 60 -15 71 -12 c 128,-1,33
 82 -9 82 -9 93 -14 c 128,-1,34
 104 -19 104 -19 108 -34 c 0,35,36
 116 -66 116 -66 131 -75.5 c 128,-1,37
 146 -85 146 -85 170 -85 c 0,38,39
 199 -85 199 -85 220 -53.5 c 128,-1,40
 241 -22 241 -22 256 27 c 128,-1,41
 271 76 271 76 282 135.5 c 128,-1,42
 293 195 293 195 300 252 c 1,43,-1
 201 252 l 2,44,45
 186 252 186 252 178 261.5 c 128,-1,46
 170 271 170 271 170 282 c 128,-1,47
 170 293 170 293 178 302.5 c 128,-1,48
 186 312 186 312 201 312 c 2,49,-1
 309 312 l 1,50,51
 316 359 316 359 323.5 410 c 128,-1,52
 331 461 331 461 348.5 503 c 128,-1,53
 366 545 366 545 398.5 572.5 c 128,-1,54
 431 600 431 600 488 600 c 0,55,56
 510 600 510 600 530 596.5 c 128,-1,57
 550 593 550 593 566.5 583 c 128,-1,58
 583 573 583 573 595.5 555 c 128,-1,59
 608 537 608 537 614 508 c 0,0,1
EndSplineSet
Validated: 1
EndChar

StartChar: agrave
Encoding: 710 710 202
Width: 409
GlyphClass: 2
Flags: W
LayerCount: 2
Back
Fore
SplineSet
348 506 m 1,0,1
 360 497 360 497 359.5 485.5 c 128,-1,2
 359 474 359 474 352 465.5 c 128,-1,3
 345 457 345 457 333.5 455 c 128,-1,4
 322 453 322 453 310 462 c 2,5,-1
 204 544 l 1,6,-1
 99 462 l 2,7,8
 87 453 87 453 75.5 455 c 128,-1,9
 64 457 64 457 56.5 465.5 c 128,-1,10
 49 474 49 474 49 485.5 c 128,-1,11
 49 497 49 497 61 506 c 2,12,-1
 185 604 l 2,13,14
 205 620 205 620 224 604 c 2,15,-1
 348 506 l 1,16,-1
 348 506 l 1,0,1
EndSplineSet
Validated: 37
EndChar

StartChar: ograve
Encoding: 732 732 203
Width: 437
GlyphClass: 2
Flags: W
LayerCount: 2
Back
Fore
SplineSet
387 550 m 0,0,1
 379 511 379 511 351 483 c 128,-1,2
 323 455 323 455 282 455 c 0,3,4
 245 455 245 455 229 466 c 128,-1,5
 213 477 213 477 204.5 490 c 128,-1,6
 196 503 196 503 188 514 c 128,-1,7
 180 525 180 525 160 525 c 0,8,9
 138 525 138 525 128 507.5 c 128,-1,10
 118 490 118 490 108 472 c 0,11,12
 101 459 101 459 89 456.5 c 128,-1,13
 77 454 77 454 66.5 459 c 128,-1,14
 56 464 56 464 51 474.5 c 128,-1,15
 46 485 46 485 53 498 c 0,16,17
 62 514 62 514 72.5 529.5 c 128,-1,18
 83 545 83 545 96 557 c 128,-1,19
 109 569 109 569 124.5 576 c 128,-1,20
 140 583 140 583 160 583 c 0,21,22
 195 583 195 583 210.5 572 c 128,-1,23
 226 561 226 561 235 548 c 128,-1,24
 244 535 244 535 252.5 524 c 128,-1,25
 261 513 261 513 282 513 c 0,26,27
 302 513 302 513 313 528.5 c 128,-1,28
 324 544 324 544 329 563 c 0,29,30
 332 577 332 577 343 582 c 128,-1,31
 354 587 354 587 365 584.5 c 128,-1,32
 376 582 376 582 383.5 573 c 128,-1,33
 391 564 391 564 387 550 c 0,0,1
EndSplineSet
Validated: 1
EndChar

StartChar: afii57388
Encoding: 1548 1548 204
Width: 243
GlyphClass: 2
Flags: W
LayerCount: 2
Back
Fore
SplineSet
73 44 m 0,0,1
 73 71 73 71 86 86.5 c 128,-1,2
 99 102 99 102 115 105.5 c 128,-1,3
 131 109 131 109 146.5 100 c 128,-1,4
 162 91 162 91 166 67 c 0,5,6
 171 41 171 41 159 27.5 c 128,-1,7
 147 14 147 14 127 5 c 1,8,9
 124 -7 124 -7 129 -25.5 c 128,-1,10
 134 -44 134 -44 148 -64 c 0,11,12
 155 -76 155 -76 154.5 -86 c 128,-1,13
 154 -96 154 -96 149 -101.5 c 128,-1,14
 144 -107 144 -107 136 -105.5 c 128,-1,15
 128 -104 128 -104 120 -92 c 0,16,17
 105 -68 105 -68 96 -50.5 c 128,-1,18
 87 -33 87 -33 81.5 -18 c 128,-1,19
 76 -3 76 -3 74.5 11.5 c 128,-1,20
 73 26 73 26 73 44 c 0,0,1
EndSplineSet
Validated: 33
EndChar

StartChar: afii57403
Encoding: 1563 1563 205
Width: 228
GlyphClass: 2
Flags: W
LayerCount: 2
Back
Fore
SplineSet
60 356 m 0,0,1
 60 376 60 376 73.5 389 c 128,-1,2
 87 402 87 402 106 402 c 0,3,4
 126 402 126 402 139 389 c 128,-1,5
 152 376 152 376 152 356 c 0,6,7
 152 337 152 337 139 323.5 c 128,-1,8
 126 310 126 310 106 310 c 0,9,10
 87 310 87 310 73.5 323.5 c 128,-1,11
 60 337 60 337 60 356 c 0,0,1
62 38 m 0,12,13
 62 63 62 63 74 78 c 128,-1,14
 86 93 86 93 102 97 c 128,-1,15
 118 101 118 101 132.5 92 c 128,-1,16
 147 83 147 83 151 60 c 0,17,18
 156 37 156 37 144 23.5 c 128,-1,19
 132 10 132 10 113 1 c 1,20,21
 110 -10 110 -10 116 -27 c 128,-1,22
 122 -44 122 -44 135 -64 c 0,23,24
 141 -75 141 -75 140.5 -84.5 c 128,-1,25
 140 -94 140 -94 134.5 -99 c 128,-1,26
 129 -104 129 -104 121.5 -102.5 c 128,-1,27
 114 -101 114 -101 107 -90 c 0,28,29
 92 -68 92 -68 83.5 -51 c 128,-1,30
 75 -34 75 -34 70 -20 c 128,-1,31
 65 -6 65 -6 63.5 8 c 128,-1,32
 62 22 62 22 62 38 c 0,12,13
EndSplineSet
Validated: 33
EndChar

StartChar: afii57407
Encoding: 1567 1567 206
Width: 426
GlyphClass: 2
Flags: W
LayerCount: 2
Back
Fore
SplineSet
59 454 m 0,0,1
 59 495 59 495 73.5 524 c 128,-1,2
 88 553 88 553 111 571 c 128,-1,3
 134 589 134 589 163 597.5 c 128,-1,4
 192 606 192 606 220 605 c 0,5,6
 243 604 243 604 266 597 c 128,-1,7
 289 590 289 590 309 573.5 c 128,-1,8
 329 557 329 557 344 530.5 c 128,-1,9
 359 504 359 504 365 463 c 0,10,11
 368 448 368 448 360 439 c 128,-1,12
 352 430 352 430 341 428 c 128,-1,13
 330 426 330 426 319.5 432 c 128,-1,14
 309 438 309 438 306 454 c 0,15,16
 303 480 303 480 294 496.5 c 128,-1,17
 285 513 285 513 273 523.5 c 128,-1,18
 261 534 261 534 246.5 538.5 c 128,-1,19
 232 543 232 543 218 544 c 0,20,21
 200 545 200 545 182 540 c 128,-1,22
 164 535 164 535 150 524.5 c 128,-1,23
 136 514 136 514 127 496.5 c 128,-1,24
 118 479 118 479 118 454 c 0,25,26
 118 428 118 428 126 408.5 c 128,-1,27
 134 389 134 389 146.5 373.5 c 128,-1,28
 159 358 159 358 174 345.5 c 128,-1,29
 189 333 189 333 202 321 c 256,30,31
 215 309 215 309 230.5 294.5 c 128,-1,32
 246 280 246 280 259 263.5 c 128,-1,33
 272 247 272 247 281 230 c 128,-1,34
 290 213 290 213 290 197 c 0,35,36
 290 182 290 182 281 174 c 128,-1,37
 272 166 272 166 260.5 166 c 128,-1,38
 249 166 249 166 240 174 c 128,-1,39
 231 182 231 182 231 198 c 0,40,41
 231 207 231 207 224 217 c 128,-1,42
 217 227 217 227 206.5 237 c 128,-1,43
 196 247 196 247 184.5 256.5 c 128,-1,44
 173 266 173 266 164 275 c 0,45,46
 146 290 146 290 127 307.5 c 128,-1,47
 108 325 108 325 93 346 c 128,-1,48
 78 367 78 367 68.5 393.5 c 128,-1,49
 59 420 59 420 59 454 c 0,0,1
225 30 m 0,50,51
 225 45 225 45 235.5 55.5 c 128,-1,52
 246 66 246 66 261 66 c 256,53,54
 276 66 276 66 286.5 55.5 c 128,-1,55
 297 45 297 45 297 30 c 0,56,57
 297 17 297 17 286.5 6.5 c 128,-1,58
 276 -4 276 -4 261 -4 c 256,59,60
 246 -4 246 -4 235.5 6.5 c 128,-1,61
 225 17 225 17 225 30 c 0,50,51
EndSplineSet
Validated: 33
EndChar

StartChar: Adlam_capital_letter_alif
Encoding: 1576 125184 207
Width: 490
GlyphClass: 2
Flags: W
LayerCount: 2
Back
Fore
SplineSet
440 179 m 0,0,1
 440 142 440 142 426 109.5 c 128,-1,2
 412 77 412 77 387.5 52.5 c 128,-1,3
 363 28 363 28 330.5 14 c 128,-1,4
 298 0 298 0 261 0 c 2,5,-1
 195 0 l 2,6,7
 155 0 155 0 127 20.5 c 128,-1,8
 99 41 99 41 82 69.5 c 128,-1,9
 65 98 65 98 57.5 128.5 c 128,-1,10
 50 159 50 159 50 179 c 2,11,-1
 50 419 l 2,12,13
 49 419 49 419 49 418.5 c 128,-1,14
 49 418 49 418 48 418 c 0,15,16
 34 411 34 411 21.5 411.5 c 128,-1,17
 9 412 9 412 2.5 418.5 c 128,-1,18
 -4 425 -4 425 -3 436.5 c 128,-1,19
 -2 448 -2 448 11 463 c 0,20,21
 16 468 16 468 22.5 472 c 128,-1,22
 29 476 29 476 35 484 c 128,-1,23
 41 492 41 492 45.5 506.5 c 128,-1,24
 50 521 50 521 50 547 c 2,25,-1
 50 570 l 2,26,27
 50 585 50 585 59.5 592.5 c 128,-1,28
 69 600 69 600 80 600 c 128,-1,29
 91 600 91 600 100.5 592.5 c 128,-1,30
 110 585 110 585 110 570 c 2,31,-1
 110 179 l 2,32,33
 110 134 110 134 124.5 110 c 128,-1,34
 139 86 139 86 161 74.5 c 128,-1,35
 183 63 183 63 210 61.5 c 128,-1,36
 237 60 237 60 261 60 c 256,37,38
 285 60 285 60 307 69.5 c 128,-1,39
 329 79 329 79 345 95 c 128,-1,40
 361 111 361 111 370.5 133 c 128,-1,41
 380 155 380 155 380 179 c 256,42,43
 380 203 380 203 370.5 225 c 128,-1,44
 361 247 361 247 345.5 263 c 128,-1,45
 330 279 330 279 309 288.5 c 128,-1,46
 288 298 288 298 265 298 c 2,47,-1
 210 298 l 2,48,49
 195 298 195 298 187.5 307.5 c 128,-1,50
 180 317 180 317 180 328 c 128,-1,51
 180 339 180 339 187.5 348.5 c 128,-1,52
 195 358 195 358 210 358 c 2,53,-1
 300 358 l 2,54,55
 327 358 327 358 340.5 368 c 128,-1,56
 354 378 354 378 366 387 c 0,57,58
 382 399 382 399 395 399 c 128,-1,59
 408 399 408 399 415 391.5 c 128,-1,60
 422 384 422 384 422 372.5 c 128,-1,61
 422 361 422 361 411 350 c 256,62,63
 400 339 400 339 388.5 332.5 c 128,-1,64
 377 326 377 326 371 321 c 1,65,66
 403 296 403 296 421.5 259.5 c 128,-1,67
 440 223 440 223 440 179 c 0,0,1
EndSplineSet
Validated: 1
Substitution2: "'isol' Isolated Forms in Arabic lookup 0 subtable" uniFE8F
Substitution2: "'init' Initial Forms in Arabic lookup 1 subtable" florin
Substitution2: "'medi' Medial Forms in Arabic lookup 2 subtable" uniFE92
Substitution2: "'fina' Terminal Forms in Arabic lookup 3 subtable" uniFE90
EndChar

StartChar: ADLAM_CAPITAL_LETTER_DAALI
Encoding: 1578 125185 208
Width: 408
GlyphClass: 2
Flags: W
LayerCount: 2
Back
Fore
SplineSet
358 106 m 1,0,1
 358 0 358 0 256 0 c 2,2,-1
 80 0 l 2,3,4
 67 0 67 0 59.5 7.5 c 128,-1,5
 52 15 52 15 50.5 25 c 128,-1,6
 49 35 49 35 53.5 44.5 c 128,-1,7
 58 54 58 54 68 58 c 0,8,9
 74 64 74 64 81 70 c 0,10,11
 87 75 87 75 93.5 80 c 128,-1,12
 100 85 100 85 106 90 c 0,13,14
 121 101 121 101 133 101.5 c 128,-1,15
 145 102 145 102 152.5 96.5 c 128,-1,16
 160 91 160 91 161.5 81 c 128,-1,17
 163 71 163 71 157 60 c 1,18,-1
 256 60 l 2,19,20
 298 60 298 60 298 106 c 2,21,-1
 298 162 l 2,22,23
 295 176 295 176 285 185.5 c 128,-1,24
 275 195 275 195 261 203 c 0,25,26
 252 208 252 208 235.5 209.5 c 128,-1,27
 219 211 219 211 199.5 213.5 c 128,-1,28
 180 216 180 216 160.5 221.5 c 128,-1,29
 141 227 141 227 126 240 c 0,30,31
 106 258 106 258 94 277 c 128,-1,32
 82 296 82 296 76 323 c 2,33,-1
 54 565 l 2,34,35
 53 580 53 580 61.5 588.5 c 128,-1,36
 70 597 70 597 81 598 c 128,-1,37
 92 599 92 599 102.5 592.5 c 128,-1,38
 113 586 113 586 114 571 c 2,39,-1
 136 332 l 2,40,41
 141 317 141 317 147 305.5 c 128,-1,42
 153 294 153 294 166 284 c 256,43,44
 179 274 179 274 195.5 271 c 128,-1,45
 212 268 212 268 230 266.5 c 128,-1,46
 248 265 248 265 265.5 262 c 128,-1,47
 283 259 283 259 298 249 c 1,48,-1
 298 570 l 2,49,50
 298 585 298 585 307.5 592.5 c 128,-1,51
 317 600 317 600 328 600 c 128,-1,52
 339 600 339 600 348.5 592.5 c 128,-1,53
 358 585 358 585 358 570 c 2,54,-1
 358 106 l 1,55,-1
 358 106 l 1,0,1
EndSplineSet
Validated: 5
Substitution2: "'fina' Terminal Forms in Arabic lookup 3 subtable" uniFE96
Substitution2: "'medi' Medial Forms in Arabic lookup 2 subtable" uniFE98
Substitution2: "'init' Initial Forms in Arabic lookup 1 subtable" Delta
Substitution2: "'isol' Isolated Forms in Arabic lookup 0 subtable" uniFE95
EndChar

StartChar: ADLAM_CAPITAL_LETTER_LAAM
Encoding: 1579 125186 209
Width: 362
GlyphClass: 2
Flags: W
LayerCount: 2
Back
Fore
SplineSet
312 106 m 1,0,1
 312 0 312 0 210 0 c 2,2,-1
 80 0 l 2,3,4
 67 0 67 0 59.5 7.5 c 128,-1,5
 52 15 52 15 50.5 25 c 128,-1,6
 49 35 49 35 53.5 44.5 c 128,-1,7
 58 54 58 54 68 58 c 0,8,9
 74 64 74 64 81 70 c 0,10,11
 87 75 87 75 93.5 80 c 128,-1,12
 100 85 100 85 106 90 c 0,13,14
 121 101 121 101 133 101.5 c 128,-1,15
 145 102 145 102 152.5 96.5 c 128,-1,16
 160 91 160 91 161.5 81 c 128,-1,17
 163 71 163 71 157 60 c 1,18,-1
 210 60 l 2,19,20
 252 60 252 60 252 106 c 2,21,-1
 252 489 l 2,22,23
 252 496 252 496 249.5 504.5 c 128,-1,24
 247 513 247 513 241 521 c 128,-1,25
 235 529 235 529 224 534.5 c 128,-1,26
 213 540 213 540 196 540 c 0,27,28
 169 540 169 540 152 530 c 128,-1,29
 135 520 135 520 125.5 506.5 c 128,-1,30
 116 493 116 493 113 479.5 c 128,-1,31
 110 466 110 466 110 459 c 2,32,-1
 110 362 l 2,33,34
 110 347 110 347 100.5 339.5 c 128,-1,35
 91 332 91 332 80 332 c 128,-1,36
 69 332 69 332 59.5 339.5 c 128,-1,37
 50 347 50 347 50 362 c 2,38,-1
 50 473 l 2,39,40
 50 492 50 492 59.5 514 c 128,-1,41
 69 536 69 536 88 555 c 128,-1,42
 107 574 107 574 134 587 c 128,-1,43
 161 600 161 600 196 600 c 0,44,45
 224 600 224 600 245.5 592 c 128,-1,46
 267 584 267 584 282 570.5 c 128,-1,47
 297 557 297 557 304.5 539.5 c 128,-1,48
 312 522 312 522 312 503 c 2,49,-1
 312 106 l 1,50,-1
 312 106 l 1,0,1
EndSplineSet
Validated: 5
Substitution2: "'isol' Isolated Forms in Arabic lookup 0 subtable" uniFE99
Substitution2: "'init' Initial Forms in Arabic lookup 1 subtable" acute
Substitution2: "'medi' Medial Forms in Arabic lookup 2 subtable" uniFE9C
Substitution2: "'fina' Terminal Forms in Arabic lookup 3 subtable" uniFE9A
EndChar

StartChar: ADLAM_CAPITAL_LETTER_MIIM
Encoding: 1580 125187 210
Width: 430
GlyphClass: 2
Flags: W
LayerCount: 2
Back
Fore
SplineSet
380 146 m 1,0,1
 380 113 380 113 372.5 86.5 c 128,-1,2
 365 60 365 60 348 40.5 c 128,-1,3
 331 21 331 21 304 10.5 c 128,-1,4
 277 0 277 0 238 0 c 2,5,-1
 80 0 l 2,6,7
 67 0 67 0 59.5 7.5 c 128,-1,8
 52 15 52 15 50.5 25 c 128,-1,9
 49 35 49 35 53.5 44.5 c 128,-1,10
 58 54 58 54 68 58 c 0,11,12
 74 64 74 64 81 70 c 0,13,14
 87 75 87 75 93.5 80 c 128,-1,15
 100 85 100 85 106 90 c 0,16,17
 121 101 121 101 133 101.5 c 128,-1,18
 145 102 145 102 152.5 96.5 c 128,-1,19
 160 91 160 91 161.5 81 c 128,-1,20
 163 71 163 71 157 60 c 1,21,-1
 238 60 l 2,22,23
 283 60 283 60 301.5 85.5 c 128,-1,24
 320 111 320 111 320 146 c 2,25,-1
 320 300 l 1,26,27
 294 281 294 281 267.5 273 c 128,-1,28
 241 265 241 265 216 265 c 128,-1,29
 191 265 191 265 168 270.5 c 128,-1,30
 145 276 145 276 127 283 c 0,31,32
 103 292 103 292 87.5 307.5 c 128,-1,33
 72 323 72 323 64 341.5 c 128,-1,34
 56 360 56 360 53 379.5 c 128,-1,35
 50 399 50 399 50 417 c 0,36,37
 50 450 50 450 64 482.5 c 128,-1,38
 78 515 78 515 102.5 541.5 c 128,-1,39
 127 568 127 568 160.5 584 c 128,-1,40
 194 600 194 600 233 600 c 0,41,42
 300 600 300 600 340 568 c 128,-1,43
 380 536 380 536 380 486 c 2,44,-1
 380 146 l 1,45,-1
 380 146 l 1,0,1
320 486 m 2,46,47
 320 512 320 512 293.5 526 c 128,-1,48
 267 540 267 540 233 540 c 0,49,50
 206 540 206 540 183.5 529 c 128,-1,51
 161 518 161 518 144.5 501 c 128,-1,52
 128 484 128 484 119 462 c 128,-1,53
 110 440 110 440 110 417 c 0,54,55
 110 407 110 407 111 395.5 c 128,-1,56
 112 384 112 384 115.5 373 c 128,-1,57
 119 362 119 362 126 353 c 128,-1,58
 133 344 133 344 145 341 c 0,59,60
 162 337 162 337 179.5 332.5 c 128,-1,61
 197 328 197 328 218 329 c 128,-1,62
 239 330 239 330 264 338 c 128,-1,63
 289 346 289 346 320 365 c 1,64,-1
 320 486 l 2,46,47
EndSplineSet
Validated: 37
Substitution2: "'fina' Terminal Forms in Arabic lookup 3 subtable" uniFE9E
Substitution2: "'medi' Medial Forms in Arabic lookup 2 subtable" uniFEA0
Substitution2: "'init' Initial Forms in Arabic lookup 1 subtable" quotedblleft
Substitution2: "'isol' Isolated Forms in Arabic lookup 0 subtable" uniFE9D
EndChar

StartChar: product
Encoding: 1581 1581 211
Width: 509
GlyphClass: 2
Flags: W
LayerCount: 2
Back
Fore
SplineSet
465 418 m 0,0,1
 465 378 465 378 450 348 c 128,-1,2
 435 318 435 318 410 298 c 128,-1,3
 385 278 385 278 352 266.5 c 128,-1,4
 319 255 319 255 283 251 c 1,5,-1
 283 106 l 2,6,7
 283 0 283 0 181 0 c 2,8,-1
 80 0 l 2,9,10
 67 0 67 0 59.5 7.5 c 128,-1,11
 52 15 52 15 50.5 25 c 128,-1,12
 49 35 49 35 53.5 44.5 c 128,-1,13
 58 54 58 54 68 58 c 0,14,15
 74 64 74 64 81 70 c 0,16,17
 87 75 87 75 93.5 80 c 128,-1,18
 100 85 100 85 106 90 c 0,19,20
 121 101 121 101 133 101.5 c 128,-1,21
 145 102 145 102 152.5 96.5 c 128,-1,22
 160 91 160 91 161.5 81 c 128,-1,23
 163 71 163 71 157 60 c 1,24,-1
 181 60 l 2,25,26
 223 60 223 60 223 106 c 2,27,-1
 223 250 l 1,28,29
 189 253 189 253 157 263 c 128,-1,30
 125 273 125 273 100.5 292.5 c 128,-1,31
 76 312 76 312 61.5 342.5 c 128,-1,32
 47 373 47 373 47 415 c 0,33,34
 47 475 47 475 77.5 513 c 128,-1,35
 108 551 108 551 167 571 c 0,36,37
 212 585 212 585 251.5 590.5 c 128,-1,38
 291 596 291 596 319 601 c 0,39,40
 334 603 334 603 342.5 594.5 c 128,-1,41
 351 586 351 586 352 575.5 c 128,-1,42
 353 565 353 565 346.5 555 c 128,-1,43
 340 545 340 545 325 543 c 0,44,45
 313 542 313 542 297 539.5 c 128,-1,46
 281 537 281 537 262 533.5 c 128,-1,47
 243 530 243 530 223.5 524.5 c 128,-1,48
 204 519 204 519 185 513 c 0,49,50
 147 501 147 501 127 477.5 c 128,-1,51
 107 454 107 454 107 415 c 0,52,53
 107 388 107 388 116.5 369 c 128,-1,54
 126 350 126 350 142.5 337.5 c 128,-1,55
 159 325 159 325 180 319 c 128,-1,56
 201 313 201 313 223 311 c 1,57,-1
 223 396 l 2,58,59
 223 450 223 450 255 485 c 128,-1,60
 287 520 287 520 341 533 c 0,61,62
 378 542 378 542 402 532.5 c 128,-1,63
 426 523 426 523 440 504 c 128,-1,64
 454 485 454 485 459.5 461.5 c 128,-1,65
 465 438 465 438 465 418 c 0,0,1
405 412 m 0,66,67
 405 421 405 421 404 434.5 c 128,-1,68
 403 448 403 448 396.5 459 c 128,-1,69
 390 470 390 470 375.5 475 c 128,-1,70
 361 480 361 480 335 473 c 0,71,72
 307 465 307 465 295 445 c 128,-1,73
 283 425 283 425 283 396 c 2,74,-1
 283 312 l 1,75,76
 307 315 307 315 329.5 322.5 c 128,-1,77
 352 330 352 330 368.5 342 c 128,-1,78
 385 354 385 354 395 371.5 c 128,-1,79
 405 389 405 389 405 412 c 0,66,67
EndSplineSet
Validated: 33
Substitution2: "'isol' Isolated Forms in Arabic lookup 0 subtable" uniFEA1
Substitution2: "'fina' Terminal Forms in Arabic lookup 3 subtable" uniFEA2
Substitution2: "'medi' Medial Forms in Arabic lookup 2 subtable" uniFEA3
Substitution2: "'init' Initial Forms in Arabic lookup 1 subtable" pi
EndChar

StartChar: ADLAM_CAPITAL_LETTER_SINNYIIYHE
Encoding: 1582 125189 212
Width: 424
GlyphClass: 2
Flags: W
LayerCount: 2
Back
Fore
SplineSet
374 106 m 1,0,1
 370 54 370 54 347 27 c 128,-1,2
 324 0 324 0 272 0 c 2,3,-1
 80 0 l 2,4,5
 67 0 67 0 59.5 7.5 c 128,-1,6
 52 15 52 15 50.5 25 c 128,-1,7
 49 35 49 35 53.5 44.5 c 128,-1,8
 58 54 58 54 68 58 c 0,9,10
 74 64 74 64 81 70 c 0,11,12
 87 75 87 75 93.5 80 c 128,-1,13
 100 85 100 85 106 90 c 0,14,15
 121 101 121 101 133 101.5 c 128,-1,16
 145 102 145 102 152.5 96.5 c 128,-1,17
 160 91 160 91 161.5 81 c 128,-1,18
 163 71 163 71 157 60 c 1,19,-1
 272 60 l 2,20,21
 314 60 314 60 314 106 c 2,22,-1
 314 271 l 1,23,24
 296 266 296 266 278 266 c 0,25,26
 242 266 242 266 214 288 c 1,27,28
 189 266 189 266 146 266 c 0,29,30
 127 266 127 266 109.5 272.5 c 128,-1,31
 92 279 92 279 79 290.5 c 128,-1,32
 66 302 66 302 58 318 c 128,-1,33
 50 334 50 334 50 353 c 2,34,-1
 50 570 l 2,35,36
 50 585 50 585 59.5 592.5 c 128,-1,37
 69 600 69 600 80 600 c 128,-1,38
 91 600 91 600 100.5 592.5 c 128,-1,39
 110 585 110 585 110 570 c 2,40,-1
 110 367 l 2,41,42
 110 353 110 353 118 339.5 c 128,-1,43
 126 326 126 326 146 326 c 0,44,45
 168 326 168 326 175 338.5 c 128,-1,46
 182 351 182 351 182 367 c 2,47,-1
 182 570 l 2,48,49
 182 585 182 585 191.5 592.5 c 128,-1,50
 201 600 201 600 212 600 c 128,-1,51
 223 600 223 600 232.5 592.5 c 128,-1,52
 242 585 242 585 242 570 c 2,53,-1
 242 367 l 2,54,55
 242 351 242 351 250 338.5 c 128,-1,56
 258 326 258 326 278 326 c 0,57,58
 300 326 300 326 307 339.5 c 128,-1,59
 314 353 314 353 314 367 c 2,60,-1
 314 570 l 2,61,62
 314 585 314 585 323 592.5 c 128,-1,63
 332 600 332 600 342.5 600 c 128,-1,64
 353 600 353 600 363 592.5 c 128,-1,65
 373 585 373 585 374 570 c 2,66,-1
 374 106 l 1,67,-1
 374 106 l 1,0,1
EndSplineSet
Validated: 5
Substitution2: "'fina' Terminal Forms in Arabic lookup 3 subtable" uniFEA6
Substitution2: "'medi' Medial Forms in Arabic lookup 2 subtable" uniFEA8
Substitution2: "'init' Initial Forms in Arabic lookup 1 subtable" oslash
Substitution2: "'isol' Isolated Forms in Arabic lookup 0 subtable" uniFEA5
EndChar

StartChar: ADLAM_CAPITAL_LETTER_PE
Encoding: 1587 125190 213
Width: 396
GlyphClass: 2
Flags: W
LayerCount: 2
Back
Fore
SplineSet
346 106 m 1,0,1
 346 0 346 0 244 0 c 2,2,-1
 41 0 l 2,3,4
 26 0 26 0 18.5 9.5 c 128,-1,5
 11 19 11 19 11 30 c 128,-1,6
 11 41 11 41 18.5 50.5 c 128,-1,7
 26 60 26 60 41 60 c 2,8,-1
 48 60 l 2,9,10
 57 60 57 60 63.5 73 c 128,-1,11
 70 86 70 86 70 106 c 2,12,-1
 70 494 l 2,13,14
 70 600 70 600 172 600 c 2,15,-1
 244 600 l 2,16,17
 346 600 346 600 346 494 c 2,18,-1
 346 106 l 1,19,-1
 346 106 l 1,0,1
286 494 m 2,20,21
 286 540 286 540 244 540 c 2,22,-1
 172 540 l 2,23,24
 130 540 130 540 130 494 c 2,25,-1
 130 106 l 2,26,27
 130 95 130 95 126 81.5 c 128,-1,28
 122 68 122 68 116 60 c 1,29,-1
 244 60 l 2,30,31
 286 60 286 60 286 106 c 2,32,-1
 286 494 l 2,20,21
EndSplineSet
Validated: 5
Substitution2: "'isol' Isolated Forms in Arabic lookup 0 subtable" uniFEB1
Substitution2: "'init' Initial Forms in Arabic lookup 1 subtable" germandbls
Substitution2: "'medi' Medial Forms in Arabic lookup 2 subtable" uniFEB4
Substitution2: "'fina' Terminal Forms in Arabic lookup 3 subtable" uniFEB2
EndChar

StartChar: ADLAM_CAPITAL_LETTER_BHE
Encoding: 1588 125191 214
Width: 474
GlyphClass: 2
Flags: W
LayerCount: 2
Back
Fore
SplineSet
320 540 m 2,0,1
 282 540 282 540 249 540 c 128,-1,2
 216 540 216 540 192 531.5 c 128,-1,3
 168 523 168 523 154 503 c 128,-1,4
 140 483 140 483 140 444 c 0,5,6
 140 402 140 402 156 381.5 c 128,-1,7
 172 361 172 361 199 353.5 c 128,-1,8
 226 346 226 346 263 347 c 128,-1,9
 300 348 300 348 342 348 c 0,10,11
 357 348 357 348 364.5 338.5 c 128,-1,12
 372 329 372 329 372 318 c 128,-1,13
 372 307 372 307 364.5 297.5 c 128,-1,14
 357 288 357 288 342 288 c 2,15,-1
 284 288 l 1,16,-1
 284 106 l 2,17,18
 284 0 284 0 182 0 c 2,19,-1
 80 0 l 2,20,21
 67 0 67 0 59.5 7.5 c 128,-1,22
 52 15 52 15 50.5 25 c 128,-1,23
 49 35 49 35 53.5 44.5 c 128,-1,24
 58 54 58 54 68 58 c 0,25,26
 74 64 74 64 81 70 c 0,27,28
 87 75 87 75 93.5 80 c 128,-1,29
 100 85 100 85 106 90 c 0,30,31
 121 101 121 101 133 101.5 c 128,-1,32
 145 102 145 102 152.5 96.5 c 128,-1,33
 160 91 160 91 161.5 81 c 128,-1,34
 163 71 163 71 157 60 c 1,35,-1
 182 60 l 2,36,37
 224 60 224 60 224 106 c 2,38,-1
 224 289 l 1,39,40
 194 291 194 291 167.5 299.5 c 128,-1,41
 141 308 141 308 121.5 326 c 128,-1,42
 102 344 102 344 91 373 c 128,-1,43
 80 402 80 402 80 444 c 0,44,45
 80 500 80 500 97 531.5 c 128,-1,46
 114 563 114 563 144.5 578 c 128,-1,47
 175 593 175 593 219 596.5 c 128,-1,48
 263 600 263 600 317 600 c 2,49,-1
 392 600 l 2,50,51
 407 600 407 600 414.5 590.5 c 128,-1,52
 422 581 422 581 422 570 c 128,-1,53
 422 559 422 559 414.5 549.5 c 128,-1,54
 407 540 407 540 392 540 c 2,55,-1
 320 540 l 2,0,1
EndSplineSet
Validated: 33
Substitution2: "'fina' Terminal Forms in Arabic lookup 3 subtable" uniFEB6
Substitution2: "'medi' Medial Forms in Arabic lookup 2 subtable" uniFEB8
Substitution2: "'init' Initial Forms in Arabic lookup 1 subtable" uniFEB7
Substitution2: "'isol' Isolated Forms in Arabic lookup 0 subtable" uniFEB5
EndChar

StartChar: ADLAM_CAPITAL_LETTER_RA
Encoding: 1589 125192 215
Width: 412
GlyphClass: 2
Flags: W
LayerCount: 2
Back
Fore
SplineSet
362 470 m 1,0,1
 362 420 362 420 357.5 377.5 c 128,-1,2
 353 335 353 335 337 304 c 128,-1,3
 321 273 321 273 290 255.5 c 128,-1,4
 259 238 259 238 206 238 c 0,5,6
 144 238 144 238 110 263 c 1,7,-1
 110 106 l 2,8,9
 110 60 110 60 152 60 c 2,10,-1
 256 60 l 2,11,12
 274 60 274 60 286.5 63.5 c 128,-1,13
 299 67 299 67 308 71 c 128,-1,14
 317 75 317 75 324.5 77.5 c 128,-1,15
 332 80 332 80 340 78 c 0,16,17
 354 74 354 74 351.5 61.5 c 128,-1,18
 349 49 349 49 337 35.5 c 128,-1,19
 325 22 325 22 306.5 11 c 128,-1,20
 288 0 288 0 270 0 c 2,21,-1
 152 0 l 2,22,23
 113 0 113 0 92 14 c 128,-1,24
 71 28 71 28 62 46.5 c 128,-1,25
 53 65 53 65 51.5 82.5 c 128,-1,26
 50 100 50 100 50 106 c 2,27,-1
 50 472 l 1,28,-1
 50 570 l 2,29,30
 50 585 50 585 59.5 592.5 c 128,-1,31
 69 600 69 600 80 600 c 128,-1,32
 91 600 91 600 100.5 592.5 c 128,-1,33
 110 585 110 585 110 570 c 2,34,-1
 110 470 l 2,35,36
 110 435 110 435 111.5 404 c 128,-1,37
 113 373 113 373 122.5 349.5 c 128,-1,38
 132 326 132 326 151.5 312 c 128,-1,39
 171 298 171 298 206 298 c 256,40,41
 241 298 241 298 260 311.5 c 128,-1,42
 279 325 279 325 288.5 348.5 c 128,-1,43
 298 372 298 372 300 403 c 128,-1,44
 302 434 302 434 302 468 c 2,45,-1
 302 570 l 2,46,47
 302 585 302 585 311.5 592.5 c 128,-1,48
 321 600 321 600 332 600 c 128,-1,49
 343 600 343 600 352.5 592.5 c 128,-1,50
 362 585 362 585 362 570 c 2,51,-1
 362 470 l 1,52,-1
 362 470 l 1,0,1
EndSplineSet
Validated: 5
Substitution2: "'isol' Isolated Forms in Arabic lookup 0 subtable" uniFEB9
Substitution2: "'init' Initial Forms in Arabic lookup 1 subtable" summation
Substitution2: "'medi' Medial Forms in Arabic lookup 2 subtable" uniFEBC
Substitution2: "'fina' Terminal Forms in Arabic lookup 3 subtable" uniFEBA
EndChar

StartChar: ADLAM_CAPITAL_LETTER_E
Encoding: 1590 125193 216
Width: 522
GlyphClass: 2
Flags: W
LayerCount: 2
Back
Fore
SplineSet
472 112 m 0,0,1
 472 75 472 75 458 53 c 128,-1,2
 444 31 444 31 422 19.5 c 128,-1,3
 400 8 400 8 372.5 4 c 128,-1,4
 345 0 345 0 318 0 c 0,5,6
 290 0 290 0 261 1.5 c 128,-1,7
 232 3 232 3 209.5 14 c 128,-1,8
 187 25 187 25 172.5 47.5 c 128,-1,9
 158 70 158 70 158 112 c 0,10,11
 158 146 158 146 166.5 165 c 128,-1,12
 175 184 175 184 189 197.5 c 128,-1,13
 203 211 203 211 220.5 223.5 c 128,-1,14
 238 236 238 236 256 256 c 0,15,16
 273 274 273 274 290 292 c 128,-1,17
 307 310 307 310 321.5 331.5 c 128,-1,18
 336 353 336 353 345 380 c 128,-1,19
 354 407 354 407 354 443 c 0,20,21
 354 467 354 467 342 485.5 c 128,-1,22
 330 504 330 504 311 516 c 128,-1,23
 292 528 292 528 270 534 c 128,-1,24
 248 540 248 540 227 540 c 0,25,26
 190 540 190 540 167 529 c 128,-1,27
 144 518 144 518 131 498.5 c 128,-1,28
 118 479 118 479 114 452 c 128,-1,29
 110 425 110 425 110 393 c 2,30,-1
 110 104 l 1,31,32
 121 110 121 110 131 108.5 c 128,-1,33
 141 107 141 107 146.5 99.5 c 128,-1,34
 152 92 152 92 151.5 80 c 128,-1,35
 151 68 151 68 140 53 c 0,36,37
 135 47 135 47 130 40.5 c 128,-1,38
 125 34 125 34 120 28 c 0,39,40
 114 21 114 21 108 15 c 0,41,42
 104 5 104 5 94.5 0 c 128,-1,43
 85 -5 85 -5 75 -3.5 c 128,-1,44
 65 -2 65 -2 57.5 6 c 128,-1,45
 50 14 50 14 50 27 c 2,46,-1
 50 393 l 2,47,48
 50 442 50 442 59.5 480.5 c 128,-1,49
 69 519 69 519 90 545.5 c 128,-1,50
 111 572 111 572 145 586 c 128,-1,51
 179 600 179 600 228 600 c 0,52,53
 261 600 261 600 294 590.5 c 128,-1,54
 327 581 327 581 353.5 561.5 c 128,-1,55
 380 542 380 542 397 512 c 128,-1,56
 414 482 414 482 414 440 c 0,57,58
 414 402 414 402 405.5 373 c 128,-1,59
 397 344 397 344 383 320.5 c 128,-1,60
 369 297 369 297 351 277.5 c 128,-1,61
 333 258 333 258 315 238 c 1,62,63
 363 238 363 238 394 229 c 128,-1,64
 425 220 425 220 442 203.5 c 128,-1,65
 459 187 459 187 465.5 163.5 c 128,-1,66
 472 140 472 140 472 112 c 0,0,1
412 112 m 0,67,68
 412 136 412 136 404 149.5 c 128,-1,69
 396 163 396 163 381.5 170.5 c 128,-1,70
 367 178 367 178 346.5 180 c 128,-1,71
 326 182 326 182 300 182 c 0,72,73
 290 182 290 182 275.5 177.5 c 128,-1,74
 261 173 261 173 248.5 164 c 128,-1,75
 236 155 236 155 227 141.5 c 128,-1,76
 218 128 218 128 218 110 c 0,77,78
 218 88 218 88 227.5 77 c 128,-1,79
 237 66 237 66 251 62.5 c 128,-1,80
 265 59 265 59 283 59.5 c 128,-1,81
 301 60 301 60 317 60 c 0,82,83
 332 60 332 60 349 61 c 128,-1,84
 366 62 366 62 380 66.5 c 128,-1,85
 394 71 394 71 403 81.5 c 128,-1,86
 412 92 412 92 412 112 c 0,67,68
EndSplineSet
Validated: 33
Substitution2: "'isol' Isolated Forms in Arabic lookup 0 subtable" uniFEBD
Substitution2: "'init' Initial Forms in Arabic lookup 1 subtable" oe
Substitution2: "'medi' Medial Forms in Arabic lookup 2 subtable" uniFEC0
Substitution2: "'fina' Terminal Forms in Arabic lookup 3 subtable" uniFEBE
EndChar

StartChar: ADLAM_CAPITAL_LETTER_FA
Encoding: 1591 125194 217
Width: 406
GlyphClass: 2
Flags: W
LayerCount: 2
Back
Fore
SplineSet
366 180 m 0,0,1
 362 130 362 130 349 90 c 0,2,3
 343 73 343 73 335 57 c 128,-1,4
 327 41 327 41 315.5 28 c 128,-1,5
 304 15 304 15 288.5 7.5 c 128,-1,6
 273 0 273 0 253 0 c 2,7,-1
 80 0 l 2,8,9
 67 0 67 0 59.5 7.5 c 128,-1,10
 52 15 52 15 50.5 25 c 128,-1,11
 49 35 49 35 53.5 44.5 c 128,-1,12
 58 54 58 54 68 58 c 0,13,14
 74 64 74 64 81 70 c 0,15,16
 87 75 87 75 93.5 80 c 128,-1,17
 100 85 100 85 106 90 c 0,18,19
 121 101 121 101 133 101.5 c 128,-1,20
 145 102 145 102 152.5 96.5 c 128,-1,21
 160 91 160 91 161.5 81 c 128,-1,22
 163 71 163 71 157 60 c 1,23,-1
 241 60 l 2,24,25
 260 63 260 63 272.5 74.5 c 128,-1,26
 285 86 285 86 292 102.5 c 128,-1,27
 299 119 299 119 301.5 139 c 128,-1,28
 304 159 304 159 304 180 c 0,29,30
 304 215 304 215 306 246 c 128,-1,31
 308 277 308 277 300.5 300.5 c 128,-1,32
 293 324 293 324 272 338 c 128,-1,33
 251 352 251 352 204 352 c 0,34,35
 173 352 173 352 146 336.5 c 128,-1,36
 119 321 119 321 93 301 c 0,37,38
 76 288 76 288 62.5 297 c 128,-1,39
 49 306 49 306 50 328 c 0,40,41
 51 367 51 367 49.5 401 c 128,-1,42
 48 435 48 435 50 464 c 128,-1,43
 52 493 52 493 59 516 c 128,-1,44
 66 539 66 539 84 556 c 0,45,46
 119 589 119 589 155 594.5 c 128,-1,47
 191 600 191 600 226 600 c 0,48,49
 283 600 283 600 312 577.5 c 128,-1,50
 341 555 341 555 353 528 c 0,51,52
 367 496 367 496 366 456 c 0,53,54
 366 441 366 441 356.5 433.5 c 128,-1,55
 347 426 347 426 336 426 c 128,-1,56
 325 426 325 426 315.5 433.5 c 128,-1,57
 306 441 306 441 306 456 c 0,58,59
 307 480 307 480 299 499 c 0,60,61
 292 516 292 516 276 529 c 128,-1,62
 260 542 260 542 228 542 c 0,63,64
 220 542 220 542 207 542.5 c 128,-1,65
 194 543 194 543 180 541 c 128,-1,66
 166 539 166 539 152 533.5 c 128,-1,67
 138 528 138 528 127 516 c 0,68,69
 118 507 118 507 114.5 491 c 128,-1,70
 111 475 111 475 110 455.5 c 128,-1,71
 109 436 109 436 109.5 415.5 c 128,-1,72
 110 395 110 395 110 376 c 1,73,74
 130 399 130 399 157 405.5 c 128,-1,75
 184 412 184 412 206 412 c 0,76,77
 269 412 269 412 302 393.5 c 128,-1,78
 335 375 335 375 349 343.5 c 128,-1,79
 363 312 363 312 364.5 269.5 c 128,-1,80
 366 227 366 227 366 180 c 0,0,1
EndSplineSet
Validated: 33
Substitution2: "'fina' Terminal Forms in Arabic lookup 3 subtable" uniFEC2
Substitution2: "'medi' Medial Forms in Arabic lookup 2 subtable" uniFEC4
Substitution2: "'init' Initial Forms in Arabic lookup 1 subtable" approxequal
Substitution2: "'isol' Isolated Forms in Arabic lookup 0 subtable" uniFEC1
EndChar

StartChar: ADLAM_CAPITAL_LETTER_I
Encoding: 1592 125195 218
Width: 478
GlyphClass: 2
Flags: W
LayerCount: 2
Back
Fore
SplineSet
428 146 m 1,0,1
 428 113 428 113 420.5 86.5 c 128,-1,2
 413 60 413 60 396 40.5 c 128,-1,3
 379 21 379 21 352 10.5 c 128,-1,4
 325 0 325 0 286 0 c 2,5,-1
 82 0 l 2,6,7
 67 0 67 0 59.5 9.5 c 128,-1,8
 52 19 52 19 52 30 c 128,-1,9
 52 41 52 41 59.5 50.5 c 128,-1,10
 67 60 67 60 82 60 c 2,11,-1
 96 60 l 2,12,13
 102 60 102 60 111 69.5 c 128,-1,14
 120 79 120 79 120 106 c 2,15,-1
 120 570 l 2,16,17
 120 585 120 585 129.5 592.5 c 128,-1,18
 139 600 139 600 150 600 c 128,-1,19
 161 600 161 600 170.5 592.5 c 128,-1,20
 180 585 180 585 180 570 c 2,21,-1
 180 106 l 2,22,23
 180 95 180 95 176 81.5 c 128,-1,24
 172 68 172 68 166 60 c 1,25,-1
 286 60 l 2,26,27
 331 60 331 60 349.5 85.5 c 128,-1,28
 368 111 368 111 368 146 c 2,29,-1
 368 570 l 2,30,31
 368 585 368 585 377.5 592.5 c 128,-1,32
 387 600 387 600 398 600 c 128,-1,33
 409 600 409 600 418.5 592.5 c 128,-1,34
 428 585 428 585 428 570 c 2,35,-1
 428 146 l 1,36,-1
 428 146 l 1,0,1
EndSplineSet
Validated: 5
Substitution2: "'isol' Isolated Forms in Arabic lookup 0 subtable" uniFEC5
Substitution2: "'init' Initial Forms in Arabic lookup 1 subtable" Omega
Substitution2: "'medi' Medial Forms in Arabic lookup 2 subtable" uniFEC8
Substitution2: "'fina' Terminal Forms in Arabic lookup 3 subtable" uniFEC6
EndChar

StartChar: ADLAM_CAPITAL_LETTER_O
Encoding: 1593 125196 219
Width: 428
GlyphClass: 2
Flags: W
LayerCount: 2
Back
Fore
SplineSet
378 436 m 0,0,1
 378 421 378 421 368.5 413.5 c 128,-1,2
 359 406 359 406 348 406 c 128,-1,3
 337 406 337 406 327.5 413.5 c 128,-1,4
 318 421 318 421 318 436 c 0,5,6
 318 457 318 457 310 476 c 128,-1,7
 302 495 302 495 287.5 509.5 c 128,-1,8
 273 524 273 524 254 532 c 128,-1,9
 235 540 235 540 214 540 c 256,10,11
 193 540 193 540 174 532 c 128,-1,12
 155 524 155 524 140.5 509.5 c 128,-1,13
 126 495 126 495 118 476 c 128,-1,14
 110 457 110 457 110 436 c 2,15,-1
 110 166 l 2,16,17
 110 147 110 147 117 128 c 128,-1,18
 124 109 124 109 136 94 c 128,-1,19
 148 79 148 79 164.5 69.5 c 128,-1,20
 181 60 181 60 200 60 c 2,21,-1
 272 60 l 2,22,23
 290 60 290 60 302.5 63.5 c 128,-1,24
 315 67 315 67 324 71 c 128,-1,25
 333 75 333 75 340.5 77.5 c 128,-1,26
 348 80 348 80 356 78 c 0,27,28
 370 74 370 74 367.5 61.5 c 128,-1,29
 365 49 365 49 353 35.5 c 128,-1,30
 341 22 341 22 322.5 11 c 128,-1,31
 304 0 304 0 286 0 c 2,32,-1
 76 0 l 2,33,34
 61 0 61 0 53.5 9.5 c 128,-1,35
 46 19 46 19 46 30 c 128,-1,36
 46 41 46 41 53.5 50.5 c 128,-1,37
 61 60 61 60 76 60 c 2,38,-1
 88 60 l 1,39,40
 70 82 70 82 60 109 c 128,-1,41
 50 136 50 136 50 166 c 2,42,-1
 50 436 l 2,43,44
 50 470 50 470 63 499.5 c 128,-1,45
 76 529 76 529 98 551.5 c 128,-1,46
 120 574 120 574 150 587 c 128,-1,47
 180 600 180 600 214 600 c 256,48,49
 248 600 248 600 278 587 c 128,-1,50
 308 574 308 574 330 552 c 128,-1,51
 352 530 352 530 365 500 c 128,-1,52
 378 470 378 470 378 436 c 0,0,1
EndSplineSet
Validated: 1
Substitution2: "'fina' Terminal Forms in Arabic lookup 3 subtable" uniFECA
Substitution2: "'medi' Medial Forms in Arabic lookup 2 subtable" uniFECC
Substitution2: "'init' Initial Forms in Arabic lookup 1 subtable" uniFECB
Substitution2: "'isol' Isolated Forms in Arabic lookup 0 subtable" uniFEC9
EndChar

StartChar: ADLAM_CAPITAL_LETTER_DHA
Encoding: 1594 125197 220
Width: 399
GlyphClass: 2
Flags: W
LayerCount: 2
Back
Fore
SplineSet
349 148 m 1,0,1
 349 112 349 112 337 84 c 128,-1,2
 325 56 325 56 305 37.5 c 128,-1,3
 285 19 285 19 257.5 9.5 c 128,-1,4
 230 0 230 0 200 0 c 256,5,6
 170 0 170 0 143 11.5 c 128,-1,7
 116 23 116 23 96 43 c 1,8,9
 73 0 73 0 31 0 c 2,10,-1
 22 0 l 2,11,12
 7 0 7 0 -0.5 9.5 c 128,-1,13
 -8 19 -8 19 -8 30 c 128,-1,14
 -8 41 -8 41 -0.5 50.5 c 128,-1,15
 7 60 7 60 22 60 c 2,16,-1
 31 60 l 2,17,18
 50 60 50 60 50 106 c 2,19,-1
 50 570 l 2,20,21
 50 585 50 585 59.5 592.5 c 128,-1,22
 69 600 69 600 80 600 c 128,-1,23
 91 600 91 600 100.5 592.5 c 128,-1,24
 110 585 110 585 110 570 c 2,25,-1
 110 267 l 1,26,27
 149 297 149 297 200 297 c 0,28,29
 226 297 226 297 248 289.5 c 128,-1,30
 270 282 270 282 289 268 c 1,31,-1
 289 570 l 2,32,33
 289 585 289 585 298.5 592.5 c 128,-1,34
 308 600 308 600 319 600 c 128,-1,35
 330 600 330 600 339.5 592.5 c 128,-1,36
 349 585 349 585 349 570 c 2,37,-1
 349 148 l 1,38,-1
 349 148 l 1,0,1
289 148 m 256,39,40
 289 185 289 185 263 211 c 128,-1,41
 237 237 237 237 200 237 c 256,42,43
 163 237 163 237 137 211 c 128,-1,44
 111 185 111 185 111 148 c 256,45,46
 111 111 111 111 137 85.5 c 128,-1,47
 163 60 163 60 200 60 c 256,48,49
 237 60 237 60 263 85.5 c 128,-1,50
 289 111 289 111 289 148 c 256,39,40
EndSplineSet
Validated: 5
Substitution2: "'fina' Terminal Forms in Arabic lookup 3 subtable" uniFECE
Substitution2: "'medi' Medial Forms in Arabic lookup 2 subtable" uniFED0
Substitution2: "'init' Initial Forms in Arabic lookup 1 subtable" uniFECF
Substitution2: "'isol' Isolated Forms in Arabic lookup 0 subtable" uniFECD
EndChar

StartChar: afii57440
Encoding: 1600 1600 221
Width: 60
GlyphClass: 2
Flags: W
LayerCount: 2
Back
Fore
SplineSet
-30 0 m 2,0,1
 -45 0 -45 0 -53 9.5 c 128,-1,2
 -61 19 -61 19 -61 30.5 c 128,-1,3
 -61 42 -61 42 -53 51.5 c 128,-1,4
 -45 61 -45 61 -30 61 c 2,5,-1
 90 61 l 2,6,7
 105 61 105 61 113 51.5 c 128,-1,8
 121 42 121 42 121 30.5 c 128,-1,9
 121 19 121 19 113 9.5 c 128,-1,10
 105 0 105 0 90 0 c 2,11,-1
 -30 0 l 2,0,1
EndSplineSet
Validated: 1
EndChar

StartChar: ADLAM_CAPITAL_LETTER_YHE
Encoding: 1601 125198 222
Width: 454
GlyphClass: 2
Flags: W
LayerCount: 2
Back
Fore
SplineSet
398 388 m 1,0,1
 410 365 410 365 399 347 c 128,-1,2
 388 329 388 329 368 329 c 2,3,-1
 195 329 l 2,4,5
 174 329 174 329 158 318 c 128,-1,6
 142 307 142 307 131.5 289 c 128,-1,7
 121 271 121 271 115.5 247.5 c 128,-1,8
 110 224 110 224 110 200 c 0,9,10
 110 174 110 174 115 149 c 128,-1,11
 120 124 120 124 132.5 104 c 128,-1,12
 145 84 145 84 167.5 72 c 128,-1,13
 190 60 190 60 225 60 c 2,14,-1
 367 60 l 2,15,16
 382 60 382 60 389.5 50.5 c 128,-1,17
 397 41 397 41 397 30 c 128,-1,18
 397 19 397 19 389.5 9.5 c 128,-1,19
 382 0 382 0 367 0 c 2,20,-1
 78 0 l 2,21,22
 63 0 63 0 55.5 9.5 c 128,-1,23
 48 19 48 19 48 30 c 128,-1,24
 48 41 48 41 55.5 50.5 c 128,-1,25
 63 60 63 60 78 60 c 2,26,-1
 89 60 l 1,27,28
 76 77 76 77 68.5 96.5 c 128,-1,29
 61 116 61 116 57 135 c 128,-1,30
 53 154 53 154 51.5 171 c 128,-1,31
 50 188 50 188 50 200 c 0,32,33
 50 235 50 235 59.5 268.5 c 128,-1,34
 69 302 69 302 87 329 c 128,-1,35
 105 356 105 356 131 372.5 c 128,-1,36
 157 389 157 389 190 389 c 2,37,-1
 328 389 l 1,38,-1
 226 556 l 2,39,40
 219 570 219 570 223.5 580.5 c 128,-1,41
 228 591 228 591 238 596 c 128,-1,42
 248 601 248 601 260.5 598.5 c 128,-1,43
 273 596 273 596 280 582 c 2,44,-1
 398 388 l 1,45,-1
 398 388 l 1,0,1
EndSplineSet
Validated: 37
Substitution2: "'isol' Isolated Forms in Arabic lookup 0 subtable" uniFED1
Substitution2: "'init' Initial Forms in Arabic lookup 1 subtable" uniFED3
Substitution2: "'medi' Medial Forms in Arabic lookup 2 subtable" uniFED4
Substitution2: "'fina' Terminal Forms in Arabic lookup 3 subtable" uniFED2
EndChar

StartChar: ADLAM_CAPITAL_LETTER_WAW
Encoding: 1602 125199 223
Width: 536
GlyphClass: 2
Flags: W
LayerCount: 2
Back
Fore
SplineSet
486 326 m 1,0,1
 486 311 486 311 476.5 303.5 c 128,-1,2
 467 296 467 296 456 296 c 128,-1,3
 445 296 445 296 435.5 303.5 c 128,-1,4
 426 311 426 311 426 326 c 2,5,-1
 426 489 l 2,6,7
 426 496 426 496 423 504.5 c 128,-1,8
 420 513 420 513 413.5 521 c 128,-1,9
 407 529 407 529 396 534.5 c 128,-1,10
 385 540 385 540 370 540 c 0,11,12
 353 540 353 540 342 534.5 c 128,-1,13
 331 529 331 529 325 521 c 128,-1,14
 319 513 319 513 316.5 504.5 c 128,-1,15
 314 496 314 496 314 489 c 2,16,-1
 314 146 l 2,17,18
 314 113 314 113 306.5 86.5 c 128,-1,19
 299 60 299 60 282 40.5 c 128,-1,20
 265 21 265 21 238 10.5 c 128,-1,21
 211 0 211 0 172 0 c 2,22,-1
 80 0 l 2,23,24
 67 0 67 0 59.5 7.5 c 128,-1,25
 52 15 52 15 50.5 25 c 128,-1,26
 49 35 49 35 53.5 44.5 c 128,-1,27
 58 54 58 54 68 58 c 0,28,29
 74 64 74 64 81 70 c 0,30,31
 87 75 87 75 93.5 80 c 128,-1,32
 100 85 100 85 106 90 c 0,33,34
 121 101 121 101 133 101.5 c 128,-1,35
 145 102 145 102 152.5 96.5 c 128,-1,36
 160 91 160 91 161.5 81 c 128,-1,37
 163 71 163 71 157 60 c 1,38,-1
 172 60 l 2,39,40
 217 60 217 60 235.5 85.5 c 128,-1,41
 254 111 254 111 254 146 c 2,42,-1
 254 263 l 1,43,-1
 148 263 l 2,44,45
 133 263 133 263 125.5 272.5 c 128,-1,46
 118 282 118 282 118 293 c 128,-1,47
 118 304 118 304 125.5 313.5 c 128,-1,48
 133 323 133 323 148 323 c 2,49,-1
 254 323 l 1,50,-1
 254 503 l 2,51,52
 254 522 254 522 261.5 539.5 c 128,-1,53
 269 557 269 557 284 570.5 c 128,-1,54
 299 584 299 584 320.5 592 c 128,-1,55
 342 600 342 600 370 600 c 0,56,57
 394 600 394 600 415.5 592 c 128,-1,58
 437 584 437 584 452.5 570.5 c 128,-1,59
 468 557 468 557 477 539.5 c 128,-1,60
 486 522 486 522 486 503 c 2,61,-1
 486 326 l 1,62,-1
 486 326 l 1,0,1
EndSplineSet
Validated: 5
Substitution2: "'isol' Isolated Forms in Arabic lookup 0 subtable" uniFED5
Substitution2: "'init' Initial Forms in Arabic lookup 1 subtable" uniFED7
Substitution2: "'medi' Medial Forms in Arabic lookup 2 subtable" uniFED8
Substitution2: "'fina' Terminal Forms in Arabic lookup 3 subtable" uniFED6
EndChar

